<svg id="uuid-73bbbd42-ecd5-4147-9f2a-b4d9d5d3e9d9" data-name="更新" xmlns="http://www.w3.org/2000/svg" width="55" height="24"><path d="m13.41,11.54c-.13.5-.43,1.79-.43,1.79h-.02s-.3-1.3-.44-1.79l-.94-3.44h-2.57v7.87h1.72v-3.95c0-.32-.03-1.58-.03-1.58h.02s.27,1.19.36,1.47l1.1,4.06h1.58l1.11-4.07c.09-.29.36-1.46.36-1.46h.02s-.03,1.25-.03,1.57v3.96h1.75v-7.87h-2.59l-.95,3.44Zm7.92-3.44l-2.78,7.87h1.92l.44-1.42h2.7l.45,1.42h2.01l-2.79-7.87h-1.97Zm.03,5.05l.59-1.9c.13-.41.31-1.11.31-1.11h.02s.17.7.3,1.11l.58,1.9h-1.81Zm6.57,2.82h1.91v-7.87h-1.91v7.87Zm6.61-1.65v-6.22h-1.91v7.87h5.38v-1.65h-3.47Z" fill="#fff" stroke-width="0"/></svg>