<svg id="uuid-abbad858-54f4-4743-968d-896a202ea3fa" data-name="更新" xmlns="http://www.w3.org/2000/svg" width="140" height="16"><path d="m32.14,13.2c-2.33,0-3.78-2.09-3.78-4.97s1.21-4.99,3.76-4.99c1.67,0,2.77,1.08,2.97,2.49h3.89c-.2-1.76-.99-3.3-2.35-4.33-1.12-.86-2.66-1.39-4.49-1.39-4.69,0-7.75,3.54-7.75,8.23s3.15,8.16,7.77,8.16c2.22,0,3.83-.62,5.04-1.78,1.08-1.03,1.78-2.46,1.89-4.03h-3.89c-.18,1.52-1.32,2.62-3.06,2.62ZM49.25,0c-4.75,0-7.77,3.5-7.77,8.21s3.01,8.21,7.77,8.21,7.79-3.5,7.79-8.21S54.03,0,49.25,0Zm.02,13.25c-2.53,0-3.83-2.18-3.83-5.04s1.3-5.06,3.83-5.06,3.81,2.2,3.81,5.06-1.25,5.04-3.81,5.04Zm20.73-5.48c0,.55.04,2.44.04,2.44h-.04s-.84-1.56-1.08-2l-4.66-7.9h-3.92v15.73h3.81v-7.33c0-.55-.04-2.57-.04-2.57h.04s.86,1.69,1.12,2.11l4.62,7.79h3.92V.31h-3.81v7.46Zm6.66-4.16h4.58v12.43h3.89V3.61h4.62V.31h-13.09v3.3ZM95.53.31l-5.65,15.73h3.92l.9-2.84h5.5l.92,2.84h4.09L99.53.31h-4Zm.07,10.1l1.21-3.81c.26-.81.64-2.22.64-2.22h.04s.35,1.41.62,2.22l1.19,3.81h-3.7Zm18.75,2.79c-2.33,0-3.78-2.09-3.78-4.97s1.21-4.99,3.76-4.99c1.67,0,2.77,1.08,2.97,2.49h3.89c-.2-1.76-.99-3.3-2.35-4.33-1.12-.86-2.66-1.39-4.49-1.39-4.69,0-7.75,3.54-7.75,8.23s3.15,8.16,7.77,8.16c2.22,0,3.83-.62,5.04-1.78,1.08-1.03,1.78-2.46,1.89-4.03h-3.89c-.18,1.52-1.32,2.62-3.06,2.62ZM123.51.31v3.3h4.58v12.43h3.89V3.61h4.62V.31h-13.09Z" fill="#fff" stroke-width="0"/></svg>