<svg id="a0497c2b-c424-4098-b3ae-1cba0861e815" data-name="レイヤー 1" xmlns="http://www.w3.org/2000/svg" width="201" height="64"><defs><style>.bea5d130-3906-46b4-9f43-6f23523d192f{fill:#fff}</style></defs><path class="bea5d130-3906-46b4-9f43-6f23523d192f" d="M38.06,25.94c-1.55,0-2.19-1.46-2.19-3.66s.64-3.67,2.19-3.67,2.17,1.49,2.17,3.67S39.59,25.94,38.06,25.94Zm0,2.21c3.07,0,5.06-2.29,5.06-5.87s-2-5.85-5-5.85S33,18.7,33,22.28,35,28.15,38,28.15Z"/><path class="bea5d130-3906-46b4-9f43-6f23523d192f" d="M46.58,27.89h2.81V16.6H47.15a2.82,2.82,0,0,1-3,2.24v1.84h2.43Z"/><path class="bea5d130-3906-46b4-9f43-6f23523d192f" d="M65,32.2c3.62,0,6.43-1.83,6.43-5.13s-2.63-4.27-5.55-4.95c-2.35-.53-3.55-.79-3.55-1.9,0-.88.9-1.47,2.26-1.47s2.37.68,2.52,1.89h3.8c-.16-3.3-2.79-4.84-6.19-4.84s-6.23,1.47-6.23,4.84,2.87,4.14,5.59,4.78c2.15.53,3.42.79,3.42,2s-1.25,1.65-2.52,1.65c-1.86,0-2.89-.66-3.07-2.25H58C58,30.35,60.78,32.2,65,32.2Z"/><path class="bea5d130-3906-46b4-9f43-6f23523d192f" d="M77.3,31.83h3.89V19.39h4.6v-3.3H72.74v3.3H77.3Z"/><path class="bea5d130-3906-46b4-9f43-6f23523d192f" d="M85.9,31.83h3.91l.9-2.84h5.48l.92,2.84h4.08L95.53,16.09h-4Zm5.71-5.64,1.2-3.81c.27-.81.64-2.22.64-2.22h0s.35,1.41.62,2.22l1.18,3.81Z"/><path class="bea5d130-3906-46b4-9f43-6f23523d192f" d="M105.45,31.83h3.88V19.39h4.61v-3.3H100.88v3.3h4.57Z"/><path class="bea5d130-3906-46b4-9f43-6f23523d192f" d="M116.35,31.83h12V28.52h-8.14V25.16h6.87v-3h-6.87V19.3h8V16.09H116.35Z"/><path class="bea5d130-3906-46b4-9f43-6f23523d192f" d="M131.93,31.83h3.49V23.92c0-.64-.07-3.17-.07-3.17h.05s.55,2.38.72,2.95l2.24,8.13h3.2l2.26-8.15c.18-.57.73-2.93.73-2.93h0s-.07,2.51-.07,3.15v7.93h3.56V16.09h-5.27L140.88,23c-.26,1-.88,3.58-.88,3.58h0s-.61-2.59-.9-3.58l-1.91-6.89h-5.22Z"/><path class="bea5d130-3906-46b4-9f43-6f23523d192f" d="M152.09,31.83h12V28.52H156V25.16h6.86v-3H156V19.3h8V16.09H152.09Z"/><path class="bea5d130-3906-46b4-9f43-6f23523d192f" d="M167.67,31.83h3.79V24.5c0-.56,0-2.58,0-2.58h0s.86,1.69,1.12,2.11l4.61,7.8h3.91V16.09h-3.8v7.46c0,.55,0,2.44,0,2.44h0l-1.07-2-4.66-7.9h-3.9Z"/><path class="bea5d130-3906-46b4-9f43-6f23523d192f" d="M188.51,31.83h3.88V19.39H197v-3.3H184v3.3h4.56Z"/></svg>