<svg id="a0f79865-6144-47c4-9d76-e4dbd4c90c77" data-name="レイヤー 1" xmlns="http://www.w3.org/2000/svg" width="400" height="16"><defs><style>.bfa065ee-7227-41f0-b109-bc48cd68d916{fill:#707070}</style></defs><path class="bfa065ee-7227-41f0-b109-bc48cd68d916" d="M131.9,12.67V3.31h2.33c2.45,0,3.83,1.88,3.83,4.79s-1.32,4.57-3.87,4.57ZM128,16h6.47a7.71,7.71,0,0,0,4.81-1.45A7.86,7.86,0,0,0,142,8.1c0-4.9-2.93-8.1-7.29-8.1H128Z"/><path class="bfa065ee-7227-41f0-b109-bc48cd68d916" d="M145.31,16h3.89V10h2.36a2.33,2.33,0,0,1,2.62,2.29c.24,1.58.18,3.46.6,3.71h3.78v-.2c-.55-.2-.33-2.22-.66-4.32a3.18,3.18,0,0,0-2.29-2.93V8.48a3.82,3.82,0,0,0,2.73-3.87c0-3-2.37-4.61-5.5-4.61h-7.53Zm3.89-8.93V3.13h3c1.5,0,2.25.83,2.25,2s-.8,2-2.34,2Z"/><path class="bfa065ee-7227-41f0-b109-bc48cd68d916" d="M161.94,16H174V12.64h-8.17V9.22h6.9V6.13h-6.9V3.27h8V0H161.94Z"/><path class="bfa065ee-7227-41f0-b109-bc48cd68d916" d="M176.49,16h3.92l.9-2.89h5.51l.92,2.89h4.1L186.16,0h-4Zm5.73-5.73,1.21-3.87c.26-.83.64-2.26.64-2.26h0s.35,1.43.62,2.26l1.19,3.87Z"/><path class="bfa065ee-7227-41f0-b109-bc48cd68d916" d="M194.52,16H198V8c0-.65-.06-3.23-.06-3.23h0s.55,2.42.73,3L201,16h3.21l2.27-8.28c.18-.58.73-3,.73-3h0s-.07,2.56-.07,3.2V16h3.57V0h-5.28l-1.94,7c-.27,1-.88,3.65-.88,3.65h0S202,8,201.68,7l-1.92-7h-5.24Z"/><path class="bfa065ee-7227-41f0-b109-bc48cd68d916" d="M214.57,16h3.76V12.24h-3.76Z"/><path class="bfa065ee-7227-41f0-b109-bc48cd68d916" d="M227.05,16h11V12.64H231V0h-3.9Z"/><path class="bfa065ee-7227-41f0-b109-bc48cd68d916" d="M240.87,16h12.07V12.64h-8.17V9.22h6.9V6.13h-6.9V3.27h8V0H240.87Z"/><path class="bfa065ee-7227-41f0-b109-bc48cd68d916" d="M255.42,16h3.92l.9-2.89h5.51l.92,2.89h4.1L265.09,0h-4Zm5.73-5.73,1.21-3.87c.26-.83.64-2.26.64-2.26h0s.35,1.43.62,2.26l1.19,3.87Z"/><path class="bfa065ee-7227-41f0-b109-bc48cd68d916" d="M273.45,16h4V10.65h3.67a5,5,0,0,0,5.33-5.23,5.29,5.29,0,0,0-1.58-3.94A5.93,5.93,0,0,0,280.54,0h-7.09Zm4-8.48V3.33h2.88a2,2,0,0,1,2.2,2.06,2,2,0,0,1-2.2,2.13Z"/><path class="bfa065ee-7227-41f0-b109-bc48cd68d916" d="M287.07,16h3.76V12.24h-3.76Z"/><path class="bfa065ee-7227-41f0-b109-bc48cd68d916" d="M299.11,16h11V12.64H303V0h-3.9Z"/><path class="bfa065ee-7227-41f0-b109-bc48cd68d916" d="M313,16h3.89V0H313Z"/><path class="bfa065ee-7227-41f0-b109-bc48cd68d916" d="M324.67,16h4l5.18-16h-3.95l-2.44,8.39c-.33,1.19-.73,2.82-.73,2.82h0s-.38-1.61-.73-2.82L323.52,0h-4Z"/><path class="bfa065ee-7227-41f0-b109-bc48cd68d916" d="M336.54,16H348.6V12.64h-8.17V9.22h6.9V6.13h-6.9V3.27h8V0H336.54Z"/><path class="bfa065ee-7227-41f0-b109-bc48cd68d916" d="M352.23,16H356V12.24h-3.77Z"/></svg>