<svg id="a4145016-d2bd-4753-8a29-9d48a35f1a76" data-name="レイヤー 1" xmlns="http://www.w3.org/2000/svg" width="268" height="64"><defs><style>.f911c0e2-f3c7-49b8-9982-d0d9b642b76e{fill:#fff;fill-rule:evenodd}</style></defs><path d="M28.45,32.7H34.1v-2H28.45V28H34.9V26H26V38h9v-2h-6.5Zm14.4-3.56a2.83,2.83,0,0,0-2.57,1.41h-.05V29.38H38V38h2.3V33.09a1.8,1.8,0,0,1,1.76-2,1.44,1.44,0,0,1,1.5,1.58V38h2.3v-5.6A3,3,0,0,0,42.85,29.14Zm8.71,6.29V30.88h1.49v-1.5H51.56V26.7H49.31v2.68h-1.2v1.5h1.2v5c0,1.62,1.24,2.06,2.35,2.06.92,0,1.44,0,1.44,0V36.26l-.68,0A.76.76,0,0,1,51.56,35.43Zm7.8-6.29a4.26,4.26,0,0,0-4.28,4.51,4.27,4.27,0,0,0,4.5,4.55,3.73,3.73,0,0,0,3.93-2.81H61.24a1.64,1.64,0,0,1-1.68,1.06,2.14,2.14,0,0,1-2.21-2.14h6.29C63.64,31.25,62.15,29.14,59.36,29.14Zm-2,3.6a1.92,1.92,0,0,1,2-1.84,1.82,1.82,0,0,1,1.85,1.84Zm13.08-3.46a2.26,2.26,0,0,0-2.13,1.47h0V29.38H66.06V38h2.3V33.77A2.18,2.18,0,0,1,71,31.33h0v-2A1.57,1.57,0,0,0,70.46,29.28Z" fill="#fff"/><path class="f911c0e2-f3c7-49b8-9982-d0d9b642b76e" d="M228,30h4v4h-4Z"/><path class="f911c0e2-f3c7-49b8-9982-d0d9b642b76e" d="M224,30h4v4h-4Z"/><path class="f911c0e2-f3c7-49b8-9982-d0d9b642b76e" d="M232,30h4v4h-4Z"/><path class="f911c0e2-f3c7-49b8-9982-d0d9b642b76e" d="M236,30h4v4h-4Z"/><path class="f911c0e2-f3c7-49b8-9982-d0d9b642b76e" d="M240,30h4v4h-4Z"/><path class="f911c0e2-f3c7-49b8-9982-d0d9b642b76e" d="M236,26h4v4h-4Z"/><path class="f911c0e2-f3c7-49b8-9982-d0d9b642b76e" d="M232,22h4v4h-4Z"/><path class="f911c0e2-f3c7-49b8-9982-d0d9b642b76e" d="M232,38h4v4h-4Z"/><path class="f911c0e2-f3c7-49b8-9982-d0d9b642b76e" d="M236,34h4v4h-4Z"/></svg>