<svg id="aa969a31-bea2-46ca-8d93-eda521514487" data-name="レイヤー 1" xmlns="http://www.w3.org/2000/svg" width="226" height="116"><path d="M14.7,32.94h4.61V23.29L28.44,8.5h-5.1l-2.66,4.39c-1.2,2-2.43,4.12-3.59,6.22-1.16-2.06-2.43-4.12-3.66-6.18L10.73,8.5H5.5l9.2,14.79ZM25.46,20.86H29.7c.17-2.17,1.2-2.82,3.66-2.82s3.21.82,3.21,2.2-.85,1.82-2.49,2l-2.67.24c-5,.48-6.77,2.58-6.77,5.53,0,3.43,2.6,5.32,6.36,5.32a6.53,6.53,0,0,0,5.67-2.58,5.92,5.92,0,0,0,.48,2.17h4.31a6.75,6.75,0,0,1-.72-3.37V20.13c0-3.19-2.08-5.32-7.35-5.32C27.89,14.81,25.7,17.11,25.46,20.86Zm11.11,5.08c0,3.08-2.25,4.32-4.55,4.32-2,0-3-.93-3-2.4s.79-2.27,3.18-2.54L34.55,25a3.39,3.39,0,0,0,2-.72ZM49.7,23.19c0-3.33,1.81-4.63,3.62-4.63,2,0,3.08,1.09,3.08,3.36v11h4.27V23.19c0-3.33,1.78-4.63,3.66-4.63,2,0,3,1.09,3,3.36v11h4.31V21.23c0-3.91-2.23-6.42-6.16-6.42a6.38,6.38,0,0,0-5.47,3.3,5.56,5.56,0,0,0-5.47-3.3,5.73,5.73,0,0,0-5,3V15.23H45.39V32.94H49.7ZM91,20.13c0-3.19-2.09-5.32-7.35-5.32-5.51,0-7.69,2.3-7.93,6H80C80.12,18.69,81.14,18,83.6,18s3.22.82,3.22,2.2-.86,1.82-2.5,2l-2.66.24c-5,.48-6.77,2.58-6.77,5.53,0,3.43,2.59,5.32,6.36,5.32a6.54,6.54,0,0,0,5.67-2.58,5.92,5.92,0,0,0,.48,2.17h4.31A6.75,6.75,0,0,1,91,29.57Zm-4.17,5.81c0,3.08-2.26,4.32-4.55,4.32-2,0-3-.93-3-2.4s.78-2.27,3.18-2.54L84.8,25a3.45,3.45,0,0,0,2-.72Zm14.28,7.41a6.5,6.5,0,0,0,5.54-3v2.58h4.17V15.23h-4.3v9.92c0,3.15-2.06,4.46-3.94,4.46-2.22,0-3.31-1.1-3.31-3.37v-11H95V27C95,31.19,97.45,33.35,101.1,33.35Zm30.08-7h-4.3a3.75,3.75,0,0,1-4,3.39c-2.49,0-4.31-1.78-4.31-5.66s1.75-5.66,4.31-5.66a3.68,3.68,0,0,1,3.9,3.19h4.31c-.52-4.15-3.59-6.8-8.21-6.8-5.26,0-8.72,3.61-8.72,9.27s3.49,9.27,8.72,9.27C127.42,33.35,130.71,30.67,131.18,26.35ZM138.53,23c0-3.16,2.05-4.46,3.93-4.46,2.19,0,3.32,1.09,3.32,3.36v11h4.31V21.2c0-4.22-2.5-6.39-6.19-6.39a6.47,6.47,0,0,0-5.37,2.78V8.5h-4.31V32.94h4.31ZM159.21,8.88H155v4h4.24Zm0,6.35h-4.3V32.94h4.3ZM24.75,68.84h5.12V44.4H25.43v6.38c0,3.61,0,7.52.14,11.84-1.23-2.29-2.94-5.11-4.31-7.34L14.46,44.4H9.33V68.84h4.44V62.45c0-3.6,0-7.51-.13-11.84C14.87,53,16.44,55.52,18,58ZM32.84,60c0,5.63,3.63,9.27,9,9.27s9-3.64,9-9.27-3.59-9.26-9-9.26S32.84,54.35,32.84,60Zm9-5.69c2.77,0,4.59,2,4.59,5.69s-1.82,5.7-4.59,5.7-4.58-2-4.58-5.7S39,54.29,41.83,54.29ZM53.05,68.84h5V63.93h-5Zm15,0V44.4H64.39c-.75,3.5-2.87,4.46-6,4.67l-.55,0v3.26h5.61V68.84Zm13.84-25c-6.46,0-9.74,4.67-9.74,12.77s3.28,12.77,9.74,12.77,9.78-4.67,9.78-12.77S88.39,43.85,81.89,43.85Zm0,21.62c-3.14,0-4.92-2.64-4.92-8.85s1.78-8.86,4.92-8.86,5,2.65,5,8.86S85.11,65.47,81.89,65.47ZM8.64,104.74h4.62V94.2H24.71v-4H13.26V84.46H25.84V80.3H8.64Zm33.91-12.8c0-3.19-2.08-5.32-7.35-5.32-5.5,0-7.69,2.3-7.93,6h4.24c.17-2.16,1.2-2.82,3.66-2.82s3.21.83,3.21,2.2-.85,1.82-2.49,2l-2.67.25c-5,.48-6.77,2.57-6.77,5.52,0,3.43,2.6,5.32,6.36,5.32a6.58,6.58,0,0,0,5.68-2.57,5.53,5.53,0,0,0,.48,2.16h4.3a6.71,6.71,0,0,1-.72-3.36Zm-4.17,5.8c0,3.09-2.25,4.32-4.54,4.32-2,0-3-.92-3-2.4s.79-2.27,3.18-2.54l2.33-.28a3.32,3.32,0,0,0,2-.72ZM66.65,86.62a6.36,6.36,0,0,0-5.47,3.29,5.58,5.58,0,0,0-5.47-3.29,5.72,5.72,0,0,0-5,2.95V87H46.52v17.71h4.3V95c0-3.33,1.82-4.63,3.63-4.63,2,0,3.07,1.1,3.07,3.36v11H61.8V95c0-3.33,1.78-4.63,3.66-4.63,2.05,0,3,1.1,3,3.36v11h4.31V93C72.81,89.12,70.58,86.62,66.65,86.62Zm11,18.12H82V87h-4.3Zm0-24.06v4h4.24v-4Zm9.13,24.06h4.3V80.3h-4.3Zm18.56-13.25c-1,3.12-1.92,6.35-2.84,9.85-.89-3.47-1.85-6.79-2.8-9.88L98.3,87H93.65l5.13,14.55a12,12,0,0,1,.82,3.57A2.64,2.64,0,0,1,96.69,108H95.05v3.4a13.88,13.88,0,0,0,1.88.1c4.28,0,6.19-1.37,7.59-5.32L111.33,87h-4.52Zm25.84-11.74c-7.32,0-12.17,5.08-12.17,12.77s4.85,12.77,12.17,12.77,12.13-5.08,12.13-12.77S138.5,79.75,131.22,79.75Zm0,21.45c-4.45,0-7.35-3.29-7.35-8.68s2.9-8.68,7.35-8.68,7.35,3.29,7.35,8.68S135.66,101.2,131.22,101.2Zm16.3-15.51V87h-2.73v3.29h2.73v14.42h4.27V90.32h3.63V87h-3.63V85.76c0-1.37.69-2.13,2.23-2.13h1.5V80.3c-.62-.07-1.54-.1-2.22-.1C149.06,80.2,147.52,82.57,147.52,85.69Zm22.58,19h4.31V87H170.1Zm-10.29-19V87h-2.74v3.29h2.74v14.42h4.27V90.32h3.63V87h-3.63V85.76c0-1.37.69-2.13,2.22-2.13h1.51V80.3c-.62-.07-1.54-.1-2.22-.1C161.35,80.2,159.81,82.57,159.81,85.69Zm14.56-5h-4.24v4h4.24Zm11.49,20.87c-2.5,0-4.31-1.79-4.31-5.67s1.74-5.66,4.31-5.66a3.68,3.68,0,0,1,3.89,3.19h4.31c-.51-4.15-3.59-6.79-8.2-6.79-5.27,0-8.72,3.6-8.72,9.26s3.48,9.27,8.72,9.27c4.51,0,7.79-2.68,8.27-7h-4.31A3.75,3.75,0,0,1,185.86,101.55Zm28.64-5.36c0-5.63-3.32-9.57-8.72-9.57-5.23,0-8.71,3.7-8.71,9.26s3.59,9.27,8.78,9.27c4.24,0,7.32-2.3,8.21-5.9h-4.14a4,4,0,0,1-4,2.54c-2.5,0-4.28-1.41-4.59-4.57h13.2Zm-13.16-2c.41-2.91,2.12-4.22,4.41-4.22,2.56,0,4.1,1.72,4.44,4.22Z" fill="#fff"/></svg>