<svg xmlns="http://www.w3.org/2000/svg" width="288" height="22"><path d="M13.14,9.8c-1.57,0-2.31-.52-2.31-1.26A3.75,3.75,0,0,1,11,7.43l-.82-.08A6,6,0,0,0,10,8.72c0,1.24,1.16,1.9,3.16,1.9a14.37,14.37,0,0,0,3.36-.34V9.41A12.29,12.29,0,0,1,13.14,9.8Zm2.72-5.53V3.44c-.71.07-1.7.14-2.65.14a22,22,0,0,1-2.61-.13v.83c.79.06,1.63.1,2.61.1S15.2,4.32,15.86,4.27Zm7-1a4.2,4.2,0,0,0-4.31,4c0,1.63.88,2.64,1.75,2.64s1.71-1,2.31-3.06a20.66,20.66,0,0,0,.59-2.83A2.72,2.72,0,0,1,25.85,6.9a3,3,0,0,1-2.5,2.91,7.68,7.68,0,0,1-.84.12l.46.75c2.34-.31,3.7-1.69,3.7-3.76A3.57,3.57,0,0,0,22.9,3.3Zm-1,3.41C21.36,8.37,20.81,9,20.37,9s-1-.54-1-1.79a3.41,3.41,0,0,1,3-3.17A15.74,15.74,0,0,1,21.86,6.71ZM35,4.7V3.48A7.53,7.53,0,0,1,35,2.67h-.89a5.52,5.52,0,0,1,0,.81V4.7H31.25V3.45a4.2,4.2,0,0,1,.05-.71h-.88a6.29,6.29,0,0,1,0,.71V4.7h-1c-.41,0-.9,0-1-.06v.85c.11,0,.56,0,1,0h1V7c0,.37,0,.8,0,.89h.87c0-.09,0-.53,0-.89V5.46h2.94v.35c0,2.78-1.12,3.73-2.93,4.35l.65.65c2.3-1,3.07-2.4,3.07-5.07V5.46h1c.44,0,.8,0,.91,0V4.65a7.15,7.15,0,0,1-.91,0Zm11.1-1.47-.66-.61a10.83,10.83,0,0,1-2.63,2.22,15.78,15.78,0,0,1-4.47,1.84l.46.77A20,20,0,0,0,42.54,5.9V9.68a9.28,9.28,0,0,1-.06,1.07h1a7.55,7.55,0,0,1-.06-1.07V5.4A15.69,15.69,0,0,0,46.08,3.23Zm4.15.51c0-.3,0-.73.07-1h-1a6.31,6.31,0,0,1,.08,1V9.56a8.81,8.81,0,0,1-.07,1.18h1c0-.33-.06-.87-.06-1.18V6.26a26.22,26.22,0,0,1,3.93,1.61L54.5,7a32,32,0,0,0-4.27-1.65Zm7.5,5.09a10.2,10.2,0,0,1-.09-1.35,24.29,24.29,0,0,1,.49-3.9,5.56,5.56,0,0,1,.18-.65l-.89-.08a4.48,4.48,0,0,1-.07.7,29.35,29.35,0,0,0-.44,4.07,11.78,11.78,0,0,0,.37,3.11l.7-.05c0-.1,0-.25,0-.35a1.68,1.68,0,0,1,0-.43c.11-.48.45-1.49.7-2.17l-.42-.33C58.12,7.79,57.89,8.38,57.73,8.83Zm5.32-3.49c.59,0,1.17-.1,1.71-.18V4.38a16.11,16.11,0,0,1-1.71.23c0-.45,0-.89,0-1.17a5.7,5.7,0,0,1,.06-.58h-.91a3.94,3.94,0,0,1,.05.6c0,.28,0,.69,0,1.19l-.91,0c-.58,0-1.11,0-1.67-.08v.75c.57,0,1.09.06,1.65.06l.92,0c0,.81.06,1.75.1,2.49a5,5,0,0,0-.89-.08c-1.3,0-2,.65-2,1.47s.72,1.43,2,1.43a1.48,1.48,0,0,0,1.7-1.61V8.92a7.54,7.54,0,0,1,1.5,1.14l.42-.66a6.62,6.62,0,0,0-2-1.29C63.13,7.29,63.07,6.32,63.05,5.34ZM61.37,10c-.71,0-1.18-.27-1.18-.76s.5-.76,1.23-.76a3.19,3.19,0,0,1,1,.15c0,.12,0,.22,0,.31C62.41,9.54,62.19,10,61.37,10ZM68,11.23h.75v-.4h4.57v.4h.78V6.84H68Zm.75-3.75h4.57v1H68.72Zm0,1.64h4.57v1.07H68.72Zm4.81-5.24-.68-.23h2V3H71.3V2.07h-.77V3H67.09v.67H69l-.51.15A5.31,5.31,0,0,1,69,5.3h-2.5V6h8.83V5.3h-2.6C73,4.91,73.27,4.36,73.53,3.88ZM72.34,5.3H69.2l.59-.19a5.39,5.39,0,0,0-.59-1.46h3.55a10.71,10.71,0,0,1-.68,1.55Zm9-.66c-.24,0-.64,0-1.1.06.11-.53.2-1.11.25-1.4l.12-.57-.93-.1a10.74,10.74,0,0,1-.25,2.14c-.59.05-1.16.1-1.49.11a8.61,8.61,0,0,1-.88,0l.08.86L78,5.62l1.24-.13a15.61,15.61,0,0,1-2.07,4.88l.82.33a19.89,19.89,0,0,0,2.06-5.29c.43,0,.82-.06,1.05-.06.63,0,1,.15,1,1.05a8.34,8.34,0,0,1-.46,3,.83.83,0,0,1-.86.51,5.3,5.3,0,0,1-1.21-.21l.13.83a5.25,5.25,0,0,0,1.16.15,1.4,1.4,0,0,0,1.44-.82,9.45,9.45,0,0,0,.57-3.55C82.93,5,82.21,4.64,81.33,4.64Zm3.36-2.41a9.37,9.37,0,0,1,.82,1.37l.54-.24A12.52,12.52,0,0,0,85.21,2ZM83.26,4.18A12,12,0,0,1,85,7.72l.77-.37A16.8,16.8,0,0,0,84,3.85Zm1.67-.41a13.33,13.33,0,0,0-.81-1.37l-.53.23A12,12,0,0,1,84.39,4Zm5.64,4a3.15,3.15,0,0,1-1.35,2.89,3.51,3.51,0,0,1,.51.51,3.76,3.76,0,0,0,1.53-3.39V6.77h-.69Zm1.74,3H93v-4h-.67ZM90.94,5.64l-1.15,0,.08.7,5-.26a5,5,0,0,1,.5.73l.6-.39a10.39,10.39,0,0,0-1.87-2.1l-.56.35c.26.24.54.51.8.79l-2.68.11c.3-.48.61-1.05.87-1.56H96V3.37H93.06V2.08h-.75V3.37H89.68v.68h2.06A14.77,14.77,0,0,1,90.94,5.64Zm-2,1.7a30,30,0,0,1-1.77,3.24l.63.5c.55-.95,1.21-2.19,1.7-3.25Zm.68-4.09a7,7,0,0,0-1.8-1.08l-.42.53a7.47,7.47,0,0,1,1.78,1.13Zm-.46,2.6a8.09,8.09,0,0,0-1.86-1l-.42.55a8.27,8.27,0,0,1,1.84,1.08Zm6.38,4.3c0,.16-.06.24-.11.27a.35.35,0,0,1-.21.05H95a.29.29,0,0,1-.17-.05s0-.15,0-.34V6.76h-.69V10c0,.6.06.76.19.89a.84.84,0,0,0,.56.18h.48a.92.92,0,0,0,.46-.11.61.61,0,0,0,.28-.39,7.2,7.2,0,0,0,.1-1.16,1.38,1.38,0,0,1-.51-.27C95.62,9.63,95.61,10,95.59,10.15ZM105,9.58c-.35,0-.5-.26-.5-.6,0-1,.36-2.69.36-3.67A1.23,1.23,0,0,0,103.49,4a5.52,5.52,0,0,0-3,1.65c0-.19,0-.37,0-.56s.31-.5.44-.68l-.3-.35h0c.08-.68.15-1.22.2-1.46l-.94,0a4.47,4.47,0,0,1,0,.72c0,.11,0,.47,0,.93-.51.08-1.08.15-1.4.17s-.43,0-.65,0l.08.82L99.81,5l-.06,1c-.51.77-1.63,2.29-2.18,3l.5.68c.47-.66,1.12-1.6,1.6-2.31,0,.14,0,.27,0,.37,0,1.08,0,1.57,0,2.52a5.54,5.54,0,0,1,0,.59h.87c0-.19,0-.44,0-.61,0-.88,0-1.47,0-2.37q0-.52,0-1.14c.91-1,2.1-1.91,2.9-1.91a.7.7,0,0,1,.78.81c0,1-.37,2.57-.37,3.66,0,.82.45,1.25,1.1,1.25a2.5,2.5,0,0,0,1.8-.82l-.13-.85A2.16,2.16,0,0,1,105,9.58Zm7.57-2.89c.93,0,1.79-.11,2.72-.23V5.71a24,24,0,0,1-2.74.25V4.53c.93,0,1.77-.13,2.54-.21V3.59a21.89,21.89,0,0,1-2.52.24c0-.25,0-.45,0-.58a4.92,4.92,0,0,1,0-.65h-.85a5.28,5.28,0,0,1,0,.59v.67h-.51a15.4,15.4,0,0,1-2.3-.19v.74c.58.07,1.63.15,2.31.15h.49V6h-.53a18.76,18.76,0,0,1-2.47-.17v.75c.7.08,1.79.14,2.47.14h.55c0,.38,0,.8.05,1.2a5.59,5.59,0,0,0-.83-.06c-1.42,0-2.28.61-2.28,1.51s.78,1.46,2.2,1.46,1.73-.71,1.73-1.39c0-.15,0-.36,0-.61a7.41,7.41,0,0,1,2.38,1.49l.45-.7a7.94,7.94,0,0,0-2.86-1.54C112.62,7.64,112.59,7.16,112.58,6.69Zm-1.72,3.41c-1,0-1.35-.33-1.35-.78s.5-.81,1.44-.81a4.94,4.94,0,0,1,1,.09c0,.26,0,.49,0,.66C111.91,9.94,111.43,10.1,110.86,10.1Zm11.52-6.24c0-.28,0-.51,0-.67s0-.51,0-.62h-.92c0,.12,0,.42.07.63s0,.38,0,.67c-1.47,0-3.33.08-4.41.09l0,.79c1.23-.09,2.9-.16,4.4-.17v1a2.08,2.08,0,0,0-.63-.1,1.71,1.71,0,0,0-1.73,1.71,1.56,1.56,0,0,0,1.59,1.66,1.39,1.39,0,0,0,.84-.25,3.26,3.26,0,0,1-2.45,1.6l.52.73c2.29-.68,2.94-2.12,2.94-3.46a2.43,2.43,0,0,0-.32-1.28c0-.45,0-1,0-1.59h.14c1.43,0,2.32,0,2.88,0V3.87h-3ZM121,8.12a.92.92,0,0,1-1-1,1,1,0,0,1,1-1,.83.83,0,0,1,.84.58C122,7.65,121.56,8.12,121,8.12ZM127,8a1.53,1.53,0,1,0,1.53,1.52A1.53,1.53,0,0,0,127,8Zm0,2.54a1,1,0,1,1,1-1A1,1,0,0,1,127,10.54Zm9.83-4.7c-1.18-.23-2.06-.49-2.06-1.38s.7-1.27,1.77-1.27a1.82,1.82,0,0,1,2,1.69h.93a2.62,2.62,0,0,0-3-2.46c-1.6,0-2.67.78-2.67,2.08,0,1.49,1.18,1.88,2.57,2.19s2.35.56,2.35,1.64S138,9.8,136.89,9.8a2.12,2.12,0,0,1-2.43-2h-1c.09,1.58,1.15,2.82,3.36,2.82,1.69,0,2.89-.83,2.89-2.3C139.74,6.53,138.35,6.15,136.82,5.84ZM144,4.61a2.77,2.77,0,0,0-2.76,3,2.76,2.76,0,1,0,5.49,0A2.75,2.75,0,0,0,144,4.61Zm0,5.24c-1.22,0-1.84-1-1.84-2.25s.62-2.25,1.84-2.25,1.82,1,1.82,2.25S145.16,9.85,144,9.85Zm8-1.6a1.47,1.47,0,0,1-1.48,1.59,1.13,1.13,0,0,1-1.28-1.17V4.75h-.89V8.69a1.76,1.76,0,0,0,1.92,1.88,2,2,0,0,0,1.71-.91h0v.78h.9V4.75H152Zm5.59-3.63a2.12,2.12,0,0,0-1.8.88h0V4.75h-.9v5.69h.9V6.94a1.5,1.5,0,0,1,1.56-1.57,1.12,1.12,0,0,1,1.28,1.16v3.91h.9v-4A1.71,1.71,0,0,0,157.55,4.62Zm7.85.94h0a2.1,2.1,0,0,0-1.78-.94c-1.41,0-2.5,1.1-2.5,3s1,3,2.52,3a2.06,2.06,0,0,0,1.76-.86h0v.69h.89V2.58h-.89Zm-1.75,4.3c-1.09,0-1.64-.95-1.64-2.23s.55-2.25,1.62-2.25,1.82.93,1.82,2.25S164.91,9.86,163.65,9.86Zm7.13-6.18h.9V2.58h-.9Zm0,6.76h.9V4.75h-.9ZM176,7.09c-1-.2-1.52-.32-1.52-.94,0-.45.33-.81,1.14-.81s1.25.33,1.34,1.08h.91a1.93,1.93,0,0,0-2.23-1.79c-1.32,0-2,.62-2,1.57,0,1.24,1,1.47,2.12,1.7s1.48.39,1.48,1-.38.94-1.32.94-1.5-.28-1.62-1.27h-.92c.09,1.28,1,2,2.52,2,1.31,0,2.25-.59,2.25-1.73C178.06,7.57,177.1,7.32,176,7.09Zm9-2.47a2.11,2.11,0,0,0-1.82.94h0V4.75h-.89v7.52h.89V9.77h0a2,2,0,0,0,1.79.84c1.54,0,2.47-1.17,2.47-3S186.38,4.62,184.94,4.62Zm-.1,5.24c-1.31,0-1.8-1-1.8-2.23s.57-2.25,1.81-2.25c1.08,0,1.62,1,1.62,2.25S185.93,9.86,184.84,9.86Zm4.24.58H190V2.58h-.89Zm7.21-1.29V6.45c0-1.36-.89-1.81-2.1-1.81-1.5,0-2.23.83-2.26,1.93h.85c0-.86.5-1.25,1.42-1.25s1.28.36,1.28,1-.56.69-1.36.81c-1.42.22-2.48.5-2.48,1.84,0,1.08.85,1.58,1.93,1.58a2.29,2.29,0,0,0,1.89-.9h0a.88.88,0,0,0,1,.85,1.27,1.27,0,0,0,.48-.09V9.76h0C196.4,9.87,196.29,9.62,196.29,9.15Zm-.8-.81a1.61,1.61,0,0,1-1.73,1.53c-.58,0-1.17-.17-1.17-.92s.71-1,1.6-1.16a4.05,4.05,0,0,0,1.3-.42Zm5.27,0c-.18.47-.37,1.11-.37,1.11h0s-.21-.64-.38-1.11l-1.34-3.55h-1l2.22,5.53-.22.56c-.22.55-.47.69-.85.69a1.2,1.2,0,0,1-.6-.12h-.05v.79a2,2,0,0,0,.81.12c.69,0,1.13-.24,1.59-1.42L203,4.75h-.94Zm5.91-3.69a2.78,2.78,0,0,0-2.7,3,2.75,2.75,0,0,0,2.75,3,2.31,2.31,0,0,0,2.44-1.92h-.87a1.47,1.47,0,0,1-1.57,1.17c-1.14,0-1.77-.88-1.84-2h4.4C209.28,5.93,208.37,4.61,206.67,4.61Zm0,.71c1,0,1.6.69,1.66,1.82h-3.42C205,6.11,205.61,5.32,206.67,5.32Zm8.24.24h0a2.1,2.1,0,0,0-1.78-.94c-1.41,0-2.5,1.1-2.5,3s1,3,2.52,3a2.06,2.06,0,0,0,1.76-.86h0v.69h.89V2.58h-.89Zm-1.75,4.3c-1.09,0-1.64-.95-1.64-2.23s.55-2.25,1.63-2.25S215,6.31,215,7.63,214.42,9.86,213.16,9.86Zm9.57-5.25a2.77,2.77,0,0,0-2.75,3,2.76,2.76,0,1,0,5.49,0A2.76,2.76,0,0,0,222.73,4.61Zm0,5.24c-1.21,0-1.84-1-1.84-2.25s.63-2.25,1.84-2.25,1.82,1,1.82,2.25S223.94,9.85,222.73,9.85Zm7.11-5.23a2.13,2.13,0,0,0-1.8.88h0V4.75h-.89v5.69H228V6.94a1.5,1.5,0,0,1,1.56-1.57c.8,0,1.29.42,1.29,1.16v3.91h.89v-4A1.71,1.71,0,0,0,229.84,4.62ZM237.58,3h-.9V4.75h-.82v.73h.82V9.37c0,.81.53,1.1,1.26,1.1a3.71,3.71,0,0,0,.71-.07V9.63h0a1.87,1.87,0,0,1-.47.07c-.37,0-.57-.13-.57-.52V5.48h1.1V4.75h-1.1Zm5.51,1.66a2.14,2.14,0,0,0-1.81.88h0V2.58h-.89v7.86h.89V6.94a1.5,1.5,0,0,1,1.56-1.57c.81,0,1.29.42,1.29,1.16v3.91H245v-4A1.71,1.71,0,0,0,243.09,4.62ZM247,3.68h.89V2.58H247Zm0,6.76h.89V4.75H247Zm5.17-3.35c-1-.2-1.53-.32-1.53-.94,0-.45.33-.81,1.14-.81s1.26.33,1.34,1.08H254c-.13-1.12-.83-1.79-2.24-1.79s-2,.62-2,1.57c0,1.24,1,1.47,2.12,1.7s1.49.39,1.49,1-.39.94-1.32.94-1.51-.28-1.63-1.27h-.91c.08,1.28.95,2,2.51,2,1.31,0,2.25-.59,2.25-1.73C254.22,7.57,253.26,7.32,252.12,7.09Zm8.54,0c-1-.2-1.52-.32-1.52-.94,0-.45.33-.81,1.14-.81s1.25.33,1.34,1.08h.92a2,2,0,0,0-2.24-1.79c-1.32,0-2,.62-2,1.57,0,1.24,1,1.47,2.12,1.7s1.48.39,1.48,1-.38.94-1.32.94-1.5-.28-1.62-1.27H258c.09,1.28,1,2,2.52,2,1.31,0,2.25-.59,2.25-1.73C262.77,7.57,261.81,7.32,260.66,7.09Zm3.73-3.41h.89V2.58h-.89Zm0,6.76h.89V4.75h-.89ZM268.62,3h-.89V4.75h-.83v.73h.83V9.37c0,.81.52,1.1,1.25,1.1a3.91,3.91,0,0,0,.72-.07V9.63h0a1.8,1.8,0,0,1-.47.07c-.36,0-.57-.13-.57-.52V5.48h1.1V4.75h-1.1Zm5.11,1.65a2.77,2.77,0,0,0-2.69,3,2.75,2.75,0,0,0,2.75,3,2.32,2.32,0,0,0,2.44-1.92h-.87a1.48,1.48,0,0,1-1.57,1.17c-1.15,0-1.77-.88-1.84-2h4.4C276.35,5.93,275.44,4.61,273.73,4.61Zm0,.71c1,0,1.61.69,1.66,1.82H272C272.1,6.11,272.68,5.32,273.73,5.32Zm4,4v1.09h1.07V9.35Z" fill="#707070" id="fadeb9da-e678-4171-95f6-6443db91c589" data-name="レイヤー 65"/></svg>