<svg id="bf73ac07-d47a-49b3-98fe-584eef3ac766" data-name="レイヤー 1" xmlns="http://www.w3.org/2000/svg" width="88" height="24"><path d="M13.74,7.33c-1.18-.23-2.06-.5-2.06-1.39s.71-1.26,1.77-1.26a1.81,1.81,0,0,1,2,1.68h.93c-.19-1.45-1-2.45-3-2.45-1.59,0-2.67.78-2.67,2.08,0,1.48,1.19,1.88,2.57,2.19s2.36.56,2.36,1.64-.78,1.47-1.87,1.47a2.11,2.11,0,0,1-2.43-2h-1c.09,1.58,1.14,2.81,3.35,2.81,1.7,0,2.9-.82,2.9-2.3C16.67,8,15.27,7.64,13.74,7.33Zm5.55,4.6h.89V6.24h-.89Zm0-6.77h.89V4.06h-.89Zm6.35,1a2.12,2.12,0,0,0-1.8.88h0V6.24h-.9v5.69h.9V8.43a1.5,1.5,0,0,1,1.56-1.57c.8,0,1.29.41,1.29,1.15v3.92h.89v-4A1.71,1.71,0,0,0,25.64,6.11Zm7.09.72a1.43,1.43,0,0,1,1.53,1.25h.9a2.28,2.28,0,0,0-2.43-2,2.77,2.77,0,0,0-2.75,3,2.77,2.77,0,0,0,2.75,3,2.22,2.22,0,0,0,2.43-2.15h-.88a1.41,1.41,0,0,1-1.55,1.4c-1.21,0-1.83-1-1.83-2.24S31.52,6.83,32.73,6.83ZM40,6.1a2.78,2.78,0,0,0-2.7,3,2.74,2.74,0,0,0,2.75,3,2.3,2.3,0,0,0,2.44-1.91h-.87A1.46,1.46,0,0,1,40,11.33c-1.14,0-1.77-.88-1.84-2h4.4C42.57,7.42,41.66,6.1,40,6.1Zm0,.7c1,0,1.6.69,1.66,1.83H38.2C38.33,7.59,38.9,6.8,40,6.8ZM51.19,9.14c1.21-.67,2.2-1.15,2.2-2.6a2.3,2.3,0,0,0-2.52-2.31,2.77,2.77,0,0,0-2,.7A2.69,2.69,0,0,0,48.19,7h1a2,2,0,0,1,.43-1.51A1.56,1.56,0,0,1,50.79,5a1.5,1.5,0,0,1,1.64,1.55c0,.91-.61,1.3-1.6,1.87-1.32.76-2.74,1.49-2.82,3.51h5.22v-.88H49.12C49.33,10.21,50.37,9.6,51.19,9.14Zm7.54-4.92c-1.78,0-2.94,1.49-2.94,3.93s1.07,3.94,2.93,3.94,2.92-1.54,2.92-3.94S60.51,4.22,58.73,4.22Zm0,7.07c-1.33,0-2-1.22-2-3.14S57.4,5,58.73,5s2,1.23,2,3.14S60.07,11.29,58.73,11.29Zm8.4-2.15c1.21-.67,2.2-1.15,2.2-2.6a2.3,2.3,0,0,0-2.52-2.31,2.77,2.77,0,0,0-2,.7A2.69,2.69,0,0,0,64.13,7h1a2,2,0,0,1,.43-1.51A1.54,1.54,0,0,1,66.73,5a1.5,1.5,0,0,1,1.64,1.55c0,.91-.61,1.3-1.6,1.87C65.45,9.18,64,9.91,64,11.93h5.22v-.88H65.06C65.27,10.21,66.31,9.6,67.13,9.14Zm7.54-4.92c-1.79,0-2.94,1.49-2.94,3.93s1.07,3.94,2.93,3.94,2.92-1.54,2.92-3.94S76.45,4.22,74.67,4.22Zm0,7.07c-1.33,0-2-1.22-2-3.14S73.34,5,74.67,5s2,1.23,2,3.14S76,11.29,74.67,11.29Z" fill="#707070"/></svg>