<svg id="a4451505-89cd-4dce-ad80-5bb8c22fb389" data-name="レイヤー 1" xmlns="http://www.w3.org/2000/svg" width="79" height="24"><path d="M15.16-7.66c-1.73,0-2.57-.57-2.74-2H10c.09,2.57,2,4,5.25,4C18-5.67,20-7,20-9.51c0-2.62-2-3.21-4.54-3.76-1.8-.39-2.65-.68-2.65-1.66s.87-1.43,2.19-1.43a2.1,2.1,0,0,1,2.35,1.84H19.7c-.19-2.45-2-3.79-4.69-3.79s-4.66,1.24-4.66,3.63,2,3.11,4.17,3.61c1.85.42,3,.66,3,1.85S16.42-7.66,15.16-7.66ZM22.74-8c0,1.64,1.24,2.09,2.37,2.09.91,0,1.44,0,1.44,0v-1.7l-.68,0A.77.77,0,0,1,25-8.51v-4.62h1.5v-1.53H25v-2.72H22.74v2.72h-1.2v1.53h1.2Zm9-3.2c-1.94.27-3.5.88-3.5,2.81,0,1.73,1.26,2.66,3,2.66a2.68,2.68,0,0,0,2.57-1.17h0a2.29,2.29,0,0,0,.28,1h2.22V-6c-.2-.16-.3-.55-.3-1.21v-4.44c0-2-1.06-3.21-3.68-3.21S28.68-13.54,28.61-12h2.06c.06-.83.59-1.22,1.68-1.22s1.46.41,1.46,1S33.15-11.41,31.7-11.21Zm2.16.88V-9A1.82,1.82,0,0,1,31.8-7.35c-.81,0-1.36-.29-1.36-1.11s.6-1.08,1.81-1.36A6.22,6.22,0,0,0,33.86-10.33Zm5,2.32c0,1.64,1.24,2.09,2.36,2.09.92,0,1.44,0,1.44,0v-1.7l-.68,0a.76.76,0,0,1-.86-.87v-4.62h1.49v-1.53H41.14v-2.72H38.88v2.72H37.67v1.53h1.21Zm9.8,2.32a3.74,3.74,0,0,0,4-2.85H50.35a1.62,1.62,0,0,1-1.68,1.07,2.17,2.17,0,0,1-2.23-2.18h6.32c0-3.11-1.49-5.25-4.3-5.25a4.32,4.32,0,0,0-4.3,4.59A4.31,4.31,0,0,0,48.68-5.69Zm-.18-7.42a1.84,1.84,0,0,1,1.85,1.87H46.47A2,2,0,0,1,48.5-13.11ZM62.22-5.94V-11c0-1.15.59-1.9,1.56-1.9s1.34.51,1.34,1.5v5.47h2.31V-11.8c0-1.91-1-3.1-2.87-3.1a3.06,3.06,0,0,0-2.62,1.53h0A2.59,2.59,0,0,0,59.5-14.9,2.86,2.86,0,0,0,57-13.49h-.05v-1.17H54.69v8.72H57V-11c0-1.15.63-1.9,1.56-1.9s1.34.51,1.34,1.5v5.47Zm11.37-9a4.32,4.32,0,0,0-4.3,4.59,4.31,4.31,0,0,0,4.52,4.62,3.73,3.73,0,0,0,3.94-2.85H75.48a1.64,1.64,0,0,1-1.69,1.07,2.16,2.16,0,0,1-2.22-2.18h6.32C77.89-12.76,76.39-14.9,73.59-14.9Zm-2,3.66a1.94,1.94,0,0,1,2-1.87,1.84,1.84,0,0,1,1.86,1.87ZM84.71-14.9a2.84,2.84,0,0,0-2.59,1.43h-.05v-1.19H79.81v8.72h2.31v-4.95a1.82,1.82,0,0,1,1.77-2,1.45,1.45,0,0,1,1.51,1.6v5.35h2.32v-5.69A3,3,0,0,0,84.71-14.9Zm8.94,7.26a.77.77,0,0,1-.87-.87v-4.62h1.5v-1.53h-1.5v-2.72H90.52v2.72H89.31v1.53h1.21V-8c0,1.64,1.24,2.09,2.36,2.09.92,0,1.45,0,1.45,0v-1.7ZM11.57,5.91V18.06h8.18V16H14V5.91Zm18,9.55H27.33a1.62,1.62,0,0,1-1.68,1.07,2.17,2.17,0,0,1-2.23-2.18h6.33c0-3.11-1.5-5.25-4.3-5.25a4.32,4.32,0,0,0-4.3,4.59,4.31,4.31,0,0,0,4.52,4.62A3.73,3.73,0,0,0,29.61,15.46Zm-4.13-4.57a1.84,1.84,0,0,1,1.85,1.87H23.46A1.94,1.94,0,0,1,25.48,10.89Zm13.17,9.16a3.38,3.38,0,0,0,1-2.65V9.34H37.46v.92h0A2.82,2.82,0,0,0,35,9.1c-2.21,0-3.78,1.67-3.78,4.27a3.92,3.92,0,0,0,3.84,4.16,2.81,2.81,0,0,0,2.28-1h0v.95c0,1.19-.63,1.82-1.93,1.82-1.08,0-1.57-.42-1.76-1H31.43C31.67,20,33.13,21,35.51,21A4.55,4.55,0,0,0,38.65,20.05Zm-3.17-4.37c-1.19,0-2-.87-2-2.35s.79-2.38,2-2.38a2.1,2.1,0,0,1,2.07,2.37C37.53,14.61,36.94,15.68,35.48,15.68Zm11.74,1.41h0a2.3,2.3,0,0,0,.27,1h2.23V18c-.21-.16-.31-.55-.31-1.21V12.33c0-2-1.05-3.21-3.67-3.21S42.09,10.46,42,12h2.06c.07-.83.59-1.22,1.68-1.22s1.46.41,1.46,1-.66.79-2.11,1c-1.93.27-3.5.88-3.5,2.81,0,1.73,1.26,2.66,3,2.66A2.67,2.67,0,0,0,47.22,17.09Zm-3.36-1.55c0-.81.59-1.08,1.8-1.36a6,6,0,0,0,1.61-.51V15a1.82,1.82,0,0,1-2.05,1.67C44.4,16.65,43.86,16.36,43.86,15.54Zm11.9.92c-1.41,0-2.08-1.1-2.08-2.75S54.4,11,55.79,11a1.6,1.6,0,0,1,1.6,1.35h2.26a3.71,3.71,0,0,0-4-3.2,4.3,4.3,0,0,0-4.35,4.61,4.33,4.33,0,0,0,4.47,4.6A3.64,3.64,0,0,0,59.73,15H57.51A1.63,1.63,0,0,1,55.76,16.46Zm9.86-3.19a18.36,18.36,0,0,0-.51,1.9h0s-.29-1.1-.56-1.9L63.22,9.34H60.79l2.34,6.2a7.46,7.46,0,0,1,.67,2.37c0,.71-.38,1.19-1.29,1.19h-.82v1.82h1.36c1.77,0,2.41-.7,3.08-2.64l3-8.94H66.84ZM13.9,29.91,9.67,42.06h2.5l.8-2.58h4.38l.82,2.58h2.57L16.45,29.91Zm-.35,7.68,1.08-3.5c.21-.65.51-1.87.51-1.87h0s.29,1.22.49,1.87l1.09,3.5ZM27.21,33.1a2.74,2.74,0,0,0-2.43,1.29h-.05V29.91H22.42V42.06h2.23V41h0a2.89,2.89,0,0,0,2.6,1.34c2.19,0,3.69-1.78,3.69-4.6S29.41,33.1,27.21,33.1Zm-.44,7.28c-1.29,0-2.09-1-2.09-2.62s.55-2.79,2-2.79c1.29,0,1.93,1.12,1.93,2.74S28,40.38,26.77,40.38ZM37,33.1a4.61,4.61,0,1,0,4.56,4.61A4.43,4.43,0,0,0,37,33.1Zm0,7.45c-1.42,0-2.21-1.14-2.21-2.84s.79-2.86,2.21-2.86,2.21,1.16,2.21,2.86S38.43,40.55,37,40.55Zm11.9-2.18a1.76,1.76,0,0,1-1.75,2c-1,0-1.44-.56-1.44-1.58V33.34h-2.3v5.81a2.85,2.85,0,0,0,3,3.15A2.81,2.81,0,0,0,49,41h0v1h2.22V33.34H48.92Zm7.62,1.12V34.87H58V33.34H56.54V30.62H54.28v2.72H53.07v1.53h1.21V40c0,1.64,1.24,2.09,2.36,2.09.92,0,1.45,0,1.45,0v-1.7l-.68,0A.77.77,0,0,1,56.54,39.49Z" fill="#707070"/></svg>