<svg id="b9e1bf96-4f00-40fe-85cd-3222d3d87e01" data-name="レイヤー 1" xmlns="http://www.w3.org/2000/svg" width="150" height="136"><path d="M70,42h4V38H70ZM58,26h4V22H58Zm32-8v4h4V18ZM18,26h4V22H18ZM38,38h4V34H38Z" fill-rule="evenodd" fill="#d82d17"/><path d="M94,30v4h4V30ZM38,22h4V18H38ZM18,42h4V38H18Z" fill="#47a639" fill-rule="evenodd"/><path d="M18,18h4v4H18Z" fill="#4398cd" fill-rule="evenodd"/><path d="M86,42h4v4H86Z" fill="#edcb1f" fill-rule="evenodd"/><path d="M15.72,81.18h2.87v-6L24.27,66H21.1l-1.66,2.73c-.74,1.26-1.51,2.56-2.23,3.86-.73-1.28-1.51-2.56-2.28-3.84L13.25,66H10l5.72,9.19Zm6.7-7.5h2.63c.11-1.35.75-1.75,2.28-1.75s2,.51,2,1.36-.54,1.13-1.56,1.26l-1.65.15c-3.11.3-4.21,1.6-4.21,3.44,0,2.13,1.61,3.3,3.95,3.3a4.07,4.07,0,0,0,3.53-1.6,3.5,3.5,0,0,0,.3,1.34h2.68a4.13,4.13,0,0,1-.45-2.09V73.23c0-2-1.3-3.3-4.57-3.3C23.93,69.93,22.56,71.35,22.42,73.68Zm6.91,3.15a2.58,2.58,0,0,1-2.83,2.69c-1.23,0-1.85-.57-1.85-1.49s.49-1.41,2-1.58l1.44-.17a2.09,2.09,0,0,0,1.26-.45Zm8.16-1.7c0-2.07,1.13-2.88,2.25-2.88,1.28,0,1.92.68,1.92,2.09v6.84h2.66V75.13c0-2.07,1.1-2.88,2.27-2.88s1.89.68,1.89,2.09v6.84h2.68V73.91c0-2.43-1.38-4-3.82-4a4,4,0,0,0-3.41,2,3.46,3.46,0,0,0-3.4-2,3.53,3.53,0,0,0-3.12,1.83V70.18h-2.6v11h2.68Zm25.68-1.9c0-2-1.29-3.3-4.57-3.3s-4.78,1.42-4.93,3.75h2.64c.1-1.35.74-1.75,2.27-1.75s2,.51,2,1.36-.53,1.13-1.55,1.26l-1.66.15c-3.11.3-4.21,1.6-4.21,3.44,0,2.13,1.62,3.3,4,3.3a4.07,4.07,0,0,0,3.53-1.6,3.69,3.69,0,0,0,.3,1.34h2.68a4.13,4.13,0,0,1-.45-2.09Zm-2.59,3.6a2.58,2.58,0,0,1-2.83,2.69c-1.23,0-1.85-.57-1.85-1.49s.49-1.41,2-1.58l1.45-.17a2.08,2.08,0,0,0,1.25-.45Zm8.89,4.61a4,4,0,0,0,3.44-1.85v1.59h2.6v-11H72.83v6.16a2.48,2.48,0,0,1-2.45,2.78A1.83,1.83,0,0,1,68.32,77V70.18H65.64v7.29C65.64,80.1,67.19,81.44,69.47,81.44Zm18.71-4.35H85.5A2.33,2.33,0,0,1,83,79.2c-1.55,0-2.68-1.11-2.68-3.52s1.09-3.52,2.68-3.52a2.3,2.3,0,0,1,2.43,2h2.67c-.31-2.58-2.23-4.22-5.1-4.22-3.27,0-5.42,2.23-5.42,5.75s2.17,5.76,5.42,5.76A4.81,4.81,0,0,0,88.18,77.09ZM92.75,75a2.47,2.47,0,0,1,2.44-2.77,1.84,1.84,0,0,1,2.07,2.09v6.84h2.67V73.89c0-2.62-1.55-4-3.84-4a4,4,0,0,0-3.34,1.72V66H90.07V81.18h2.68Zm12.88-4.84H103v11h2.68Zm0-3.94H103v2.51h2.64ZM22,103.49h3.19V88.31H22.4v4c0,2.24,0,4.67.08,7.36-.76-1.43-1.83-3.18-2.68-4.56l-4.23-6.76H12.38v15.18h2.77v-4c0-2.23,0-4.67-.09-7.35.77,1.47,1.74,3,2.7,4.56ZM27,98c0,3.5,2.25,5.76,5.59,5.76s5.57-2.26,5.57-5.76-2.23-5.76-5.57-5.76S27,94.49,27,98Zm5.59-3.54c1.72,0,2.85,1.22,2.85,3.54s-1.13,3.54-2.85,3.54-2.85-1.22-2.85-3.54S30.86,94.45,32.6,94.45Zm7,9H42.7v-3H39.57Zm9.34,0V88.31H46.63c-.47,2.17-1.78,2.77-3.74,2.9l-.34,0v2H46v10.23ZM57.52,88c-4,0-6.06,2.9-6.06,7.93s2,7.93,6.06,7.93,6.08-2.9,6.08-7.93S61.56,88,57.52,88Zm0,13.43c-2,0-3.06-1.64-3.06-5.5s1.1-5.5,3.06-5.5S60.6,92,60.6,95.9,59.52,101.4,57.52,101.4ZM12,125.8h2.87v-6.55H22v-2.47H14.83v-3.59h7.82v-2.58H12Zm21.09-8c0-2-1.3-3.3-4.57-3.3-3.43,0-4.79,1.43-4.94,3.75h2.64c.11-1.34.74-1.75,2.27-1.75s2,.51,2,1.37-.53,1.13-1.55,1.26l-1.66.14c-3.1.3-4.21,1.6-4.21,3.44,0,2.13,1.62,3.3,4,3.3a4.07,4.07,0,0,0,3.53-1.6,3.55,3.55,0,0,0,.3,1.35h2.67a4.27,4.27,0,0,1-.44-2.09Zm-2.6,3.61a2.57,2.57,0,0,1-2.82,2.68c-1.24,0-1.85-.57-1.85-1.49s.48-1.41,2-1.58l1.45-.17a2.12,2.12,0,0,0,1.25-.44ZM48,114.54a4,4,0,0,0-3.41,2,3.46,3.46,0,0,0-3.4-2,3.57,3.57,0,0,0-3.12,1.83v-1.58h-2.6v11h2.68v-6.06c0-2.07,1.13-2.88,2.26-2.88s1.91.68,1.91,2.09v6.85H45v-6.06c0-2.07,1.1-2.88,2.27-2.88s1.89.68,1.89,2.09v6.85h2.68v-7.27C51.86,116.09,50.48,114.54,48,114.54Zm6.84,11.26h2.68v-11H54.88Zm0-15v2.52h2.64v-2.52Zm5.68,15h2.68V110.61H60.58Zm11.54-8.23c-.59,1.94-1.19,3.94-1.76,6.12-.55-2.16-1.15-4.23-1.74-6.15l-.9-2.75H64.83l3.19,9a7.18,7.18,0,0,1,.51,2.21,1.64,1.64,0,0,1-1.81,1.77h-1v2.11a7.55,7.55,0,0,0,1.17.07c2.66,0,3.85-.85,4.72-3.31l4.23-11.9H73Zm16.08-7.3c-4.55,0-7.57,3.16-7.57,7.94s3,7.93,7.57,7.93,7.55-3.16,7.55-7.93S92.73,110.27,88.2,110.27Zm0,13.33c-2.77,0-4.57-2-4.57-5.39s1.8-5.4,4.57-5.4,4.57,2,4.57,5.4S91,123.6,88.2,123.6ZM98.34,114v.83h-1.7v2h1.7v9H101v-9h2.25v-2H101V114c0-.85.42-1.32,1.38-1.32h.93v-2.07c-.38,0-1-.06-1.38-.06C99.29,110.55,98.34,112,98.34,114Zm14,11.84h2.68v-11h-2.68Zm2.66-15H112.4v2.52H115ZM106,114v.83h-1.7v2H106v9h2.66v-9h2.25v-2h-2.25V114c0-.85.43-1.32,1.38-1.32H111v-2.07c-.38,0-1-.06-1.38-.06C106.94,110.55,106,112,106,114Zm16.2,9.85c-1.55,0-2.68-1.1-2.68-3.51s1.09-3.52,2.68-3.52a2.3,2.3,0,0,1,2.43,2h2.68c-.32-2.58-2.24-4.22-5.11-4.22-3.27,0-5.42,2.24-5.42,5.76s2.17,5.75,5.42,5.75a4.81,4.81,0,0,0,5.15-4.35h-2.68A2.33,2.33,0,0,1,122.18,123.81ZM140,120.49c0-3.5-2.06-5.95-5.42-5.95s-5.42,2.3-5.42,5.76,2.23,5.75,5.46,5.75a4.9,4.9,0,0,0,5.1-3.66h-2.57a2.49,2.49,0,0,1-2.51,1.57c-1.55,0-2.66-.87-2.85-2.83H140Zm-8.19-1.24a2.66,2.66,0,0,1,2.75-2.62,2.71,2.71,0,0,1,2.76,2.62Z" fill="#707070"/><path d="M10,10V54h96V10Zm92,40H14V14h88ZM22,26H18V38h4Zm0,16H18v4h4Zm4-20H22v4h4Zm4,8V26H26v4Zm4,4V30H30v4Zm4,4V34H34v4Zm4,8V38H38v8Zm0-24H38V34h4Zm8,0H46V34h4Zm8,16V34H50v4Zm4-12H58v8h4Zm-4-8H50v4h8ZM50,46h8V42H50Zm20,0h8V42H66v4h4Zm20,0h4V42H90Zm8-12H94v8h4Zm0-12H94v8h4Zm-8-4H86v4h4Zm-4,4H82V42h4ZM70,38h4V18H70v4H66v4h4Z" fill="#707070" fill-rule="evenodd"/></svg>