<svg id="b4672561-875a-43ea-8ac1-ca5b7dee4527" data-name="レイヤー 1" xmlns="http://www.w3.org/2000/svg" width="110" height="24"><defs><style>.b43b9f26-5b7b-441e-be33-092d08ccdc42{fill:#707070}</style></defs><path class="b43b9f26-5b7b-441e-be33-092d08ccdc42" d="M10.28,18h2.55v-4.4h3c2.55,0,4.06-1.54,4.06-3.84A3.9,3.9,0,0,0,18.8,6.94,4.26,4.26,0,0,0,15.62,5.8H10.28ZM12.83,8h2.59a1.7,1.7,0,0,1,1.94,1.78,1.74,1.74,0,0,1-2,1.82H12.83Z"/><path class="b43b9f26-5b7b-441e-be33-092d08ccdc42" d="M24.09,5.8H21.78V18h2.31V13a1.83,1.83,0,0,1,1.77-2,1.46,1.46,0,0,1,1.51,1.6V18h2.31V12.26a3,3,0,0,0-3-3.26,2.79,2.79,0,0,0-2.53,1.37h-.05Z"/><path class="b43b9f26-5b7b-441e-be33-092d08ccdc42" d="M32,18h2.31V9.24H32ZM32,7.88h2.31V5.8H32Z"/><path class="b43b9f26-5b7b-441e-be33-092d08ccdc42" d="M36.65,18H39V5.8H36.65Z"/><path class="b43b9f26-5b7b-441e-be33-092d08ccdc42" d="M45.47,18.21A4.44,4.44,0,0,0,50,13.6a4.56,4.56,0,1,0-9.11,0A4.43,4.43,0,0,0,45.47,18.21Zm0-1.77c-1.42,0-2.21-1.14-2.21-2.84s.79-2.85,2.21-2.85,2.21,1.15,2.21,2.85S46.88,16.44,45.47,16.44Z"/><path class="b43b9f26-5b7b-441e-be33-092d08ccdc42" d="M55.49,18.21c2.17,0,3.67-1.06,3.67-2.81,0-2-1.62-2.44-3.08-2.75-1.24-.25-2.4-.32-2.4-1.07s.6-1,1.5-1,1.58.34,1.68,1.28H59C58.78,10.14,57.51,9,55.21,9c-2,0-3.55.9-3.55,2.79s1.53,2.32,3.1,2.63c1.19.24,2.29.32,2.29,1.15,0,.62-.58,1-1.6,1a1.67,1.67,0,0,1-1.9-1.45H51.41C51.54,17,53,18.21,55.49,18.21Z"/><path class="b43b9f26-5b7b-441e-be33-092d08ccdc42" d="M65.26,18.21a4.44,4.44,0,0,0,4.56-4.61,4.56,4.56,0,1,0-9.11,0A4.43,4.43,0,0,0,65.26,18.21Zm0-1.77c-1.43,0-2.21-1.14-2.21-2.84s.78-2.85,2.21-2.85,2.21,1.15,2.21,2.85S66.67,16.44,65.26,16.44Z"/><path class="b43b9f26-5b7b-441e-be33-092d08ccdc42" d="M71.74,20.81h2.31V17h0a2.82,2.82,0,0,0,2.52,1.24c2.24,0,3.77-1.79,3.77-4.61S78.89,9,76.58,9A3,3,0,0,0,74,10.32H74V9.24H71.74Zm4.37-4.52c-1.38,0-2.11-1-2.11-2.62s.58-2.8,2-2.8,2,1.15,2,2.8S77.28,16.29,76.11,16.29Z"/><path class="b43b9f26-5b7b-441e-be33-092d08ccdc42" d="M84.61,5.8H82.29V18h2.32V13a1.82,1.82,0,0,1,1.76-2,1.46,1.46,0,0,1,1.52,1.6V18H90.2V12.26a3,3,0,0,0-3-3.26,2.79,2.79,0,0,0-2.53,1.37h0Z"/><path class="b43b9f26-5b7b-441e-be33-092d08ccdc42" d="M92.49,20.81h1.36c1.77,0,2.42-.7,3.08-2.64l3-8.93H97.65l-1.23,3.92c-.27.8-.51,1.9-.51,1.9h0s-.29-1.1-.56-1.9L94,9.24H91.59l2.35,6.2a7.53,7.53,0,0,1,.66,2.36c0,.71-.37,1.19-1.29,1.19h-.82Z"/></svg>