<svg xmlns="http://www.w3.org/2000/svg" viewBox="0 0 200 60" width="200" height="60">
  <!-- x -->
  <rect x="10" y="10" width="10" height="10" fill="#888"/>
  <rect x="30" y="10" width="10" height="10" fill="#888"/>
  <rect x="20" y="20" width="10" height="10" fill="#888"/>
  <rect x="10" y="30" width="10" height="10" fill="#888"/>
  <rect x="30" y="30" width="10" height="10" fill="#888"/>
  <rect x="20" y="40" width="10" height="10" fill="#888"/>
  <rect x="10" y="50" width="10" height="10" fill="#888"/>
  <rect x="30" y="50" width="10" height="10" fill="#888"/>

  <!-- 7 -->
  <rect x="50" y="10" width="10" height="10" fill="#888"/>
  <rect x="60" y="10" width="10" height="10" fill="#888"/>
  <rect x="70" y="10" width="10" height="10" fill="#888"/>
  <rect x="70" y="20" width="10" height="10" fill="#888"/>
  <rect x="60" y="30" width="10" height="10" fill="#888"/>
  <rect x="60" y="40" width="10" height="10" fill="#888"/>
  <rect x="60" y="50" width="10" height="10" fill="#888"/>

  <!-- x -->
  <rect x="100" y="10" width="10" height="10" fill="#888"/>
  <rect x="120" y="10" width="10" height="10" fill="#888"/>
  <rect x="110" y="20" width="10" height="10" fill="#888"/>
  <rect x="100" y="30" width="10" height="10" fill="#888"/>
  <rect x="120" y="30" width="10" height="10" fill="#888"/>
  <rect x="110" y="40" width="10" height="10" fill="#888"/>
  <rect x="100" y="50" width="10" height="10" fill="#888"/>
  <rect x="120" y="50" width="10" height="10" fill="#888"/>

  <!-- d -->
  <rect x="160" y="10" width="10" height="10" fill="#888"/>
  <rect x="140" y="20" width="10" height="10" fill="#888"/>
  <rect x="160" y="20" width="10" height="10" fill="#888"/>
  <rect x="140" y="30" width="10" height="10" fill="#888"/>
  <rect x="160" y="30" width="10" height="10" fill="#888"/>
  <rect x="140" y="40" width="10" height="10" fill="#888"/>
  <rect x="160" y="40" width="10" height="10" fill="#888"/>
  <rect x="150" y="50" width="10" height="10" fill="#888"/>
</svg>
