<svg id="a5650765-f40b-4ba1-8383-4710809b9666" data-name="レイヤー 1" xmlns="http://www.w3.org/2000/svg" width="160" height="64"><defs><style>.bb358c6c-1633-4415-a84e-c0cb71268de0{fill:#fff}</style></defs><path class="bb358c6c-1633-4415-a84e-c0cb71268de0" d="M37.05,25.81c-1.55,0-2.18-1.45-2.18-3.64s.63-3.65,2.18-3.65,2.17,1.48,2.17,3.65S38.58,25.81,37.05,25.81ZM37,28c3.06,0,5-2.28,5-5.85s-2-5.82-5-5.82-5,2.26-5,5.82S34,28,37,28Z"/><path class="bb358c6c-1633-4415-a84e-c0cb71268de0" d="M43.58,27.75h8.74v-2.2h-5v0a30.17,30.17,0,0,1,3.08-2.4,3.84,3.84,0,0,0,1.89-3.21c0-2-1.4-3.56-4.17-3.56a4.25,4.25,0,0,0-3.7,1.58,4.46,4.46,0,0,0-.73,2.78h2.61A2.38,2.38,0,0,1,46.86,19a1.6,1.6,0,0,1,1.23-.46A1.32,1.32,0,0,1,49.55,20a1.68,1.68,0,0,1-.64,1.26c-.89.85-2.23,1.66-3.31,2.58A4.79,4.79,0,0,0,43.58,27.75Z"/><path class="bb358c6c-1633-4415-a84e-c0cb71268de0" d="M60.19,31.66h10.9V28.43h-7V16.3H60.19Z"/><path class="bb358c6c-1633-4415-a84e-c0cb71268de0" d="M74.38,31.66h12V28.43H78.25V25.15h6.86v-3H78.25V19.44h8V16.3H74.38Z"/><path class="bb358c6c-1633-4415-a84e-c0cb71268de0" d="M96,32a4.93,4.93,0,0,0,4.45-2.19h0l.22,1.85h2.72V23.41H96.91V26.2h2.93v0a3.18,3.18,0,0,1-3.39,2.69c-2.45,0-3.94-2.08-3.94-4.9s1.29-4.89,3.87-4.89a2.88,2.88,0,0,1,3.05,2.19h3.76c-.5-3.23-2.91-5.33-6.94-5.33a7.36,7.36,0,0,0-5.36,2,8.27,8.27,0,0,0-2.32,6,8.37,8.37,0,0,0,2.1,5.82A7.06,7.06,0,0,0,96,32Z"/><path class="bb358c6c-1633-4415-a84e-c0cb71268de0" d="M105.51,31.66h3.9l.9-2.77h5.47l.92,2.77h4.08L115.13,16.3h-4Zm5.7-5.5,1.2-3.72c.26-.79.64-2.17.64-2.17h0s.35,1.38.61,2.17l1.19,3.72Z"/><path class="bb358c6c-1633-4415-a84e-c0cb71268de0" d="M129.45,32a6.88,6.88,0,0,0,5-1.74,6,6,0,0,0,1.88-3.93h-3.87a2.88,2.88,0,0,1-3.05,2.56c-2.32,0-3.76-2-3.76-4.86s1.2-4.87,3.74-4.87a2.82,2.82,0,0,1,3,2.42h3.88a6,6,0,0,0-2.35-4.23A7.42,7.42,0,0,0,129.42,16c-4.66,0-7.7,3.46-7.7,8S124.85,32,129.45,32Z"/><path class="bb358c6c-1633-4415-a84e-c0cb71268de0" d="M142.82,31.66h3.88V26L152,16.3h-4.1l-2,4c-.52,1.06-1.07,2.34-1.07,2.34h0s-.51-1.28-1-2.34l-2-4h-4.23l5.3,9.69Z"/></svg>