<svg id="b70ffe07-4d0c-4f0b-8765-e8872666fac0" data-name="レイヤー 1" xmlns="http://www.w3.org/2000/svg" width="304" height="48"><defs><style>.e29d599b-1a91-42cb-9cc9-ec33702a5e33{fill:#707070}</style></defs><path class="e29d599b-1a91-42cb-9cc9-ec33702a5e33" d="M51.79,13.13c-2.53,0-3.83-2.16-3.83-5s1.3-5,3.83-5,3.81,2.18,3.81,5S54.34,13.13,51.79,13.13Zm0,3.14c4.77,0,7.79-3.46,7.79-8.13S56.54,0,51.77,0,44,3.47,44,8.14,47,16.27,51.77,16.27Z"/><path class="e29d599b-1a91-42cb-9cc9-ec33702a5e33" d="M69.32,16.19c4.38,0,6.56-2.18,6.56-5.78V.31H72V10.47a2.42,2.42,0,0,1-2.67,2.62c-1.91,0-2.7-1-2.7-2.55V.31h-3.9v10.1C62.72,14.05,64.92,16.19,69.32,16.19Z"/><path class="e29d599b-1a91-42cb-9cc9-ec33702a5e33" d="M79.8,15.9h3.89V10.06h2.36a2.3,2.3,0,0,1,2.62,2.22c.24,1.55.17,3.38.59,3.62H93v-.19c-.55-.2-.33-2.16-.66-4.21A3.13,3.13,0,0,0,90.1,8.64V8.57A3.73,3.73,0,0,0,92.82,4.8c0-2.9-2.37-4.49-5.5-4.49H79.8Zm3.89-8.7V3.36h3C88.2,3.36,89,4.17,89,5.3s-.79,1.9-2.33,1.9Z"/><path class="e29d599b-1a91-42cb-9cc9-ec33702a5e33" d="M101.49,15.9h3.89V9.84h6.54V6.72h-6.54V3.56h7.82V.31H101.49Z"/><path class="e29d599b-1a91-42cb-9cc9-ec33702a5e33" d="M113.9,15.9h3.92l.9-2.81h5.5l.93,2.81h4.09L123.56.31h-4Zm5.72-5.58,1.22-3.78c.26-.8.63-2.2.63-2.2h0s.35,1.4.61,2.2l1.19,3.78Z"/><path class="e29d599b-1a91-42cb-9cc9-ec33702a5e33" d="M131.92,15.9h3.5V8.07c0-.63-.07-3.14-.07-3.14h.05s.55,2.36.72,2.92l2.25,8.05h3.21l2.27-8.07c.17-.57.72-2.9.72-2.9h.05s-.07,2.49-.07,3.12V15.9h3.56V.31h-5.28L140.9,7.13c-.27,1-.88,3.56-.88,3.56H140s-.61-2.57-.9-3.56L137.16.31h-5.24Z"/><path class="e29d599b-1a91-42cb-9cc9-ec33702a5e33" d="M152.14,15.9H156V.31h-3.9Z"/><path class="e29d599b-1a91-42cb-9cc9-ec33702a5e33" d="M160,15.9H171V12.63h-7.06V.31H160Z"/><path class="e29d599b-1a91-42cb-9cc9-ec33702a5e33" d="M175.91,15.9h3.9V10.14L185.13.31H181l-2,4c-.53,1.07-1.08,2.38-1.08,2.38h-.05s-.5-1.31-1-2.38l-2-4h-4.25l5.32,9.83Z"/><path class="e29d599b-1a91-42cb-9cc9-ec33702a5e33" d="M197.87,16.19A5.49,5.49,0,0,0,202,14.64a4.85,4.85,0,0,0,1.12-3.38V.31h-3.89V11.17c0,1.13-.49,1.83-1.63,1.83s-1.72-.54-1.72-1.87V9.84h-3.54v1.37C192.37,14.18,194.15,16.19,197.87,16.19Z"/><path class="e29d599b-1a91-42cb-9cc9-ec33702a5e33" d="M214.11,13.13c-2.53,0-3.83-2.16-3.83-5s1.3-5,3.83-5,3.8,2.18,3.8,5S216.66,13.13,214.11,13.13Zm0,3.14c4.78,0,7.79-3.46,7.79-8.13S218.86,0,214.08,0s-7.76,3.47-7.76,8.14S209.33,16.27,214.08,16.27Z"/><path class="e29d599b-1a91-42cb-9cc9-ec33702a5e33" d="M230.76,16.19c4.38,0,6.56-2.18,6.56-5.78V.31h-3.9V10.47a2.41,2.41,0,0,1-2.66,2.62c-1.92,0-2.71-1-2.71-2.55V.31h-3.89v10.1C224.16,14.05,226.36,16.19,230.76,16.19Z"/><path class="e29d599b-1a91-42cb-9cc9-ec33702a5e33" d="M241.23,15.9h3.9V10.06h2.35a2.3,2.3,0,0,1,2.62,2.22c.24,1.55.18,3.38.6,3.62h3.78v-.19c-.55-.2-.33-2.16-.66-4.21a3.13,3.13,0,0,0-2.29-2.86V8.57a3.73,3.73,0,0,0,2.73-3.77c0-2.9-2.38-4.49-5.5-4.49h-7.53Zm3.9-8.7V3.36h3c1.5,0,2.25.81,2.25,1.94s-.79,1.9-2.33,1.9Z"/><path class="e29d599b-1a91-42cb-9cc9-ec33702a5e33" d="M257.86,15.9h3.8V8.64c0-.55,0-2.55,0-2.55h0s.86,1.68,1.13,2.09l4.62,7.72h3.91V.31h-3.8V7.7c0,.55,0,2.42,0,2.42h0s-.84-1.55-1.08-2L261.77.31h-3.91Z"/><path class="e29d599b-1a91-42cb-9cc9-ec33702a5e33" d="M275.34,15.9H287.4V12.63h-8.17V9.29h6.89v-3h-6.89V3.49h8V.31H275.34Z"/><path class="e29d599b-1a91-42cb-9cc9-ec33702a5e33" d="M295.14,15.9H299V10.14L304.36.31h-4.12l-2,4c-.53,1.07-1.08,2.38-1.08,2.38h0s-.51-1.31-1-2.38l-2-4h-4.25l5.33,9.83Z"/><path class="e29d599b-1a91-42cb-9cc9-ec33702a5e33" d="M45,42.07h17.6V39H45Z"/><path class="e29d599b-1a91-42cb-9cc9-ec33702a5e33" d="M69.61,47.63h3.83l1.65-7.48c.27-1.25.53-2.9.53-2.9h0s.27,1.65.55,2.9l1.65,7.48h3.81L86,32H82.07l-1.57,6.5c-.35,1.55-.79,3.91-.79,3.91h0s-.4-2.16-.75-3.75L77.45,32H73.84l-1.48,6.7c-.35,1.57-.77,3.71-.77,3.71h0s-.38-2.36-.73-3.86L69.24,32H65.3Z"/><path class="e29d599b-1a91-42cb-9cc9-ec33702a5e33" d="M88.67,47.63h3.9v-6.5h5.52v6.5H102V32H98.09v5.91H92.57V32h-3.9Z"/><path class="e29d599b-1a91-42cb-9cc9-ec33702a5e33" d="M104.65,47.63h3.92l.9-2.82H115l.93,2.82H120L114.31,32h-4ZM110.37,42l1.21-3.77c.27-.81.64-2.2.64-2.2h0s.35,1.39.61,2.2L114.07,42Z"/><path class="e29d599b-1a91-42cb-9cc9-ec33702a5e33" d="M124.69,47.63h3.89V35.3h4.62V32H120.11V35.3h4.58Z"/><path class="e29d599b-1a91-42cb-9cc9-ec33702a5e33" d="M144.82,47.63h3.83l1.65-7.48c.26-1.25.52-2.9.52-2.9h.05s.26,1.65.55,2.9l1.65,7.48h3.8L161.19,32h-3.92l-1.56,6.5c-.35,1.55-.79,3.91-.79,3.91h0s-.39-2.16-.75-3.75L152.65,32H149l-1.47,6.7c-.36,1.57-.77,3.71-.77,3.71h-.05s-.37-2.36-.72-3.86L144.44,32H140.5Z"/><path class="e29d599b-1a91-42cb-9cc9-ec33702a5e33" d="M163.88,47.63h12.05V44.36h-8.16V41h6.89V38h-6.89V35.22h8V32H163.88Z"/><path class="e29d599b-1a91-42cb-9cc9-ec33702a5e33" d="M179.12,38.51a4,4,0,0,0,2.4-1.09,3.48,3.48,0,0,0,.95-2.53V32h-3.28v3.25h1.49a2.12,2.12,0,0,1-1.56,2Z"/><path class="e29d599b-1a91-42cb-9cc9-ec33702a5e33" d="M186.2,47.63h3.89V41.78h2.35A2.3,2.3,0,0,1,195.06,44c.24,1.55.18,3.38.6,3.62h3.78v-.2c-.55-.19-.33-2.16-.66-4.21a3.13,3.13,0,0,0-2.29-2.86V40.3a3.73,3.73,0,0,0,2.73-3.77c0-2.91-2.38-4.5-5.5-4.5H186.2Zm3.89-8.7V35.09h3c1.5,0,2.25.8,2.25,1.94s-.79,1.9-2.33,1.9Z"/><path class="e29d599b-1a91-42cb-9cc9-ec33702a5e33" d="M202.82,47.63h12.06V44.36h-8.17V41h6.89V38h-6.89V35.22h8V32H202.82Z"/><path class="e29d599b-1a91-42cb-9cc9-ec33702a5e33" d="M222.46,47.63h3.92l.9-2.82h5.5l.93,2.82h4.09L232.12,32h-4ZM228.18,42l1.21-3.77c.27-.81.64-2.2.64-2.2h.05s.35,1.39.61,2.2L231.88,42Z"/><path class="e29d599b-1a91-42cb-9cc9-ec33702a5e33" d="M240.48,47.63h7.77a6.17,6.17,0,0,0,3.87-1.11A4.13,4.13,0,0,0,253.73,43a3.86,3.86,0,0,0-2.82-3.82v-.07a3,3,0,0,0,2.2-3,3.7,3.7,0,0,0-1.36-3A5.7,5.7,0,0,0,248.07,32h-7.59Zm3.85-3.1V40.82h3.43a1.87,1.87,0,0,1,2.11,1.88,1.82,1.82,0,0,1-2.06,1.83Zm0-6.32V35.09h3.19c1.14,0,1.87.56,1.87,1.54s-.77,1.58-1.89,1.58Z"/><path class="e29d599b-1a91-42cb-9cc9-ec33702a5e33" d="M264,44.86c-2.53,0-3.82-2.16-3.82-5s1.29-5,3.82-5,3.81,2.18,3.81,5S266.58,44.86,264,44.86ZM264,48c4.78,0,7.79-3.47,7.79-8.14s-3-8.13-7.79-8.13-7.76,3.46-7.76,8.13S259.25,48,264,48Z"/><path class="e29d599b-1a91-42cb-9cc9-ec33702a5e33" d="M281.56,47.91c4.38,0,6.56-2.18,6.56-5.78V32h-3.9V42.2a2.41,2.41,0,0,1-2.66,2.61c-1.92,0-2.71-1-2.71-2.55V32H275v10.1C275,45.77,277.16,47.91,281.56,47.91Z"/><path class="e29d599b-1a91-42cb-9cc9-ec33702a5e33" d="M295.49,47.63h3.9V35.3H304V32h-13.1V35.3h4.58Z"/></svg>