<svg id="f9730166-a043-475e-9cfe-c7e3c79deab8" data-name="レイヤー 1" xmlns="http://www.w3.org/2000/svg" width="142" height="64"><defs><style>.ec8ed87d-d243-4866-ac33-071d80d65cb6{fill:#fff}</style></defs><path class="ec8ed87d-d243-4866-ac33-071d80d65cb6" d="M37.06,25.93c-1.55,0-2.19-1.47-2.19-3.68s.64-3.69,2.19-3.69,2.17,1.5,2.17,3.69S38.59,25.93,37.06,25.93Zm0,2.22c3.06,0,5.06-2.3,5.06-5.9s-2-5.88-5-5.88S32,18.66,32,22.25,34,28.15,37,28.15Z"/><path class="ec8ed87d-d243-4866-ac33-071d80d65cb6" d="M48.59,27.88H51.3V25.37h1.64V23.31H51.3v-6.8H48.56L43.28,22.9v2.47h5.31Zm-3.21-4.57v0l3.18-3.88h0v3.91Z"/><path class="ec8ed87d-d243-4866-ac33-071d80d65cb6" d="M61.05,31.82H65l.9-2.85h5.48l.92,2.85h4.08L70.68,16h-4Zm5.7-5.66L68,22.34c.26-.82.63-2.24.63-2.24h0s.35,1.42.61,2.24l1.18,3.82Z"/><path class="ec8ed87d-d243-4866-ac33-071d80d65cb6" d="M78.57,31.82h7.74a6.09,6.09,0,0,0,3.86-1.12,4.21,4.21,0,0,0,1.6-3.54A3.91,3.91,0,0,0,89,23.29v-.07a3.1,3.1,0,0,0,2.2-3.1,3.78,3.78,0,0,0-1.36-3A5.67,5.67,0,0,0,86.13,16H78.57Zm3.84-3.14V24.92h3.42a1.87,1.87,0,0,1,2.1,1.91,1.83,1.83,0,0,1-2.06,1.85Zm0-6.41V19.11h3.18c1.14,0,1.86.57,1.86,1.57s-.77,1.59-1.89,1.59Z"/><path class="ec8ed87d-d243-4866-ac33-071d80d65cb6" d="M101.59,29c-2.52,0-3.81-2.19-3.81-5.07s1.29-5.09,3.81-5.09,3.8,2.21,3.8,5.09S104.14,29,101.59,29Zm0,3.18c4.76,0,7.77-3.52,7.77-8.25s-3-8.25-7.77-8.25S93.83,19.22,93.83,24,96.83,32.2,101.57,32.2Z"/><path class="ec8ed87d-d243-4866-ac33-071d80d65cb6" d="M118.63,32.11c4.37,0,6.54-2.21,6.54-5.86V16h-3.88V26.32A2.43,2.43,0,0,1,118.63,29a2.36,2.36,0,0,1-2.7-2.59V16h-3.88V26.25C112.05,29.94,114.25,32.11,118.63,32.11Z"/><path class="ec8ed87d-d243-4866-ac33-071d80d65cb6" d="M132.51,31.82h3.88V19.33H141V16H128v3.32h4.56Z"/></svg>