<svg id="bc6a71b3-a84b-4e8e-98af-7e670fcdf101" data-name="レイヤー 1" xmlns="http://www.w3.org/2000/svg" width="648" height="60"><defs><style>.aeaf6781-f45d-4e54-b7f6-3b410a77e68b{fill:#707070}</style></defs><path class="aeaf6781-f45d-4e54-b7f6-3b410a77e68b" d="M10.54,22h2.27l1.5-6.51c.2-.88.39-2.16.39-2.16h0s.23,1.28.43,2.16L16.64,22h2.29L22.4,9.8H20l-1.53,6c-.24,1.05-.6,2.67-.6,2.67h0s-.31-1.53-.56-2.6L15.92,9.8H13.54l-1.32,6.1c-.26,1.07-.56,2.59-.56,2.59h0s-.29-1.62-.52-2.66l-1.58-6H7Z"/><path class="aeaf6781-f45d-4e54-b7f6-3b410a77e68b" d="M27.25,22.21a3.74,3.74,0,0,0,3.94-2.86H28.91a1.61,1.61,0,0,1-1.68,1.07A2.17,2.17,0,0,1,25,18.25h6.33c0-3.11-1.5-5.25-4.3-5.25a4.32,4.32,0,0,0-4.31,4.59A4.32,4.32,0,0,0,27.25,22.21Zm-.19-7.43a1.84,1.84,0,0,1,1.85,1.87H25A1.94,1.94,0,0,1,27.06,14.78Z"/><path class="aeaf6781-f45d-4e54-b7f6-3b410a77e68b" d="M41,22h2.32V16.89c0-1.16.62-1.91,1.56-1.91s1.34.51,1.34,1.5V22h2.31V16.89c0-1.16.6-1.91,1.57-1.91s1.34.51,1.34,1.5V22h2.31V16.09c0-1.9-1-3.09-2.87-3.09a3,3,0,0,0-2.62,1.53h0A2.61,2.61,0,0,0,45.83,13a2.85,2.85,0,0,0-2.53,1.41h0V13.23H41Z"/><path class="aeaf6781-f45d-4e54-b7f6-3b410a77e68b" d="M63.79,22V13.23H61.47v5a1.76,1.76,0,0,1-1.75,2c-1,0-1.44-.56-1.44-1.58V13.23H56v5.82a2.85,2.85,0,0,0,3,3.14,2.81,2.81,0,0,0,2.5-1.26h.05v1Z"/><path class="aeaf6781-f45d-4e54-b7f6-3b410a77e68b" d="M69.67,22.21c2.17,0,3.67-1.06,3.67-2.81,0-2-1.61-2.44-3.08-2.75-1.24-.25-2.39-.32-2.39-1.07s.59-1,1.49-1,1.58.34,1.69,1.28h2.09C73,14.13,71.69,13,69.4,13c-2,0-3.56.9-3.56,2.78s1.53,2.33,3.1,2.64c1.19.24,2.29.32,2.29,1.15,0,.62-.58,1-1.6,1a1.67,1.67,0,0,1-1.9-1.45H65.59C65.73,21,67.14,22.21,69.67,22.21Z"/><path class="aeaf6781-f45d-4e54-b7f6-3b410a77e68b" d="M74.55,14.76h1.2v5.12C75.75,21.53,77,22,78.12,22c.92,0,1.44,0,1.44,0v-1.7h-.68a.76.76,0,0,1-.86-.86V14.76h1.49V13.23H78V10.51H75.75v2.72h-1.2Z"/><path class="aeaf6781-f45d-4e54-b7f6-3b410a77e68b" d="M93.37,22.21a3.65,3.65,0,0,0,3.93-3.33H95.07a1.63,1.63,0,0,1-1.75,1.48c-1.41,0-2.07-1.11-2.07-2.76s.71-2.75,2.11-2.75A1.59,1.59,0,0,1,95,16.19h2.27a3.7,3.7,0,0,0-4-3.19,4.3,4.3,0,0,0-4.36,4.6A4.34,4.34,0,0,0,93.37,22.21Z"/><path class="aeaf6781-f45d-4e54-b7f6-3b410a77e68b" d="M103.28,22.21a4.44,4.44,0,0,0,4.56-4.61,4.56,4.56,0,1,0-9.11,0A4.43,4.43,0,0,0,103.28,22.21Zm0-1.77c-1.42,0-2.2-1.14-2.2-2.84s.78-2.85,2.2-2.85,2.21,1.15,2.21,2.85S104.7,20.44,103.28,20.44Z"/><path class="aeaf6781-f45d-4e54-b7f6-3b410a77e68b" d="M112,13.23h-2.26V22h2.31V17a1.83,1.83,0,0,1,1.77-2,1.45,1.45,0,0,1,1.51,1.6V22h2.32V16.26a3,3,0,0,0-3-3.26,2.85,2.85,0,0,0-2.59,1.42h0Z"/><path class="aeaf6781-f45d-4e54-b7f6-3b410a77e68b" d="M119.27,14.76h1.2v5.12c0,1.65,1.24,2.09,2.36,2.09.92,0,1.45,0,1.45,0v-1.7h-.68a.76.76,0,0,1-.87-.86V14.76h1.5V13.23h-1.5V10.51h-2.26v2.72h-1.2Z"/><path class="aeaf6781-f45d-4e54-b7f6-3b410a77e68b" d="M126.27,22h2.31V13.23h-2.31Zm0-10.08h2.31V9.8h-2.31Z"/><path class="aeaf6781-f45d-4e54-b7f6-3b410a77e68b" d="M133.19,13.23h-2.26V22h2.31V17A1.83,1.83,0,0,1,135,15a1.45,1.45,0,0,1,1.51,1.6V22h2.31V16.26a3,3,0,0,0-3-3.26,2.82,2.82,0,0,0-2.58,1.42h-.05Z"/><path class="aeaf6781-f45d-4e54-b7f6-3b410a77e68b" d="M148.84,22V13.23h-2.31v5a1.76,1.76,0,0,1-1.75,2c-1,0-1.44-.56-1.44-1.58V13.23H141v5.82a2.85,2.85,0,0,0,3,3.14,2.81,2.81,0,0,0,2.5-1.26h.05v1Z"/><path class="aeaf6781-f45d-4e54-b7f6-3b410a77e68b" d="M155.29,22.21a3.74,3.74,0,0,0,3.94-2.86H157a1.61,1.61,0,0,1-1.68,1.07A2.17,2.17,0,0,1,153,18.25h6.33c0-3.11-1.5-5.25-4.3-5.25a4.31,4.31,0,0,0-4.3,4.59A4.31,4.31,0,0,0,155.29,22.21Zm-.19-7.43A1.84,1.84,0,0,1,157,16.65h-3.87A1.94,1.94,0,0,1,155.1,14.78Z"/><path class="aeaf6781-f45d-4e54-b7f6-3b410a77e68b" d="M168.56,14.76h1.2v5.12c0,1.65,1.24,2.09,2.37,2.09.91,0,1.44,0,1.44,0v-1.7h-.68a.76.76,0,0,1-.87-.86V14.76h1.5V13.23H172V10.51h-2.26v2.72h-1.2Z"/><path class="aeaf6781-f45d-4e54-b7f6-3b410a77e68b" d="M177.87,9.8h-2.31V22h2.31V17a1.83,1.83,0,0,1,1.77-2,1.45,1.45,0,0,1,1.51,1.6V22h2.31V16.26a3,3,0,0,0-3-3.26,2.77,2.77,0,0,0-2.53,1.37h0Z"/><path class="aeaf6781-f45d-4e54-b7f6-3b410a77e68b" d="M189.84,22.21a3.74,3.74,0,0,0,3.94-2.86H191.5a1.61,1.61,0,0,1-1.68,1.07,2.17,2.17,0,0,1-2.23-2.17h6.33c0-3.11-1.5-5.25-4.3-5.25a4.31,4.31,0,0,0-4.3,4.59A4.31,4.31,0,0,0,189.84,22.21Zm-.19-7.43a1.83,1.83,0,0,1,1.85,1.87h-3.87A1.94,1.94,0,0,1,189.65,14.78Z"/><path class="aeaf6781-f45d-4e54-b7f6-3b410a77e68b" d="M203.65,22H206V9.8h-2.31Z"/><path class="aeaf6781-f45d-4e54-b7f6-3b410a77e68b" d="M212.44,22.21a3.74,3.74,0,0,0,3.94-2.86H214.1a1.61,1.61,0,0,1-1.68,1.07,2.16,2.16,0,0,1-2.22-2.17h6.32c0-3.11-1.5-5.25-4.3-5.25a4.31,4.31,0,0,0-4.3,4.59A4.31,4.31,0,0,0,212.44,22.21Zm-.19-7.43a1.83,1.83,0,0,1,1.85,1.87h-3.87A1.94,1.94,0,0,1,212.25,14.78Z"/><path class="aeaf6781-f45d-4e54-b7f6-3b410a77e68b" d="M222.28,24.93a4.58,4.58,0,0,0,3.15-1,3.4,3.4,0,0,0,1-2.65V13.23h-2.22v.92h0A2.79,2.79,0,0,0,221.79,13c-2.21,0-3.77,1.66-3.77,4.26a3.92,3.92,0,0,0,3.84,4.17,2.83,2.83,0,0,0,2.27-1h.06v.95c0,1.19-.63,1.82-1.94,1.82-1.07,0-1.57-.43-1.75-1h-2.3C218.44,23.91,219.9,24.93,222.28,24.93Zm0-5.36c-1.19,0-2-.86-2-2.34s.78-2.38,1.95-2.38a2.1,2.1,0,0,1,2.07,2.36C224.3,18.5,223.71,19.57,222.25,19.57Z"/><path class="aeaf6781-f45d-4e54-b7f6-3b410a77e68b" d="M234.3,22h2.23v-.08c-.21-.15-.31-.55-.31-1.21V16.23c0-2-1.05-3.22-3.67-3.22s-3.69,1.35-3.76,2.88h2.06c.07-.84.6-1.23,1.68-1.23s1.46.41,1.46,1-.66.78-2.1,1c-1.94.28-3.5.89-3.5,2.81,0,1.73,1.25,2.67,3,2.67A2.65,2.65,0,0,0,234,21h0A2.26,2.26,0,0,0,234.3,22ZM232,20.54c-.82,0-1.36-.29-1.36-1.1s.59-1.09,1.8-1.36a6.57,6.57,0,0,0,1.62-.51v1.31C234.05,19.73,233.31,20.54,232,20.54Z"/><path class="aeaf6781-f45d-4e54-b7f6-3b410a77e68b" d="M242.58,22.21a3.66,3.66,0,0,0,3.93-3.33h-2.23a1.63,1.63,0,0,1-1.75,1.48c-1.41,0-2.08-1.11-2.08-2.76s.72-2.75,2.11-2.75a1.6,1.6,0,0,1,1.6,1.34h2.26a3.69,3.69,0,0,0-4-3.19,4.3,4.3,0,0,0-4.35,4.6A4.34,4.34,0,0,0,242.58,22.21Z"/><path class="aeaf6781-f45d-4e54-b7f6-3b410a77e68b" d="M248.46,24.81h1.36c1.77,0,2.42-.7,3.08-2.64l3-8.94h-2.33l-1.22,3.93c-.27.8-.51,1.9-.51,1.9h0s-.28-1.1-.56-1.9L250,13.23h-2.43l2.35,6.21a7.53,7.53,0,0,1,.66,2.36c0,.71-.37,1.19-1.29,1.19h-.82Z"/><path class="aeaf6781-f45d-4e54-b7f6-3b410a77e68b" d="M264.84,14.76h1.21v5.12c0,1.65,1.24,2.09,2.36,2.09.92,0,1.45,0,1.45,0v-1.7h-.68a.76.76,0,0,1-.87-.86V14.76h1.49V13.23h-1.49V10.51h-2.26v2.72h-1.21Z"/><path class="aeaf6781-f45d-4e54-b7f6-3b410a77e68b" d="M274.16,9.8h-2.32V22h2.32V17a1.82,1.82,0,0,1,1.76-2,1.46,1.46,0,0,1,1.52,1.6V22h2.31V16.26a3,3,0,0,0-3-3.26,2.77,2.77,0,0,0-2.53,1.37h0Z"/><path class="aeaf6781-f45d-4e54-b7f6-3b410a77e68b" d="M287.52,22h2.22v-.08c-.2-.15-.3-.55-.3-1.21V16.23c0-2-1.06-3.22-3.67-3.22s-3.69,1.35-3.76,2.88h2.06c.07-.84.59-1.23,1.68-1.23s1.46.41,1.46,1-.66.78-2.11,1c-1.93.28-3.5.89-3.5,2.81,0,1.73,1.26,2.67,3,2.67A2.65,2.65,0,0,0,287.21,21h0A2.26,2.26,0,0,0,287.52,22Zm-2.31-1.41c-.82,0-1.36-.29-1.36-1.1s.59-1.09,1.8-1.36a6.49,6.49,0,0,0,1.61-.51v1.31C287.26,19.73,286.53,20.54,285.21,20.54Z"/><path class="aeaf6781-f45d-4e54-b7f6-3b410a77e68b" d="M291.07,14.76h1.21v5.12c0,1.65,1.24,2.09,2.36,2.09.92,0,1.45,0,1.45,0v-1.7h-.68a.76.76,0,0,1-.87-.86V14.76H296V13.23h-1.49V10.51h-2.26v2.72h-1.21Z"/><path class="aeaf6781-f45d-4e54-b7f6-3b410a77e68b" d="M306,22h2.46V16.6h4.78V22h2.46V9.8h-2.46v4.76H308.5V9.8H306Z"/><path class="aeaf6781-f45d-4e54-b7f6-3b410a77e68b" d="M318.28,22h2.31V13.23h-2.31Zm0-10.08h2.31V9.8h-2.31Z"/><path class="aeaf6781-f45d-4e54-b7f6-3b410a77e68b" d="M325.16,13.23h-2.22V22h2.31V17.7a2.2,2.2,0,0,1,2.6-2.48h0v-2a1.53,1.53,0,0,0-.54-.07,2.3,2.3,0,0,0-2.15,1.5h0Z"/><path class="aeaf6781-f45d-4e54-b7f6-3b410a77e68b" d="M333.63,22.21a4.43,4.43,0,0,0,4.55-4.61,4.56,4.56,0,1,0-9.11,0A4.44,4.44,0,0,0,333.63,22.21Zm0-1.77c-1.43,0-2.21-1.14-2.21-2.84s.78-2.85,2.21-2.85,2.21,1.15,2.21,2.85S335,20.44,333.63,20.44Z"/><path class="aeaf6781-f45d-4e54-b7f6-3b410a77e68b" d="M343.64,22.21c2.18,0,3.67-1.06,3.67-2.81,0-2-1.61-2.44-3.07-2.75-1.24-.25-2.4-.32-2.4-1.07s.6-1,1.5-1,1.58.34,1.68,1.28h2.09c-.17-1.76-1.45-2.89-3.74-2.89-2,0-3.55.9-3.55,2.78s1.53,2.33,3.09,2.64c1.19.24,2.3.32,2.3,1.15,0,.62-.58,1-1.6,1a1.68,1.68,0,0,1-1.91-1.45h-2.14C339.7,21,341.11,22.21,343.64,22.21Z"/><path class="aeaf6781-f45d-4e54-b7f6-3b410a77e68b" d="M351.51,9.8H349.2V22h2.31V17a1.83,1.83,0,0,1,1.77-2,1.45,1.45,0,0,1,1.51,1.6V22h2.32V16.26a3,3,0,0,0-3-3.26,2.78,2.78,0,0,0-2.54,1.37h-.05Z"/><path class="aeaf6781-f45d-4e54-b7f6-3b410a77e68b" d="M359.38,22h2.32V13.23h-2.32Zm0-10.08h2.32V9.8h-2.32Z"/><path class="aeaf6781-f45d-4e54-b7f6-3b410a77e68b" d="M375.18,22h2.47V17.26l4-7.46h-2.58l-1.8,3.6c-.36.73-.82,1.74-.82,1.74h0s-.43-1-.8-1.74l-1.84-3.6h-2.68l4,7.46Z"/><path class="aeaf6781-f45d-4e54-b7f6-3b410a77e68b" d="M387,22h2.23v-.08c-.2-.15-.31-.55-.31-1.21V16.23c0-2-1-3.22-3.67-3.22s-3.69,1.35-3.76,2.88h2.06c.07-.84.6-1.23,1.68-1.23s1.47.41,1.47,1-.67.78-2.11,1c-1.94.28-3.5.89-3.5,2.81,0,1.73,1.25,2.67,3,2.67A2.67,2.67,0,0,0,386.68,21h0A2.41,2.41,0,0,0,387,22Zm-2.31-1.41c-.82,0-1.36-.29-1.36-1.1s.6-1.09,1.8-1.36a6.57,6.57,0,0,0,1.62-.51v1.31C386.73,19.73,386,20.54,384.67,20.54Z"/><path class="aeaf6781-f45d-4e54-b7f6-3b410a77e68b" d="M391.22,22h2.31V16.89c0-1.16.63-1.91,1.56-1.91s1.34.51,1.34,1.5V22h2.32V16.89c0-1.16.59-1.91,1.56-1.91s1.34.51,1.34,1.5V22H404V16.09c0-1.9-1-3.09-2.87-3.09a3,3,0,0,0-2.62,1.53h0A2.59,2.59,0,0,0,396,13a2.86,2.86,0,0,0-2.54,1.41h-.05V13.23h-2.22Z"/><path class="aeaf6781-f45d-4e54-b7f6-3b410a77e68b" d="M411.73,22H414v-.08c-.2-.15-.31-.55-.31-1.21V16.23c0-2-1-3.22-3.67-3.22s-3.69,1.35-3.75,2.88h2c.07-.84.6-1.23,1.69-1.23s1.46.41,1.46,1-.66.78-2.11,1c-1.94.28-3.5.89-3.5,2.81,0,1.73,1.26,2.67,3,2.67A2.66,2.66,0,0,0,411.43,21h0A2.41,2.41,0,0,0,411.73,22Zm-2.31-1.41c-.81,0-1.36-.29-1.36-1.1s.6-1.09,1.8-1.36a6.57,6.57,0,0,0,1.62-.51v1.31C411.48,19.73,410.75,20.54,409.42,20.54Z"/><path class="aeaf6781-f45d-4e54-b7f6-3b410a77e68b" d="M423.7,22V13.23h-2.31v5a1.76,1.76,0,0,1-1.75,2c-1,0-1.45-.56-1.45-1.58V13.23H415.9v5.82a2.85,2.85,0,0,0,3,3.14,2.78,2.78,0,0,0,2.49-1.26h.05v1Z"/><path class="aeaf6781-f45d-4e54-b7f6-3b410a77e68b" d="M430.09,22.21A3.65,3.65,0,0,0,434,18.88h-2.23A1.63,1.63,0,0,1,430,20.36c-1.41,0-2.07-1.11-2.07-2.76s.71-2.75,2.11-2.75a1.59,1.59,0,0,1,1.59,1.34h2.27A3.7,3.7,0,0,0,430,13a4.3,4.3,0,0,0-4.36,4.6A4.34,4.34,0,0,0,430.09,22.21Z"/><path class="aeaf6781-f45d-4e54-b7f6-3b410a77e68b" d="M438.19,9.8h-2.32V22h2.32V17A1.82,1.82,0,0,1,440,15a1.46,1.46,0,0,1,1.52,1.6V22h2.31V16.26a3,3,0,0,0-3-3.26,2.77,2.77,0,0,0-2.53,1.37h-.05Z"/><path class="aeaf6781-f45d-4e54-b7f6-3b410a77e68b" d="M446.06,22h2.31V13.23h-2.31Zm0-10.08h2.31V9.8h-2.31Z"/><path class="aeaf6781-f45d-4e54-b7f6-3b410a77e68b" d="M463.35,22.21c2.2,0,3.69-1.79,3.69-4.61s-1.56-4.6-3.75-4.6a2.74,2.74,0,0,0-2.44,1.29h-.05V9.8h-2.31V22h2.23V20.87h0A2.91,2.91,0,0,0,463.35,22.21Zm-.51-1.94c-1.29,0-2.09-1-2.09-2.62s.55-2.78,2-2.78c1.29,0,1.94,1.12,1.94,2.73S464,20.27,462.84,20.27Z"/><path class="aeaf6781-f45d-4e54-b7f6-3b410a77e68b" d="M476.7,22V13.23h-2.31v5a1.77,1.77,0,0,1-1.75,2c-1,0-1.45-.56-1.45-1.58V13.23H468.9v5.82a2.84,2.84,0,0,0,3,3.14,2.79,2.79,0,0,0,2.5-1.26h.05v1Z"/><path class="aeaf6781-f45d-4e54-b7f6-3b410a77e68b" d="M479,22h2.32V13.23H479Zm0-10.08h2.32V9.8H479Z"/><path class="aeaf6781-f45d-4e54-b7f6-3b410a77e68b" d="M483.74,22h2.31V9.8h-2.31Z"/><path class="aeaf6781-f45d-4e54-b7f6-3b410a77e68b" d="M487.92,14.76h1.21v5.12c0,1.65,1.24,2.09,2.36,2.09.92,0,1.44,0,1.44,0v-1.7h-.68a.76.76,0,0,1-.86-.86V14.76h1.49V13.23h-1.49V10.51h-2.26v2.72h-1.21Z"/><path class="aeaf6781-f45d-4e54-b7f6-3b410a77e68b" d="M508.19,22h2.23v-.08c-.21-.15-.31-.55-.31-1.21V16.23c0-2-1.05-3.22-3.67-3.22s-3.69,1.35-3.76,2.88h2.06c.07-.84.59-1.23,1.68-1.23s1.46.41,1.46,1-.66.78-2.1,1c-1.94.28-3.51.89-3.51,2.81,0,1.73,1.26,2.67,3.05,2.67A2.65,2.65,0,0,0,507.88,21h0A2.26,2.26,0,0,0,508.19,22Zm-2.31-1.41c-.82,0-1.36-.29-1.36-1.1s.59-1.09,1.8-1.36a6.35,6.35,0,0,0,1.61-.51v1.31C507.93,19.73,507.2,20.54,505.88,20.54Z"/><path class="aeaf6781-f45d-4e54-b7f6-3b410a77e68b" d="M514.65,13.23h-2.23V22h2.31V17.7a2.2,2.2,0,0,1,2.61-2.48h0v-2a1.56,1.56,0,0,0-.55-.07,2.29,2.29,0,0,0-2.14,1.5h-.05Z"/><path class="aeaf6781-f45d-4e54-b7f6-3b410a77e68b" d="M523.12,22.21a4.43,4.43,0,0,0,4.55-4.61,4.56,4.56,0,1,0-9.11,0A4.44,4.44,0,0,0,523.12,22.21Zm0-1.77c-1.43,0-2.21-1.14-2.21-2.84s.78-2.85,2.21-2.85,2.21,1.15,2.21,2.85S524.53,20.44,523.12,20.44Z"/><path class="aeaf6781-f45d-4e54-b7f6-3b410a77e68b" d="M537.33,22V13.23H535v5a1.77,1.77,0,0,1-1.76,2c-1,0-1.44-.56-1.44-1.58V13.23h-2.3v5.82a2.85,2.85,0,0,0,3,3.14,2.81,2.81,0,0,0,2.5-1.26h.05v1Z"/><path class="aeaf6781-f45d-4e54-b7f6-3b410a77e68b" d="M541.93,13.23h-2.26V22H542V17a1.82,1.82,0,0,1,1.76-2,1.46,1.46,0,0,1,1.52,1.6V22h2.31V16.26a3,3,0,0,0-3-3.26A2.82,2.82,0,0,0,542,14.42h-.06Z"/><path class="aeaf6781-f45d-4e54-b7f6-3b410a77e68b" d="M553.12,22.21a2.89,2.89,0,0,0,2.6-1.4h0V22H558V9.8h-2.31v4.49h0A2.77,2.77,0,0,0,553.15,13c-2.17,0-3.72,1.88-3.72,4.6S550.93,22.21,553.12,22.21Zm.51-1.94c-1.19,0-1.85-1-1.85-2.67s.64-2.73,1.92-2.73c1.48,0,2,1.12,2,2.78S555,20.27,553.63,20.27Z"/><path class="aeaf6781-f45d-4e54-b7f6-3b410a77e68b" d="M572.15,22.21a3.66,3.66,0,0,0,3.93-3.33h-2.23a1.63,1.63,0,0,1-1.75,1.48c-1.41,0-2.07-1.11-2.07-2.76s.71-2.75,2.1-2.75a1.6,1.6,0,0,1,1.6,1.34H576A3.69,3.69,0,0,0,572,13a4.3,4.3,0,0,0-4.35,4.6A4.34,4.34,0,0,0,572.15,22.21Z"/><path class="aeaf6781-f45d-4e54-b7f6-3b410a77e68b" d="M580.16,13.23h-2.23V22h2.31V17.7a2.2,2.2,0,0,1,2.6-2.48h0v-2a1.46,1.46,0,0,0-.54-.07,2.29,2.29,0,0,0-2.14,1.5h-.05Z"/><path class="aeaf6781-f45d-4e54-b7f6-3b410a77e68b" d="M588.59,22.21a3.74,3.74,0,0,0,3.94-2.86h-2.27a1.63,1.63,0,0,1-1.69,1.07,2.16,2.16,0,0,1-2.22-2.17h6.32c0-3.11-1.5-5.25-4.3-5.25a4.31,4.31,0,0,0-4.3,4.59A4.31,4.31,0,0,0,588.59,22.21Zm-.19-7.43a1.85,1.85,0,0,1,1.86,1.87h-3.88A1.94,1.94,0,0,1,588.4,14.78Z"/><path class="aeaf6781-f45d-4e54-b7f6-3b410a77e68b" d="M600.08,22h2.23v-.08c-.21-.15-.31-.55-.31-1.21V16.23c0-2-1-3.22-3.67-3.22s-3.69,1.35-3.76,2.88h2.06c.07-.84.6-1.23,1.68-1.23s1.47.41,1.47,1-.67.78-2.11,1c-1.94.28-3.5.89-3.5,2.81,0,1.73,1.25,2.67,3,2.67A2.68,2.68,0,0,0,599.78,21h0A2.41,2.41,0,0,0,600.08,22Zm-2.31-1.41c-.82,0-1.36-.29-1.36-1.1s.59-1.09,1.8-1.36a6.57,6.57,0,0,0,1.62-.51v1.31C599.83,19.73,599.1,20.54,597.77,20.54Z"/><path class="aeaf6781-f45d-4e54-b7f6-3b410a77e68b" d="M603.63,14.76h1.21v5.12c0,1.65,1.24,2.09,2.36,2.09.92,0,1.45,0,1.45,0v-1.7H608a.76.76,0,0,1-.87-.86V14.76h1.5V13.23h-1.5V10.51h-2.26v2.72h-1.21Z"/><path class="aeaf6781-f45d-4e54-b7f6-3b410a77e68b" d="M610.64,22H613V13.23h-2.31Zm0-10.08H613V9.8h-2.31Z"/><path class="aeaf6781-f45d-4e54-b7f6-3b410a77e68b" d="M617.61,22h2.21l3-8.72h-2.31l-1.43,4.53c-.25.83-.37,1.39-.37,1.39h0s-.13-.56-.39-1.39l-1.39-4.53h-2.35Z"/><path class="aeaf6781-f45d-4e54-b7f6-3b410a77e68b" d="M624.49,22h2.32V13.23h-2.32Zm0-10.08h2.32V9.8h-2.32Z"/><path class="aeaf6781-f45d-4e54-b7f6-3b410a77e68b" d="M628.64,14.76h1.21v5.12c0,1.65,1.24,2.09,2.36,2.09.92,0,1.45,0,1.45,0v-1.7H633a.76.76,0,0,1-.87-.86V14.76h1.5V13.23h-1.5V10.51h-2.26v2.72h-1.21Z"/><path class="aeaf6781-f45d-4e54-b7f6-3b410a77e68b" d="M636,24.81h1.36c1.77,0,2.42-.7,3.08-2.64l3-8.94h-2.33l-1.22,3.93c-.27.8-.51,1.9-.51,1.9h0s-.28-1.1-.56-1.9l-1.29-3.93H635.1l2.35,6.21a7.53,7.53,0,0,1,.66,2.36c0,.71-.37,1.19-1.29,1.19H636Z"/><path class="aeaf6781-f45d-4e54-b7f6-3b410a77e68b" d="M644.06,24.78a2.89,2.89,0,0,0,2.47-3V19.49H644V22h1.24a2.1,2.1,0,0,1-1.22,2Z"/><path class="aeaf6781-f45d-4e54-b7f6-3b410a77e68b" d="M12.52,50.21c2.2,0,3.69-1.79,3.69-4.61S14.65,41,12.46,41A2.71,2.71,0,0,0,10,42.29H10V37.8H7.66V50H9.89V48.87h0A2.91,2.91,0,0,0,12.52,50.21ZM12,48.27c-1.29,0-2.09-1-2.09-2.62s.55-2.78,2-2.78c1.29,0,1.94,1.12,1.94,2.73S13.2,48.27,12,48.27Z"/><path class="aeaf6781-f45d-4e54-b7f6-3b410a77e68b" d="M22.27,50.21a4.61,4.61,0,0,0,0-9.21,4.61,4.61,0,0,0,0,9.21Zm0-1.77c-1.43,0-2.21-1.14-2.21-2.84s.78-2.85,2.21-2.85,2.21,1.15,2.21,2.85S23.68,48.44,22.27,48.44Z"/><path class="aeaf6781-f45d-4e54-b7f6-3b410a77e68b" d="M36.48,50V41.23H34.17v5a1.77,1.77,0,0,1-1.76,2c-1,0-1.44-.56-1.44-1.58V41.23h-2.3v5.82a2.85,2.85,0,0,0,3,3.14,2.81,2.81,0,0,0,2.5-1.26h0v1Z"/><path class="aeaf6781-f45d-4e54-b7f6-3b410a77e68b" d="M41.08,41.23H38.82V50h2.32V45a1.82,1.82,0,0,1,1.76-2,1.46,1.46,0,0,1,1.52,1.6V50h2.31V44.26a3,3,0,0,0-3-3.26,2.82,2.82,0,0,0-2.58,1.42h-.06Z"/><path class="aeaf6781-f45d-4e54-b7f6-3b410a77e68b" d="M52.27,50.21a2.89,2.89,0,0,0,2.6-1.4h0V50h2.23V37.8H54.82v4.49h0A2.77,2.77,0,0,0,52.3,41c-2.17,0-3.72,1.88-3.72,4.6S50.08,50.21,52.27,50.21Zm.51-1.94c-1.19,0-1.85-1-1.85-2.67s.64-2.73,1.92-2.73c1.48,0,2,1.12,2,2.78S54.16,48.27,52.78,48.27Z"/><path class="aeaf6781-f45d-4e54-b7f6-3b410a77e68b" d="M65,50H67.2v-.08c-.21-.15-.31-.55-.31-1.21V44.23c0-2-1-3.22-3.67-3.22s-3.69,1.35-3.76,2.88h2.06c.07-.84.59-1.23,1.68-1.23s1.46.41,1.46,1-.66.78-2.1,1c-1.94.28-3.51.89-3.51,2.81,0,1.73,1.26,2.67,3.05,2.67A2.65,2.65,0,0,0,64.66,49h0A2.26,2.26,0,0,0,65,50Zm-2.31-1.41c-.82,0-1.36-.29-1.36-1.1s.59-1.09,1.8-1.36a6.35,6.35,0,0,0,1.61-.51v1.31C64.71,47.73,64,48.54,62.66,48.54Z"/><path class="aeaf6781-f45d-4e54-b7f6-3b410a77e68b" d="M71.43,41.23H69.2V50h2.31V45.7a2.2,2.2,0,0,1,2.6-2.48h.06v-2a1.56,1.56,0,0,0-.55-.07,2.29,2.29,0,0,0-2.14,1.5h0Z"/><path class="aeaf6781-f45d-4e54-b7f6-3b410a77e68b" d="M76.29,52.81h1.36c1.77,0,2.41-.7,3.08-2.64l3-8.94H81.44l-1.22,3.93c-.27.8-.51,1.9-.51,1.9h0s-.29-1.1-.56-1.9l-1.29-3.93H75.39l2.35,6.21a7.53,7.53,0,0,1,.66,2.36c0,.71-.38,1.19-1.29,1.19h-.82Z"/><path class="aeaf6781-f45d-4e54-b7f6-3b410a77e68b" d="M89.11,52.81h2.31V49h0A2.82,2.82,0,0,0,94,50.21c2.24,0,3.77-1.79,3.77-4.61S96.27,41,94,41a3,3,0,0,0-2.56,1.32h0V41.23H89.11Zm4.37-4.52c-1.38,0-2.11-1-2.11-2.62s.58-2.8,2-2.8,2,1.15,2,2.8S94.65,48.29,93.48,48.29Z"/><path class="aeaf6781-f45d-4e54-b7f6-3b410a77e68b" d="M107.4,50V41.23h-2.31v5a1.76,1.76,0,0,1-1.75,2c-1,0-1.45-.56-1.45-1.58V41.23H99.6v5.82a2.84,2.84,0,0,0,3,3.14,2.79,2.79,0,0,0,2.5-1.26h0v1Z"/><path class="aeaf6781-f45d-4e54-b7f6-3b410a77e68b" d="M113.28,50.21c2.18,0,3.67-1.06,3.67-2.81,0-2-1.61-2.44-3.07-2.75-1.24-.25-2.4-.32-2.4-1.07s.6-1,1.5-1,1.58.34,1.68,1.28h2.09C116.58,42.13,115.31,41,113,41c-2,0-3.55.9-3.55,2.78s1.53,2.33,3.09,2.64c1.19.24,2.3.32,2.3,1.15,0,.62-.58,1-1.6,1a1.68,1.68,0,0,1-1.91-1.45H109.2C109.34,49,110.75,50.21,113.28,50.21Z"/><path class="aeaf6781-f45d-4e54-b7f6-3b410a77e68b" d="M121.15,37.8h-2.31V50h2.31V45a1.83,1.83,0,0,1,1.77-2,1.45,1.45,0,0,1,1.51,1.6V50h2.32V44.26a3,3,0,0,0-3-3.26,2.78,2.78,0,0,0-2.54,1.37h0Z"/><path class="aeaf6781-f45d-4e54-b7f6-3b410a77e68b" d="M129,50h2.32V41.23H129Zm0-10.08h2.32V37.8H129Z"/><path class="aeaf6781-f45d-4e54-b7f6-3b410a77e68b" d="M135.94,41.23h-2.26V50H136V45a1.83,1.83,0,0,1,1.77-2,1.45,1.45,0,0,1,1.51,1.6V50h2.32V44.26a3,3,0,0,0-3-3.26A2.85,2.85,0,0,0,136,42.42h-.05Z"/><path class="aeaf6781-f45d-4e54-b7f6-3b410a77e68b" d="M147.71,52.93a4.55,4.55,0,0,0,3.14-1,3.37,3.37,0,0,0,1-2.65V41.23h-2.23v.92h0A2.82,2.82,0,0,0,147.21,41c-2.21,0-3.77,1.66-3.77,4.26a3.92,3.92,0,0,0,3.84,4.17,2.84,2.84,0,0,0,2.28-1h.05v1c0,1.19-.63,1.82-1.94,1.82-1.07,0-1.56-.43-1.75-1h-2.29C143.87,51.91,145.33,52.93,147.71,52.93Zm0-5.36c-1.19,0-2-.86-2-2.34s.78-2.38,2-2.38a2.1,2.1,0,0,1,2.07,2.36C149.73,46.5,149.13,47.57,147.67,47.57Z"/><path class="aeaf6781-f45d-4e54-b7f6-3b410a77e68b" d="M154.12,52.78a2.88,2.88,0,0,0,2.46-3V47.49H154.1V50h1.24a2.1,2.1,0,0,1-1.22,2Z"/><path class="aeaf6781-f45d-4e54-b7f6-3b410a77e68b" d="M162,42.83h1.19V50h2.31V42.83h1.56v-1.6h-1.56v-.64c0-.9.47-1,1.56-1V37.82c-2.22-.24-3.87.51-3.87,2.63v.78H162Z"/><path class="aeaf6781-f45d-4e54-b7f6-3b410a77e68b" d="M172.83,50.21a4.61,4.61,0,1,0-4.55-4.61A4.44,4.44,0,0,0,172.83,50.21Zm0-1.77c-1.43,0-2.21-1.14-2.21-2.84s.78-2.85,2.21-2.85S175,43.9,175,45.6,174.24,48.44,172.83,48.44Z"/><path class="aeaf6781-f45d-4e54-b7f6-3b410a77e68b" d="M181.54,41.23h-2.23V50h2.31V45.7a2.2,2.2,0,0,1,2.6-2.48h.05v-2a1.5,1.5,0,0,0-.54-.07,2.28,2.28,0,0,0-2.14,1.5h-.05Z"/><path class="aeaf6781-f45d-4e54-b7f6-3b410a77e68b" d="M190,50.21a3.74,3.74,0,0,0,3.94-2.86h-2.28A1.61,1.61,0,0,1,190,48.42a2.17,2.17,0,0,1-2.23-2.17h6.33c0-3.11-1.5-5.25-4.3-5.25a4.31,4.31,0,0,0-4.3,4.59A4.31,4.31,0,0,0,190,50.21Zm-.19-7.43a1.83,1.83,0,0,1,1.85,1.87h-3.87A1.94,1.94,0,0,1,189.78,42.78Z"/><path class="aeaf6781-f45d-4e54-b7f6-3b410a77e68b" d="M199.51,50.21c2.17,0,3.67-1.06,3.67-2.81,0-2-1.62-2.44-3.08-2.75-1.24-.25-2.4-.32-2.4-1.07s.6-1,1.5-1,1.58.34,1.68,1.28H203c-.17-1.76-1.44-2.89-3.74-2.89-2,0-3.55.9-3.55,2.78s1.53,2.33,3.09,2.64c1.19.24,2.3.32,2.3,1.15,0,.62-.58,1-1.6,1a1.67,1.67,0,0,1-1.9-1.45h-2.14C195.56,49,197,50.21,199.51,50.21Z"/><path class="aeaf6781-f45d-4e54-b7f6-3b410a77e68b" d="M205.06,50h2.32V41.23h-2.32Zm0-10.08h2.32V37.8h-2.32Z"/><path class="aeaf6781-f45d-4e54-b7f6-3b410a77e68b" d="M213.56,52.93a4.56,4.56,0,0,0,3.15-1,3.4,3.4,0,0,0,1-2.65V41.23h-2.23v.92h0A2.79,2.79,0,0,0,213.07,41c-2.21,0-3.77,1.66-3.77,4.26a3.92,3.92,0,0,0,3.84,4.17,2.85,2.85,0,0,0,2.28-1h.05v1c0,1.19-.63,1.82-1.94,1.82-1.07,0-1.56-.43-1.75-1h-2.3C209.72,51.91,211.18,52.93,213.56,52.93Zm0-5.36c-1.19,0-2-.86-2-2.34s.78-2.38,1.95-2.38a2.1,2.1,0,0,1,2.08,2.36C215.59,46.5,215,47.57,213.53,47.57Z"/><path class="aeaf6781-f45d-4e54-b7f6-3b410a77e68b" d="M222.4,37.8h-2.31V50h2.31V45a1.83,1.83,0,0,1,1.77-2,1.45,1.45,0,0,1,1.51,1.6V50H228V44.26A3,3,0,0,0,225,41a2.76,2.76,0,0,0-2.53,1.37h-.06Z"/><path class="aeaf6781-f45d-4e54-b7f6-3b410a77e68b" d="M229.6,42.76h1.2v5.12c0,1.65,1.24,2.09,2.37,2.09.91,0,1.44,0,1.44,0v-1.7h-.68a.76.76,0,0,1-.87-.86V42.76h1.5V41.23h-1.5V38.51H230.8v2.72h-1.2Z"/><path class="aeaf6781-f45d-4e54-b7f6-3b410a77e68b" d="M236.65,52.78a2.88,2.88,0,0,0,2.46-3V47.49h-2.48V50h1.24a2.1,2.1,0,0,1-1.22,2Z"/><path class="aeaf6781-f45d-4e54-b7f6-3b410a77e68b" d="M250.52,50h2.23v-.08c-.21-.15-.31-.55-.31-1.21V44.23c0-2-1.05-3.22-3.67-3.22s-3.69,1.35-3.76,2.88h2.06c.07-.84.6-1.23,1.68-1.23s1.47.41,1.47,1-.67.78-2.11,1c-1.94.28-3.5.89-3.5,2.81,0,1.73,1.25,2.67,3,2.67A2.68,2.68,0,0,0,250.22,49h0A2.41,2.41,0,0,0,250.52,50Zm-2.31-1.41c-.82,0-1.36-.29-1.36-1.1s.59-1.09,1.8-1.36a6.57,6.57,0,0,0,1.62-.51v1.31C250.27,47.73,249.54,48.54,248.21,48.54Z"/><path class="aeaf6781-f45d-4e54-b7f6-3b410a77e68b" d="M257,41.23h-2.27V50h2.32V45a1.82,1.82,0,0,1,1.76-2,1.46,1.46,0,0,1,1.52,1.6V50h2.31V44.26a3,3,0,0,0-3-3.26,2.82,2.82,0,0,0-2.58,1.42H257Z"/><path class="aeaf6781-f45d-4e54-b7f6-3b410a77e68b" d="M268.2,50.21a2.88,2.88,0,0,0,2.6-1.4h0V50h2.22V37.8h-2.31v4.49h-.05A2.77,2.77,0,0,0,268.24,41c-2.18,0-3.73,1.88-3.73,4.6S266,50.21,268.2,50.21Zm.51-1.94c-1.19,0-1.85-1-1.85-2.67s.64-2.73,1.92-2.73c1.48,0,2,1.12,2,2.78S270.09,48.27,268.71,48.27Z"/><path class="aeaf6781-f45d-4e54-b7f6-3b410a77e68b" d="M283.16,50.21a3.66,3.66,0,0,0,3.93-3.33h-2.23a1.63,1.63,0,0,1-1.75,1.48c-1.41,0-2.07-1.11-2.07-2.76s.71-2.75,2.1-2.75a1.6,1.6,0,0,1,1.6,1.34H287A3.69,3.69,0,0,0,283,41a4.3,4.3,0,0,0-4.35,4.6A4.34,4.34,0,0,0,283.16,50.21Z"/><path class="aeaf6781-f45d-4e54-b7f6-3b410a77e68b" d="M293.07,50.21a4.61,4.61,0,1,0-4.55-4.61A4.44,4.44,0,0,0,293.07,50.21Zm0-1.77c-1.43,0-2.21-1.14-2.21-2.84s.78-2.85,2.21-2.85,2.21,1.15,2.21,2.85S294.48,48.44,293.07,48.44Z"/><path class="aeaf6781-f45d-4e54-b7f6-3b410a77e68b" d="M301.81,41.23h-2.26V50h2.31V45a1.83,1.83,0,0,1,1.77-2,1.45,1.45,0,0,1,1.51,1.6V50h2.31V44.26a3,3,0,0,0-3-3.26,2.84,2.84,0,0,0-2.58,1.42h-.05Z"/><path class="aeaf6781-f45d-4e54-b7f6-3b410a77e68b" d="M313.27,50.21c2.17,0,3.67-1.06,3.67-2.81,0-2-1.62-2.44-3.08-2.75-1.24-.25-2.39-.32-2.39-1.07s.59-1,1.49-1,1.58.34,1.68,1.28h2.1C316.57,42.13,315.29,41,313,41c-2,0-3.56.9-3.56,2.78s1.53,2.33,3.1,2.64c1.19.24,2.29.32,2.29,1.15,0,.62-.58,1-1.6,1a1.67,1.67,0,0,1-1.9-1.45h-2.14C309.32,49,310.74,50.21,313.27,50.21Z"/><path class="aeaf6781-f45d-4e54-b7f6-3b410a77e68b" d="M318.83,50h2.31V41.23h-2.31Zm0-10.08h2.31V37.8h-2.31Z"/><path class="aeaf6781-f45d-4e54-b7f6-3b410a77e68b" d="M326.75,50.21a2.89,2.89,0,0,0,2.6-1.4h0V50h2.23V37.8H329.3v4.49h-.05A2.77,2.77,0,0,0,326.78,41c-2.17,0-3.72,1.88-3.72,4.6S324.56,50.21,326.75,50.21Zm.51-1.94c-1.19,0-1.85-1-1.85-2.67s.64-2.73,1.92-2.73c1.48,0,2,1.12,2,2.78S328.64,48.27,327.26,48.27Z"/><path class="aeaf6781-f45d-4e54-b7f6-3b410a77e68b" d="M338.05,50.21A3.75,3.75,0,0,0,342,47.35h-2.28A1.62,1.62,0,0,1,338,48.42a2.17,2.17,0,0,1-2.23-2.17h6.32c0-3.11-1.49-5.25-4.3-5.25a4.31,4.31,0,0,0-4.3,4.59A4.31,4.31,0,0,0,338.05,50.21Zm-.18-7.43a1.84,1.84,0,0,1,1.85,1.87h-3.88A2,2,0,0,1,337.87,42.78Z"/><path class="aeaf6781-f45d-4e54-b7f6-3b410a77e68b" d="M346.28,41.23h-2.23V50h2.32V45.7a2.2,2.2,0,0,1,2.6-2.48h0v-2a1.56,1.56,0,0,0-.55-.07,2.29,2.29,0,0,0-2.14,1.5h-.05Z"/><path class="aeaf6781-f45d-4e54-b7f6-3b410a77e68b" d="M356.11,50h2.22v-.08c-.2-.15-.3-.55-.3-1.21V44.23c0-2-1.06-3.22-3.67-3.22s-3.69,1.35-3.76,2.88h2.06c.06-.84.59-1.23,1.68-1.23s1.46.41,1.46,1-.66.78-2.11,1c-1.93.28-3.5.89-3.5,2.81,0,1.73,1.26,2.67,3,2.67A2.66,2.66,0,0,0,355.8,49h0A2.26,2.26,0,0,0,356.11,50Zm-2.31-1.41c-.82,0-1.36-.29-1.36-1.1s.59-1.09,1.8-1.36a6.49,6.49,0,0,0,1.61-.51v1.31C355.85,47.73,355.12,48.54,353.8,48.54Z"/><path class="aeaf6781-f45d-4e54-b7f6-3b410a77e68b" d="M359.66,42.76h1.21v5.12c0,1.65,1.24,2.09,2.36,2.09.92,0,1.45,0,1.45,0v-1.7H364a.76.76,0,0,1-.87-.86V42.76h1.49V41.23h-1.49V38.51h-2.26v2.72h-1.21Z"/><path class="aeaf6781-f45d-4e54-b7f6-3b410a77e68b" d="M366.66,50H369V41.23h-2.32Zm0-10.08H369V37.8h-2.32Z"/><path class="aeaf6781-f45d-4e54-b7f6-3b410a77e68b" d="M375.45,50.21a4.61,4.61,0,1,0-4.55-4.61A4.44,4.44,0,0,0,375.45,50.21Zm0-1.77c-1.43,0-2.21-1.14-2.21-2.84s.78-2.85,2.21-2.85,2.21,1.15,2.21,2.85S376.86,48.44,375.45,48.44Z"/><path class="aeaf6781-f45d-4e54-b7f6-3b410a77e68b" d="M384.19,41.23h-2.26V50h2.31V45A1.83,1.83,0,0,1,386,43a1.45,1.45,0,0,1,1.51,1.6V50h2.31V44.26a3,3,0,0,0-3-3.26,2.85,2.85,0,0,0-2.59,1.42h-.05Z"/><path class="aeaf6781-f45d-4e54-b7f6-3b410a77e68b" d="M395.31,42.83h1.19V50h2.31V42.83h1.56v-1.6h-1.56v-.64c0-.9.48-1,1.56-1V37.82c-2.22-.24-3.87.51-3.87,2.63v.78h-1.19Z"/><path class="aeaf6781-f45d-4e54-b7f6-3b410a77e68b" d="M406.15,50.21a4.61,4.61,0,1,0-4.55-4.61A4.44,4.44,0,0,0,406.15,50.21Zm0-1.77c-1.42,0-2.21-1.14-2.21-2.84s.79-2.85,2.21-2.85,2.21,1.15,2.21,2.85S407.57,48.44,406.15,48.44Z"/><path class="aeaf6781-f45d-4e54-b7f6-3b410a77e68b" d="M414.86,41.23h-2.23V50h2.31V45.7a2.2,2.2,0,0,1,2.6-2.48h.06v-2a1.56,1.56,0,0,0-.55-.07,2.29,2.29,0,0,0-2.14,1.5h-.05Z"/><path class="aeaf6781-f45d-4e54-b7f6-3b410a77e68b" d="M422.64,42.76h1.21v5.12c0,1.65,1.24,2.09,2.36,2.09.92,0,1.45,0,1.45,0v-1.7H427a.76.76,0,0,1-.87-.86V42.76h1.5V41.23h-1.5V38.51h-2.26v2.72h-1.21Z"/><path class="aeaf6781-f45d-4e54-b7f6-3b410a77e68b" d="M432,37.8h-2.31V50H432V45a1.83,1.83,0,0,1,1.77-2,1.45,1.45,0,0,1,1.51,1.6V50h2.31V44.26a3,3,0,0,0-3-3.26A2.77,2.77,0,0,0,432,42.37H432Z"/><path class="aeaf6781-f45d-4e54-b7f6-3b410a77e68b" d="M443.93,50.21a3.74,3.74,0,0,0,3.94-2.86h-2.28a1.61,1.61,0,0,1-1.68,1.07,2.17,2.17,0,0,1-2.23-2.17H448c0-3.11-1.5-5.25-4.3-5.25a4.31,4.31,0,0,0-4.3,4.59A4.31,4.31,0,0,0,443.93,50.21Zm-.19-7.43a1.84,1.84,0,0,1,1.85,1.87h-3.87A1.94,1.94,0,0,1,443.74,42.78Z"/><path class="aeaf6781-f45d-4e54-b7f6-3b410a77e68b" d="M457.68,50.21a3.66,3.66,0,0,0,3.93-3.33h-2.23a1.63,1.63,0,0,1-1.75,1.48c-1.41,0-2.07-1.11-2.07-2.76s.71-2.75,2.1-2.75a1.6,1.6,0,0,1,1.6,1.34h2.26a3.69,3.69,0,0,0-4-3.19,4.3,4.3,0,0,0-4.35,4.6A4.34,4.34,0,0,0,457.68,50.21Z"/><path class="aeaf6781-f45d-4e54-b7f6-3b410a77e68b" d="M471.2,50V41.23h-2.32v5a1.76,1.76,0,0,1-1.75,2c-1,0-1.44-.56-1.44-1.58V41.23h-2.3v5.82a2.85,2.85,0,0,0,3,3.14,2.81,2.81,0,0,0,2.5-1.26H469v1Z"/><path class="aeaf6781-f45d-4e54-b7f6-3b410a77e68b" d="M477.08,50.21c2.17,0,3.67-1.06,3.67-2.81,0-2-1.62-2.44-3.08-2.75-1.24-.25-2.39-.32-2.39-1.07s.59-1,1.49-1,1.58.34,1.68,1.28h2.1c-.17-1.76-1.45-2.89-3.74-2.89-2,0-3.56.9-3.56,2.78s1.53,2.33,3.1,2.64c1.19.24,2.29.32,2.29,1.15,0,.62-.58,1-1.6,1a1.67,1.67,0,0,1-1.9-1.45H473C473.13,49,474.54,50.21,477.08,50.21Z"/><path class="aeaf6781-f45d-4e54-b7f6-3b410a77e68b" d="M482,42.76h1.2v5.12c0,1.65,1.24,2.09,2.37,2.09.91,0,1.44,0,1.44,0v-1.7h-.68a.76.76,0,0,1-.87-.86V42.76h1.5V41.23h-1.5V38.51h-2.26v2.72H482Z"/><path class="aeaf6781-f45d-4e54-b7f6-3b410a77e68b" d="M493,50.21a4.61,4.61,0,1,0-4.56-4.61A4.43,4.43,0,0,0,493,50.21Zm0-1.77c-1.43,0-2.21-1.14-2.21-2.84s.78-2.85,2.21-2.85,2.21,1.15,2.21,2.85S494.42,48.44,493,48.44Z"/><path class="aeaf6781-f45d-4e54-b7f6-3b410a77e68b" d="M499.48,50h2.32V44.89c0-1.16.62-1.91,1.56-1.91s1.34.51,1.34,1.5V50H507V44.89c0-1.16.6-1.91,1.57-1.91s1.34.51,1.34,1.5V50h2.31V44.09c0-1.9-1-3.09-2.87-3.09a3,3,0,0,0-2.62,1.53h0A2.61,2.61,0,0,0,504.29,41a2.85,2.85,0,0,0-2.53,1.41h-.05V41.23h-2.23Z"/><path class="aeaf6781-f45d-4e54-b7f6-3b410a77e68b" d="M518.61,50.21a3.74,3.74,0,0,0,3.94-2.86h-2.28a1.61,1.61,0,0,1-1.68,1.07,2.17,2.17,0,0,1-2.23-2.17h6.33c0-3.11-1.5-5.25-4.3-5.25a4.31,4.31,0,0,0-4.3,4.59A4.31,4.31,0,0,0,518.61,50.21Zm-.19-7.43a1.83,1.83,0,0,1,1.85,1.87H516.4A1.94,1.94,0,0,1,518.42,42.78Z"/><path class="aeaf6781-f45d-4e54-b7f6-3b410a77e68b" d="M526.84,41.23h-2.23V50h2.31V45.7a2.2,2.2,0,0,1,2.6-2.48h.05v-2a1.5,1.5,0,0,0-.54-.07,2.28,2.28,0,0,0-2.14,1.5h0Z"/><path class="aeaf6781-f45d-4e54-b7f6-3b410a77e68b" d="M530.27,50h2.48V47.49h-2.48Z"/></svg>