<svg id="a34778ef-4aa5-47ff-9d8a-6128014ecf10" data-name="レイヤー 1" xmlns="http://www.w3.org/2000/svg" width="652" height="60"><defs><style>.af7767a4-8dfa-446f-8023-aabb67b2521a{fill:#707070}</style></defs><path class="af7767a4-8dfa-446f-8023-aabb67b2521a" d="M9,11.9h3.65V22h2.47V11.9h3.65V9.83H9Z"/><path class="af7767a4-8dfa-446f-8023-aabb67b2521a" d="M22.85,22.23a4.43,4.43,0,0,0,4.56-4.6A4.44,4.44,0,0,0,22.85,13a4.43,4.43,0,0,0-4.55,4.61A4.43,4.43,0,0,0,22.85,22.23Zm0-1.76c-1.42,0-2.21-1.14-2.21-2.84s.79-2.86,2.21-2.86,2.21,1.16,2.21,2.86S24.27,20.47,22.85,20.47Z"/><path class="af7767a4-8dfa-446f-8023-aabb67b2521a" d="M37.12,22.23a3.73,3.73,0,0,0,3.94-2.85H38.78a1.62,1.62,0,0,1-1.68,1.07,2.17,2.17,0,0,1-2.23-2.18h6.32c0-3.11-1.49-5.25-4.3-5.25a4.32,4.32,0,0,0-4.3,4.59A4.32,4.32,0,0,0,37.12,22.23Zm-.19-7.42a1.84,1.84,0,0,1,1.85,1.87H34.91A1.93,1.93,0,0,1,36.93,14.81Z"/><path class="af7767a4-8dfa-446f-8023-aabb67b2521a" d="M42,22h2.54l1.88-2.89h0L48.06,22h2.76l-3.11-4.64,2.7-4.08H48l-1.46,2.5h0L45,13.26H42.33l2.84,4.1Z"/><path class="af7767a4-8dfa-446f-8023-aabb67b2521a" d="M52.55,24.83h2.31V21h0a2.79,2.79,0,0,0,2.51,1.24c2.25,0,3.78-1.78,3.78-4.6S59.71,13,57.4,13a3,3,0,0,0-2.57,1.33h0V13.26H52.55Zm4.37-4.52c-1.38,0-2.11-1-2.11-2.61s.58-2.81,2-2.81,2,1.16,2,2.81S58.09,20.31,56.92,20.31Z"/><path class="af7767a4-8dfa-446f-8023-aabb67b2521a" d="M68.6,22h2.23v-.09c-.21-.15-.31-.54-.31-1.2V16.25c0-2-1-3.21-3.67-3.21s-3.69,1.34-3.76,2.87h2.06c.07-.83.59-1.22,1.68-1.22s1.46.4,1.46,1-.66.79-2.1,1c-1.94.27-3.51.88-3.51,2.8,0,1.74,1.26,2.67,3.05,2.67A2.67,2.67,0,0,0,68.29,21h0A2.3,2.3,0,0,0,68.6,22Zm-2.31-1.41c-.82,0-1.36-.29-1.36-1.11s.59-1.08,1.8-1.36a6,6,0,0,0,1.61-.51V18.9A1.82,1.82,0,0,1,66.29,20.57Z"/><path class="af7767a4-8dfa-446f-8023-aabb67b2521a" d="M75.09,13.26H72.83V22h2.31V17a1.82,1.82,0,0,1,1.77-2,1.44,1.44,0,0,1,1.51,1.59V22h2.32v-5.7a3,3,0,0,0-3-3.26,2.84,2.84,0,0,0-2.59,1.43h0Z"/><path class="af7767a4-8dfa-446f-8023-aabb67b2521a" d="M86.28,22.23a2.91,2.91,0,0,0,2.6-1.39h0V22h2.23V9.83H88.83v4.48h0A2.77,2.77,0,0,0,86.31,13c-2.17,0-3.72,1.89-3.72,4.61S84.09,22.23,86.28,22.23Zm.51-1.93c-1.19,0-1.85-1-1.85-2.67s.64-2.74,1.92-2.74c1.48,0,2,1.12,2,2.79S88.17,20.3,86.79,20.3Z"/><path class="af7767a4-8dfa-446f-8023-aabb67b2521a" d="M96.66,14.79h1.21v5.12c0,1.64,1.24,2.09,2.36,2.09.92,0,1.45,0,1.45,0v-1.7l-.68,0a.77.77,0,0,1-.87-.87V14.79h1.5V13.26h-1.5V10.54H97.87v2.72H96.66Z"/><path class="af7767a4-8dfa-446f-8023-aabb67b2521a" d="M106,9.83h-2.31V22H106V17a1.82,1.82,0,0,1,1.77-2,1.44,1.44,0,0,1,1.51,1.59V22h2.31v-5.7a3,3,0,0,0-3-3.26A2.77,2.77,0,0,0,106,14.4h0Z"/><path class="af7767a4-8dfa-446f-8023-aabb67b2521a" d="M118,22.23a3.73,3.73,0,0,0,3.94-2.85h-2.28a1.62,1.62,0,0,1-1.68,1.07,2.17,2.17,0,0,1-2.23-2.18H122c0-3.11-1.5-5.25-4.3-5.25a4.32,4.32,0,0,0-4.3,4.59A4.31,4.31,0,0,0,118,22.23Zm-.19-7.42a1.83,1.83,0,0,1,1.85,1.87h-3.87A1.94,1.94,0,0,1,117.76,14.81Z"/><path class="af7767a4-8dfa-446f-8023-aabb67b2521a" d="M131,22h2.47V17.29l4-7.46h-2.58l-1.8,3.6c-.36.73-.82,1.73-.82,1.73h0s-.43-1-.8-1.73l-1.84-3.6H127l4,7.46Z"/><path class="af7767a4-8dfa-446f-8023-aabb67b2521a" d="M142.8,22H145v-.09c-.21-.15-.31-.54-.31-1.2V16.25c0-2-1.05-3.21-3.67-3.21s-3.69,1.34-3.76,2.87h2.06c.07-.83.59-1.22,1.68-1.22s1.46.4,1.46,1-.66.79-2.1,1c-1.94.27-3.51.88-3.51,2.8,0,1.74,1.26,2.67,3.05,2.67A2.67,2.67,0,0,0,142.49,21h0A2.3,2.3,0,0,0,142.8,22Zm-2.31-1.41c-.82,0-1.36-.29-1.36-1.11s.59-1.08,1.8-1.36a6,6,0,0,0,1.61-.51V18.9A1.82,1.82,0,0,1,140.49,20.57Z"/><path class="af7767a4-8dfa-446f-8023-aabb67b2521a" d="M147,22h2.31V16.91c0-1.15.63-1.9,1.57-1.9s1.34.51,1.34,1.5V22h2.31V16.91c0-1.15.6-1.9,1.57-1.9s1.34.51,1.34,1.5V22h2.31V16.11c0-1.9-1-3.09-2.87-3.09a3,3,0,0,0-2.62,1.53h0A2.61,2.61,0,0,0,151.84,13a2.85,2.85,0,0,0-2.53,1.41h-.05V13.26H147Z"/><path class="af7767a4-8dfa-446f-8023-aabb67b2521a" d="M167.55,22h2.23v-.09c-.21-.15-.31-.54-.31-1.2V16.25c0-2-1.05-3.21-3.67-3.21s-3.69,1.34-3.76,2.87h2.06c.07-.83.6-1.22,1.68-1.22s1.46.4,1.46,1-.66.79-2.1,1c-1.94.27-3.5.88-3.5,2.8,0,1.74,1.25,2.67,3,2.67A2.67,2.67,0,0,0,167.24,21h0A2.3,2.3,0,0,0,167.55,22Zm-2.31-1.41c-.82,0-1.36-.29-1.36-1.11s.59-1.08,1.8-1.36a6.17,6.17,0,0,0,1.62-.51V18.9A1.82,1.82,0,0,1,165.24,20.57Z"/><path class="af7767a4-8dfa-446f-8023-aabb67b2521a" d="M179.52,22V13.26h-2.31v5a1.76,1.76,0,0,1-1.75,2c-1,0-1.45-.56-1.45-1.58V13.26h-2.29v5.81a2.84,2.84,0,0,0,3,3.15,2.79,2.79,0,0,0,2.5-1.26h0v1Z"/><path class="af7767a4-8dfa-446f-8023-aabb67b2521a" d="M185.91,22.23a3.65,3.65,0,0,0,3.93-3.33h-2.23a1.63,1.63,0,0,1-1.75,1.48c-1.41,0-2.07-1.1-2.07-2.75s.71-2.76,2.1-2.76a1.6,1.6,0,0,1,1.6,1.35h2.26a3.7,3.7,0,0,0-4-3.2,4.3,4.3,0,0,0-4.35,4.61A4.33,4.33,0,0,0,185.91,22.23Z"/><path class="af7767a4-8dfa-446f-8023-aabb67b2521a" d="M194,9.83h-2.31V22H194V17a1.82,1.82,0,0,1,1.77-2,1.44,1.44,0,0,1,1.51,1.59V22h2.32v-5.7a3,3,0,0,0-3-3.26,2.79,2.79,0,0,0-2.54,1.38H194Z"/><path class="af7767a4-8dfa-446f-8023-aabb67b2521a" d="M201.87,22h2.32V13.26h-2.32Zm0-10.08h2.32V9.83h-2.32Z"/><path class="af7767a4-8dfa-446f-8023-aabb67b2521a" d="M209.71,14.86h1.19V22h2.31V14.86h1.56v-1.6h-1.56v-.65c0-.9.48-1,1.56-1V9.84c-2.22-.24-3.87.51-3.87,2.64v.78h-1.19Z"/><path class="af7767a4-8dfa-446f-8023-aabb67b2521a" d="M221.91,22h2.23v-.09c-.2-.15-.3-.54-.3-1.2V16.25c0-2-1.06-3.21-3.68-3.21s-3.69,1.34-3.75,2.87h2.05c.07-.83.6-1.22,1.69-1.22s1.46.4,1.46,1-.66.79-2.11,1c-1.94.27-3.5.88-3.5,2.8,0,1.74,1.26,2.67,3,2.67A2.68,2.68,0,0,0,221.61,21h0A2.46,2.46,0,0,0,221.91,22Zm-2.31-1.41c-.81,0-1.36-.29-1.36-1.11s.6-1.08,1.8-1.36a6.17,6.17,0,0,0,1.62-.51V18.9A1.82,1.82,0,0,1,219.6,20.57Z"/><path class="af7767a4-8dfa-446f-8023-aabb67b2521a" d="M226.15,22h2.31V16.91c0-1.15.63-1.9,1.56-1.9s1.35.51,1.35,1.5V22h2.31V16.91c0-1.15.59-1.9,1.56-1.9s1.34.51,1.34,1.5V22h2.32V16.11c0-1.9-1-3.09-2.88-3.09a3,3,0,0,0-2.61,1.53h0A2.59,2.59,0,0,0,231,13a2.83,2.83,0,0,0-2.53,1.41h-.06V13.26h-2.22Z"/><path class="af7767a4-8dfa-446f-8023-aabb67b2521a" d="M241.18,22h2.31V13.26h-2.31Zm0-10.08h2.31V9.83h-2.31Z"/><path class="af7767a4-8dfa-446f-8023-aabb67b2521a" d="M245.87,22h2.31V9.83h-2.31Z"/><path class="af7767a4-8dfa-446f-8023-aabb67b2521a" d="M250.75,24.83h1.36c1.76,0,2.41-.69,3.07-2.63l3.05-8.94H255.9l-1.23,3.93c-.27.79-.51,1.9-.51,1.9h0s-.29-1.11-.56-1.9l-1.29-3.93h-2.43l2.34,6.2a7.63,7.63,0,0,1,.66,2.37c0,.71-.37,1.19-1.29,1.19h-.81Z"/><path class="af7767a4-8dfa-446f-8023-aabb67b2521a" d="M263.58,22h2.31V9.83h-2.31Z"/><path class="af7767a4-8dfa-446f-8023-aabb67b2521a" d="M272.37,22.23a3.73,3.73,0,0,0,3.94-2.85H274a1.62,1.62,0,0,1-1.68,1.07,2.17,2.17,0,0,1-2.23-2.18h6.33c0-3.11-1.5-5.25-4.3-5.25a4.32,4.32,0,0,0-4.3,4.59A4.31,4.31,0,0,0,272.37,22.23Zm-.19-7.42A1.83,1.83,0,0,1,274,16.68h-3.87A1.94,1.94,0,0,1,272.18,14.81Z"/><path class="af7767a4-8dfa-446f-8023-aabb67b2521a" d="M282.21,25a4.59,4.59,0,0,0,3.15-1,3.41,3.41,0,0,0,1-2.65V13.26h-2.22v.92h0A2.81,2.81,0,0,0,281.72,13c-2.21,0-3.78,1.67-3.78,4.27a3.92,3.92,0,0,0,3.85,4.16,2.8,2.8,0,0,0,2.27-1h.05v.95c0,1.19-.62,1.82-1.93,1.82-1.07,0-1.57-.42-1.75-1h-2.3C278.37,23.93,279.83,25,282.21,25Zm0-5.35c-1.19,0-2-.87-2-2.35s.78-2.38,2-2.38a2.1,2.1,0,0,1,2.07,2.37C284.23,18.53,283.64,19.6,282.18,19.6Z"/><path class="af7767a4-8dfa-446f-8023-aabb67b2521a" d="M294.23,22h2.23v-.09c-.21-.15-.31-.54-.31-1.2V16.25c0-2-1-3.21-3.67-3.21s-3.69,1.34-3.76,2.87h2.06c.07-.83.59-1.22,1.68-1.22s1.46.4,1.46,1-.66.79-2.1,1c-1.94.27-3.51.88-3.51,2.8,0,1.74,1.26,2.67,3.05,2.67A2.67,2.67,0,0,0,293.92,21h0A2.3,2.3,0,0,0,294.23,22Zm-2.31-1.41c-.82,0-1.36-.29-1.36-1.11s.59-1.08,1.8-1.36a6,6,0,0,0,1.61-.51V18.9A1.82,1.82,0,0,1,291.92,20.57Z"/><path class="af7767a4-8dfa-446f-8023-aabb67b2521a" d="M302.51,22.23a3.65,3.65,0,0,0,3.93-3.33h-2.23a1.63,1.63,0,0,1-1.75,1.48c-1.41,0-2.08-1.1-2.08-2.75s.72-2.76,2.11-2.76a1.6,1.6,0,0,1,1.6,1.35h2.26a3.71,3.71,0,0,0-4-3.2A4.3,4.3,0,0,0,298,17.63,4.33,4.33,0,0,0,302.51,22.23Z"/><path class="af7767a4-8dfa-446f-8023-aabb67b2521a" d="M308.39,24.83h1.36c1.77,0,2.41-.69,3.08-2.63l3-8.94h-2.33l-1.22,3.93c-.27.79-.51,1.9-.51,1.9h0s-.29-1.11-.56-1.9l-1.29-3.93h-2.43l2.35,6.2a7.63,7.63,0,0,1,.66,2.37c0,.71-.37,1.19-1.29,1.19h-.82Z"/><path class="af7767a4-8dfa-446f-8023-aabb67b2521a" d="M316.45,24.8a2.87,2.87,0,0,0,2.46-3V19.51h-2.48V22h1.24a2.11,2.11,0,0,1-1.22,2Z"/><path class="af7767a4-8dfa-446f-8023-aabb67b2521a" d="M326.68,22h2.09L330,17.7l.41-1.52h0l.39,1.52L332,22h2.11l2.6-8.72h-2.24l-1.11,4c-.19.72-.39,1.64-.39,1.64h0l-.41-1.65-1.14-4h-2l-1.09,4c-.19.71-.38,1.65-.38,1.65h0s-.2-.92-.39-1.64l-1.05-4h-2.3Z"/><path class="af7767a4-8dfa-446f-8023-aabb67b2521a" d="M342.17,22.23a3.73,3.73,0,0,0,3.94-2.85h-2.28a1.62,1.62,0,0,1-1.68,1.07,2.17,2.17,0,0,1-2.23-2.18h6.33c0-3.11-1.5-5.25-4.3-5.25a4.32,4.32,0,0,0-4.3,4.59A4.31,4.31,0,0,0,342.17,22.23ZM342,14.81a1.83,1.83,0,0,1,1.85,1.87H340A1.94,1.94,0,0,1,342,14.81Z"/><path class="af7767a4-8dfa-446f-8023-aabb67b2521a" d="M351.86,22h2.31V16.91c0-1.15.63-1.9,1.56-1.9s1.34.51,1.34,1.5V22h2.32V16.91c0-1.15.59-1.9,1.56-1.9s1.34.51,1.34,1.5V22h2.31V16.11c0-1.9-1-3.09-2.87-3.09a3.06,3.06,0,0,0-2.62,1.53h0A2.59,2.59,0,0,0,356.67,13a2.86,2.86,0,0,0-2.54,1.41h-.05V13.26h-2.22Z"/><path class="af7767a4-8dfa-446f-8023-aabb67b2521a" d="M374.62,22V13.26h-2.31v5a1.76,1.76,0,0,1-1.75,2c-1,0-1.45-.56-1.45-1.58V13.26h-2.29v5.81a2.84,2.84,0,0,0,3,3.15,2.79,2.79,0,0,0,2.5-1.26h.05v1Z"/><path class="af7767a4-8dfa-446f-8023-aabb67b2521a" d="M380.5,22.23c2.18,0,3.67-1.05,3.67-2.8,0-2-1.61-2.45-3.07-2.75-1.25-.26-2.4-.33-2.4-1.08s.59-1,1.49-1,1.59.34,1.69,1.27H384c-.17-1.75-1.45-2.89-3.74-2.89-2,0-3.55.9-3.55,2.79s1.53,2.33,3.09,2.63c1.19.24,2.29.33,2.29,1.16,0,.61-.57,1-1.59,1a1.68,1.68,0,0,1-1.91-1.44h-2.14C376.56,21,378,22.23,380.5,22.23Z"/><path class="af7767a4-8dfa-446f-8023-aabb67b2521a" d="M385.38,14.79h1.21v5.12c0,1.64,1.24,2.09,2.36,2.09.92,0,1.44,0,1.44,0v-1.7l-.68,0a.76.76,0,0,1-.86-.87V14.79h1.49V13.26h-1.49V10.54h-2.26v2.72h-1.21Z"/><path class="af7767a4-8dfa-446f-8023-aabb67b2521a" d="M401.56,22h2.23v-.09c-.21-.15-.31-.54-.31-1.2V16.25c0-2-1.05-3.21-3.67-3.21s-3.69,1.34-3.76,2.87h2.06c.07-.83.6-1.22,1.68-1.22s1.46.4,1.46,1-.66.79-2.1,1c-1.94.27-3.5.88-3.5,2.8,0,1.74,1.25,2.67,3,2.67A2.67,2.67,0,0,0,401.25,21h0A2.3,2.3,0,0,0,401.56,22Zm-2.31-1.41c-.82,0-1.36-.29-1.36-1.11s.59-1.08,1.8-1.36a6.17,6.17,0,0,0,1.62-.51V18.9A1.83,1.83,0,0,1,399.25,20.57Z"/><path class="af7767a4-8dfa-446f-8023-aabb67b2521a" d="M405.79,24.83h2.32V21h0a2.8,2.8,0,0,0,2.52,1.24c2.24,0,3.77-1.78,3.77-4.6S413,13,410.64,13a3,3,0,0,0-2.57,1.33H408V13.26h-2.23Zm4.37-4.52c-1.37,0-2.1-1-2.1-2.61s.57-2.81,2-2.81,2,1.16,2,2.81S411.34,20.31,410.16,20.31Z"/><path class="af7767a4-8dfa-446f-8023-aabb67b2521a" d="M416.35,24.83h2.31V21h0a2.79,2.79,0,0,0,2.51,1.24c2.25,0,3.78-1.78,3.78-4.6S423.51,13,421.2,13a3,3,0,0,0-2.57,1.33h-.05V13.26h-2.23Zm4.37-4.52c-1.38,0-2.11-1-2.11-2.61s.58-2.81,2-2.81,2,1.16,2,2.81S421.89,20.31,420.72,20.31Z"/><path class="af7767a4-8dfa-446f-8023-aabb67b2521a" d="M426.94,22h2.31V9.83h-2.31Z"/><path class="af7767a4-8dfa-446f-8023-aabb67b2521a" d="M431.82,24.83h1.36c1.77,0,2.41-.69,3.08-2.63l3-8.94H437l-1.22,3.93c-.27.79-.51,1.9-.51,1.9h0s-.29-1.11-.56-1.9l-1.29-3.93h-2.43l2.35,6.2a7.63,7.63,0,0,1,.66,2.37c0,.71-.38,1.19-1.29,1.19h-.82Z"/><path class="af7767a4-8dfa-446f-8023-aabb67b2521a" d="M444.11,14.79h1.21v5.12c0,1.64,1.24,2.09,2.36,2.09.92,0,1.44,0,1.44,0v-1.7l-.68,0a.76.76,0,0,1-.86-.87V14.79h1.49V13.26h-1.49V10.54h-2.26v2.72h-1.21Z"/><path class="af7767a4-8dfa-446f-8023-aabb67b2521a" d="M453.43,9.83h-2.32V22h2.32V17a1.81,1.81,0,0,1,1.76-2,1.45,1.45,0,0,1,1.52,1.59V22H459v-5.7A3,3,0,0,0,456,13a2.77,2.77,0,0,0-2.53,1.38h-.05Z"/><path class="af7767a4-8dfa-446f-8023-aabb67b2521a" d="M465.39,22.23a3.74,3.74,0,0,0,3.95-2.85h-2.28a1.63,1.63,0,0,1-1.68,1.07,2.17,2.17,0,0,1-2.23-2.18h6.32c0-3.11-1.49-5.25-4.3-5.25a4.32,4.32,0,0,0-4.3,4.59A4.31,4.31,0,0,0,465.39,22.23Zm-.18-7.42a1.84,1.84,0,0,1,1.85,1.87h-3.88A2,2,0,0,1,465.21,14.81Z"/><path class="af7767a4-8dfa-446f-8023-aabb67b2521a" d="M480.57,22h2.23v-.09c-.21-.15-.31-.54-.31-1.2V16.25c0-2-1.05-3.21-3.67-3.21s-3.69,1.34-3.76,2.87h2.06c.07-.83.6-1.22,1.68-1.22s1.47.4,1.47,1-.67.79-2.11,1c-1.94.27-3.5.88-3.5,2.8,0,1.74,1.25,2.67,3,2.67A2.69,2.69,0,0,0,480.27,21h0A2.46,2.46,0,0,0,480.57,22Zm-2.31-1.41c-.82,0-1.36-.29-1.36-1.11s.6-1.08,1.8-1.36a6.17,6.17,0,0,0,1.62-.51V18.9A1.82,1.82,0,0,1,478.26,20.57Z"/><path class="af7767a4-8dfa-446f-8023-aabb67b2521a" d="M488.34,22.23c2.18,0,3.67-1.05,3.67-2.8,0-2-1.61-2.45-3.07-2.75-1.24-.26-2.4-.33-2.4-1.08s.59-1,1.5-1,1.58.34,1.68,1.27h2.09c-.17-1.75-1.45-2.89-3.74-2.89-2,0-3.55.9-3.55,2.79s1.53,2.33,3.09,2.63c1.19.24,2.29.33,2.29,1.16,0,.61-.57,1-1.59,1a1.68,1.68,0,0,1-1.91-1.44h-2.14C484.4,21,485.81,22.23,488.34,22.23Z"/><path class="af7767a4-8dfa-446f-8023-aabb67b2521a" d="M497.44,22.23c2.17,0,3.67-1.05,3.67-2.8,0-2-1.62-2.45-3.08-2.75-1.24-.26-2.4-.33-2.4-1.08s.6-1,1.5-1,1.58.34,1.68,1.27h2.09c-.17-1.75-1.44-2.89-3.74-2.89-2,0-3.55.9-3.55,2.79s1.53,2.33,3.09,2.63c1.19.24,2.3.33,2.3,1.16,0,.61-.58,1-1.6,1a1.67,1.67,0,0,1-1.9-1.44h-2.14C493.49,21,494.9,22.23,497.44,22.23Z"/><path class="af7767a4-8dfa-446f-8023-aabb67b2521a" d="M507.18,22.23a3.73,3.73,0,0,0,3.94-2.85h-2.28a1.62,1.62,0,0,1-1.68,1.07,2.17,2.17,0,0,1-2.23-2.18h6.33c0-3.11-1.5-5.25-4.3-5.25a4.32,4.32,0,0,0-4.31,4.59A4.32,4.32,0,0,0,507.18,22.23ZM507,14.81a1.84,1.84,0,0,1,1.85,1.87H505A1.94,1.94,0,0,1,507,14.81Z"/><path class="af7767a4-8dfa-446f-8023-aabb67b2521a" d="M512.5,14.79h1.2v5.12c0,1.64,1.25,2.09,2.37,2.09.92,0,1.44,0,1.44,0v-1.7l-.68,0a.76.76,0,0,1-.86-.87V14.79h1.49V13.26H516V10.54H513.7v2.72h-1.2Z"/><path class="af7767a4-8dfa-446f-8023-aabb67b2521a" d="M523.12,22.23c2.18,0,3.67-1.05,3.67-2.8,0-2-1.61-2.45-3.07-2.75-1.24-.26-2.4-.33-2.4-1.08s.59-1,1.5-1,1.58.34,1.68,1.27h2.09c-.17-1.75-1.45-2.89-3.74-2.89-2,0-3.55.9-3.55,2.79s1.53,2.33,3.09,2.63c1.19.24,2.3.33,2.3,1.16,0,.61-.58,1-1.6,1a1.68,1.68,0,0,1-1.91-1.44H519C519.18,21,520.59,22.23,523.12,22.23Z"/><path class="af7767a4-8dfa-446f-8023-aabb67b2521a" d="M534.24,22h2.09l1.19-4.28.41-1.52h0s.2.82.39,1.52L539.51,22h2.1l2.61-8.72H542l-1.1,4c-.19.72-.39,1.64-.39,1.64h0s-.22-.92-.41-1.65l-1.13-4h-2l-1.08,4c-.19.71-.38,1.65-.38,1.65h0s-.21-.92-.39-1.64l-1.06-4h-2.29Z"/><path class="af7767a4-8dfa-446f-8023-aabb67b2521a" d="M549.72,22.23a3.74,3.74,0,0,0,3.95-2.85h-2.28a1.62,1.62,0,0,1-1.68,1.07,2.17,2.17,0,0,1-2.23-2.18h6.32c0-3.11-1.49-5.25-4.3-5.25a4.32,4.32,0,0,0-4.3,4.59A4.31,4.31,0,0,0,549.72,22.23Zm-.18-7.42a1.84,1.84,0,0,1,1.85,1.87h-3.88A2,2,0,0,1,549.54,14.81Z"/><path class="af7767a4-8dfa-446f-8023-aabb67b2521a" d="M561.72,9.83h-2.31V22h2.31V17a1.82,1.82,0,0,1,1.77-2A1.45,1.45,0,0,1,565,16.62V22h2.31v-5.7a3,3,0,0,0-3-3.26,2.76,2.76,0,0,0-2.53,1.38h-.06Z"/><path class="af7767a4-8dfa-446f-8023-aabb67b2521a" d="M575.09,22h2.22v-.09c-.2-.15-.3-.54-.3-1.2V16.25c0-2-1.06-3.21-3.67-3.21s-3.69,1.34-3.76,2.87h2.06c.06-.83.59-1.22,1.68-1.22s1.46.4,1.46,1-.66.79-2.11,1c-1.94.27-3.5.88-3.5,2.8,0,1.74,1.26,2.67,3,2.67A2.68,2.68,0,0,0,574.78,21h0A2.44,2.44,0,0,0,575.09,22Zm-2.32-1.41c-.81,0-1.36-.29-1.36-1.11s.6-1.08,1.81-1.36a6.22,6.22,0,0,0,1.61-.51V18.9A1.82,1.82,0,0,1,572.77,20.57Z"/><path class="af7767a4-8dfa-446f-8023-aabb67b2521a" d="M581.55,22h2.21l3-8.72h-2.31l-1.43,4.52c-.26.83-.37,1.39-.37,1.39h0s-.13-.56-.39-1.39l-1.39-4.52h-2.35Z"/><path class="af7767a4-8dfa-446f-8023-aabb67b2521a" d="M592.27,22.23a3.74,3.74,0,0,0,4-2.85h-2.28a1.63,1.63,0,0,1-1.68,1.07A2.17,2.17,0,0,1,590,18.27h6.32c0-3.11-1.49-5.25-4.3-5.25a4.32,4.32,0,0,0-4.3,4.59A4.31,4.31,0,0,0,592.27,22.23Zm-.18-7.42a1.84,1.84,0,0,1,1.85,1.87h-3.88A2,2,0,0,1,592.09,14.81Z"/><path class="af7767a4-8dfa-446f-8023-aabb67b2521a" d="M602,22h2.31V13.26H602Zm0-10.08h2.31V9.83H602Z"/><path class="af7767a4-8dfa-446f-8023-aabb67b2521a" d="M608.88,13.26h-2.26V22h2.31V17a1.82,1.82,0,0,1,1.77-2,1.44,1.44,0,0,1,1.51,1.59V22h2.31v-5.7a3,3,0,0,0-3-3.26,2.82,2.82,0,0,0-2.58,1.43h0Z"/><path class="af7767a4-8dfa-446f-8023-aabb67b2521a" d="M619.11,9.83H616.8V22h2.31V17a1.82,1.82,0,0,1,1.77-2,1.44,1.44,0,0,1,1.51,1.59V22h2.32v-5.7a3,3,0,0,0-3-3.26,2.76,2.76,0,0,0-2.53,1.38h-.06Z"/><path class="af7767a4-8dfa-446f-8023-aabb67b2521a" d="M631.08,22.23A3.74,3.74,0,0,0,635,19.38h-2.28a1.64,1.64,0,0,1-1.69,1.07,2.17,2.17,0,0,1-2.22-2.18h6.32c0-3.11-1.49-5.25-4.3-5.25a4.32,4.32,0,0,0-4.3,4.59A4.31,4.31,0,0,0,631.08,22.23Zm-.19-7.42a1.84,1.84,0,0,1,1.86,1.87h-3.88A1.94,1.94,0,0,1,630.89,14.81Z"/><path class="af7767a4-8dfa-446f-8023-aabb67b2521a" d="M639.31,13.26h-2.23V22h2.31V17.73A2.2,2.2,0,0,1,642,15.25h0v-2a1.36,1.36,0,0,0-.55-.07,2.29,2.29,0,0,0-2.14,1.49h-.05Z"/><path class="af7767a4-8dfa-446f-8023-aabb67b2521a" d="M643.73,18.77h4.61v-2h-4.61Z"/><path class="af7767a4-8dfa-446f-8023-aabb67b2521a" d="M9.44,50h2.31V41.26H9.44Zm0-10.08h2.31V37.83H9.44Z"/><path class="af7767a4-8dfa-446f-8023-aabb67b2521a" d="M13.59,42.79H14.8v5.12C14.8,49.55,16,50,17.16,50c.92,0,1.44,0,1.44,0v-1.7l-.68,0a.76.76,0,0,1-.86-.87V42.79h1.49V41.26H17.06V38.54H14.8v2.72H13.59Z"/><path class="af7767a4-8dfa-446f-8023-aabb67b2521a" d="M24.61,50.23a3.73,3.73,0,0,0,3.94-2.85H26.27a1.62,1.62,0,0,1-1.68,1.07,2.17,2.17,0,0,1-2.23-2.18h6.32c0-3.11-1.49-5.25-4.3-5.25a4.32,4.32,0,0,0-4.3,4.59A4.32,4.32,0,0,0,24.61,50.23Zm-.19-7.42a1.84,1.84,0,0,1,1.85,1.87H22.4A1.93,1.93,0,0,1,24.42,42.81Z"/><path class="af7767a4-8dfa-446f-8023-aabb67b2521a" d="M33.87,50.23a2.91,2.91,0,0,0,2.6-1.39h0V50h2.22V37.83H36.42v4.48h-.05A2.77,2.77,0,0,0,33.9,41c-2.17,0-3.72,1.89-3.72,4.61S31.68,50.23,33.87,50.23Zm.51-1.93c-1.19,0-1.85-1-1.85-2.67s.64-2.74,1.92-2.74c1.48,0,2,1.12,2,2.79S35.76,48.3,34.38,48.3Z"/><path class="af7767a4-8dfa-446f-8023-aabb67b2521a" d="M44.27,42.86h1.19V50h2.32V42.86h1.56v-1.6H47.78v-.65c0-.9.47-1,1.56-1V37.84c-2.23-.24-3.88.51-3.88,2.64v.78H44.27Z"/><path class="af7767a4-8dfa-446f-8023-aabb67b2521a" d="M53.47,41.26H51.24V50h2.32V45.73c0-1.84,1.08-2.64,2.6-2.48h.05v-2a1.36,1.36,0,0,0-.55-.07,2.29,2.29,0,0,0-2.14,1.49h-.05Z"/><path class="af7767a4-8dfa-446f-8023-aabb67b2521a" d="M61.94,50.23a4.61,4.61,0,1,0-4.56-4.6A4.43,4.43,0,0,0,61.94,50.23Zm0-1.76c-1.43,0-2.21-1.14-2.21-2.84s.78-2.86,2.21-2.86,2.21,1.16,2.21,2.86S63.35,48.47,61.94,48.47Z"/><path class="af7767a4-8dfa-446f-8023-aabb67b2521a" d="M68.41,50h2.32V44.91c0-1.15.62-1.9,1.56-1.9s1.34.51,1.34,1.5V50h2.31V44.91c0-1.15.6-1.9,1.57-1.9s1.34.51,1.34,1.5V50h2.31V44.11c0-1.9-1-3.09-2.87-3.09a3.06,3.06,0,0,0-2.62,1.53h0A2.61,2.61,0,0,0,73.22,41a2.85,2.85,0,0,0-2.53,1.41h0V41.26H68.41Z"/><path class="af7767a4-8dfa-446f-8023-aabb67b2521a" d="M91.28,50.23a4.61,4.61,0,1,0-4.56-4.6A4.43,4.43,0,0,0,91.28,50.23Zm0-1.76c-1.43,0-2.21-1.14-2.21-2.84s.78-2.86,2.21-2.86,2.21,1.16,2.21,2.86S92.69,48.47,91.28,48.47Z"/><path class="af7767a4-8dfa-446f-8023-aabb67b2521a" d="M105.49,50V41.26h-2.31v5a1.76,1.76,0,0,1-1.75,2c-1,0-1.45-.56-1.45-1.58V41.26H97.69v5.81a2.85,2.85,0,0,0,3,3.15,2.79,2.79,0,0,0,2.5-1.26h.05v1Z"/><path class="af7767a4-8dfa-446f-8023-aabb67b2521a" d="M110.06,41.26h-2.22V50h2.31V45.73c0-1.84,1.09-2.64,2.6-2.48h0v-2a1.33,1.33,0,0,0-.54-.07,2.3,2.3,0,0,0-2.15,1.49h0Z"/><path class="af7767a4-8dfa-446f-8023-aabb67b2521a" d="M123.85,50h2.23v-.09c-.21-.15-.31-.54-.31-1.2V44.25c0-2-1-3.21-3.67-3.21s-3.69,1.34-3.76,2.87h2.06c.07-.83.59-1.22,1.68-1.22s1.46.4,1.46,1-.66.79-2.1,1c-1.94.27-3.51.88-3.51,2.8,0,1.74,1.26,2.67,3,2.67A2.67,2.67,0,0,0,123.54,49h0A2.3,2.3,0,0,0,123.85,50Zm-2.31-1.41c-.82,0-1.36-.29-1.36-1.11s.59-1.08,1.8-1.36a6.17,6.17,0,0,0,1.62-.51V46.9A1.83,1.83,0,0,1,121.54,48.57Z"/><path class="af7767a4-8dfa-446f-8023-aabb67b2521a" d="M130.34,41.26h-2.26V50h2.32V45a1.81,1.81,0,0,1,1.76-2,1.45,1.45,0,0,1,1.52,1.59V50H136v-5.7A3,3,0,0,0,133,41a2.81,2.81,0,0,0-2.58,1.43h-.06Z"/><path class="af7767a4-8dfa-446f-8023-aabb67b2521a" d="M142.31,50.23a3.65,3.65,0,0,0,3.93-3.33H144a1.62,1.62,0,0,1-1.75,1.48c-1.41,0-2.07-1.1-2.07-2.75s.71-2.76,2.11-2.76a1.59,1.59,0,0,1,1.59,1.35h2.26a3.7,3.7,0,0,0-4-3.2,4.3,4.3,0,0,0-4.35,4.61A4.33,4.33,0,0,0,142.31,50.23Z"/><path class="af7767a4-8dfa-446f-8023-aabb67b2521a" d="M152.19,50.23a3.73,3.73,0,0,0,3.94-2.85h-2.28a1.62,1.62,0,0,1-1.68,1.07A2.16,2.16,0,0,1,150,46.27h6.32c0-3.11-1.5-5.25-4.3-5.25a4.32,4.32,0,0,0-4.3,4.59A4.31,4.31,0,0,0,152.19,50.23ZM152,42.81a1.83,1.83,0,0,1,1.85,1.87H150A1.94,1.94,0,0,1,152,42.81Z"/><path class="af7767a4-8dfa-446f-8023-aabb67b2521a" d="M161.73,50.23c2.17,0,3.67-1,3.67-2.8,0-2-1.62-2.45-3.08-2.75-1.24-.26-2.4-.33-2.4-1.08s.6-1,1.5-1,1.58.34,1.68,1.27h2.09C165,42.16,163.75,41,161.45,41c-2,0-3.55.9-3.55,2.79s1.53,2.33,3.1,2.63c1.19.24,2.29.33,2.29,1.16,0,.61-.58,1-1.6,1a1.67,1.67,0,0,1-1.9-1.44h-2.14C157.78,49,159.19,50.23,161.73,50.23Z"/><path class="af7767a4-8dfa-446f-8023-aabb67b2521a" d="M166.61,42.79h1.2v5.12c0,1.64,1.24,2.09,2.36,2.09.92,0,1.45,0,1.45,0v-1.7l-.68,0a.77.77,0,0,1-.87-.87V42.79h1.5V41.26h-1.5V38.54h-2.26v2.72h-1.2Z"/><path class="af7767a4-8dfa-446f-8023-aabb67b2521a" d="M177.65,50.23a4.61,4.61,0,1,0-4.55-4.6A4.43,4.43,0,0,0,177.65,50.23Zm0-1.76c-1.42,0-2.2-1.14-2.2-2.84s.78-2.86,2.2-2.86,2.21,1.16,2.21,2.86S179.07,48.47,177.65,48.47Z"/><path class="af7767a4-8dfa-446f-8023-aabb67b2521a" d="M186.36,41.26h-2.23V50h2.31V45.73c0-1.84,1.09-2.64,2.6-2.48h.06v-2a1.36,1.36,0,0,0-.55-.07,2.29,2.29,0,0,0-2.14,1.49h0Z"/><path class="af7767a4-8dfa-446f-8023-aabb67b2521a" d="M194.48,50.23c2.18,0,3.68-1,3.68-2.8,0-2-1.62-2.45-3.08-2.75-1.24-.26-2.4-.33-2.4-1.08s.6-1,1.5-1,1.58.34,1.68,1.27H198c-.17-1.75-1.44-2.89-3.74-2.89-2,0-3.55.9-3.55,2.79s1.53,2.33,3.09,2.63c1.19.24,2.3.33,2.3,1.16,0,.61-.58,1-1.6,1a1.67,1.67,0,0,1-1.9-1.44h-2.14C190.54,49,192,50.23,194.48,50.23Z"/><path class="af7767a4-8dfa-446f-8023-aabb67b2521a" d="M203.24,42.79h1.21v5.12c0,1.64,1.24,2.09,2.36,2.09.92,0,1.44,0,1.44,0v-1.7l-.68,0a.76.76,0,0,1-.86-.87V42.79h1.49V41.26h-1.49V38.54h-2.26v2.72h-1.21Z"/><path class="af7767a4-8dfa-446f-8023-aabb67b2521a" d="M214.29,50.23a4.61,4.61,0,1,0-4.56-4.6A4.43,4.43,0,0,0,214.29,50.23Zm0-1.76c-1.43,0-2.21-1.14-2.21-2.84s.78-2.86,2.21-2.86,2.21,1.16,2.21,2.86S215.7,48.47,214.29,48.47Z"/><path class="af7767a4-8dfa-446f-8023-aabb67b2521a" d="M222.38,50h2.09l1.19-4.28.41-1.52h0l.39,1.52L227.65,50h2.11l2.6-8.72h-2.24l-1.11,4c-.19.72-.39,1.64-.39,1.64h0l-.41-1.65-1.14-4h-2l-1.09,4c-.19.71-.37,1.65-.37,1.65h0s-.2-.92-.39-1.64l-1.05-4h-2.3Z"/><path class="af7767a4-8dfa-446f-8023-aabb67b2521a" d="M239.26,50h2.23v-.09c-.21-.15-.31-.54-.31-1.2V44.25c0-2-1.05-3.21-3.67-3.21s-3.69,1.34-3.76,2.87h2.06c.07-.83.6-1.22,1.68-1.22s1.47.4,1.47,1-.67.79-2.11,1c-1.94.27-3.5.88-3.5,2.8,0,1.74,1.25,2.67,3,2.67A2.69,2.69,0,0,0,239,49h0A2.46,2.46,0,0,0,239.26,50ZM237,48.57c-.82,0-1.36-.29-1.36-1.11s.6-1.08,1.8-1.36a6.17,6.17,0,0,0,1.62-.51V46.9A1.82,1.82,0,0,1,237,48.57Z"/><path class="af7767a4-8dfa-446f-8023-aabb67b2521a" d="M245.72,41.26H243.5V50h2.31V45.73c0-1.84,1.08-2.64,2.6-2.48h.05v-2a1.36,1.36,0,0,0-.55-.07,2.29,2.29,0,0,0-2.14,1.49h-.05Z"/><path class="af7767a4-8dfa-446f-8023-aabb67b2521a" d="M253.32,50.23a2.91,2.91,0,0,0,2.6-1.39h0V50h2.22V37.83h-2.31v4.48h-.05A2.77,2.77,0,0,0,253.35,41c-2.17,0-3.72,1.89-3.72,4.61S251.13,50.23,253.32,50.23Zm.51-1.93c-1.19,0-1.85-1-1.85-2.67s.64-2.74,1.92-2.74c1.48,0,2,1.12,2,2.79S255.21,48.3,253.83,48.3Z"/><path class="af7767a4-8dfa-446f-8023-aabb67b2521a" d="M264.06,50.23c2.18,0,3.68-1,3.68-2.8,0-2-1.62-2.45-3.08-2.75-1.24-.26-2.4-.33-2.4-1.08s.6-1,1.5-1,1.58.34,1.68,1.27h2.09c-.17-1.75-1.44-2.89-3.74-2.89-2,0-3.55.9-3.55,2.79s1.53,2.33,3.09,2.63c1.19.24,2.3.33,2.3,1.16,0,.61-.58,1-1.6,1a1.67,1.67,0,0,1-1.9-1.44H260C260.12,49,261.53,50.23,264.06,50.23Z"/><path class="af7767a4-8dfa-446f-8023-aabb67b2521a" d="M275.64,37.83h-2.31V50h2.31V45a1.82,1.82,0,0,1,1.77-2,1.44,1.44,0,0,1,1.51,1.59V50h2.31v-5.7a3,3,0,0,0-3-3.26,2.79,2.79,0,0,0-2.54,1.38h-.05Z"/><path class="af7767a4-8dfa-446f-8023-aabb67b2521a" d="M287.61,50.23a3.73,3.73,0,0,0,3.94-2.85h-2.27a1.64,1.64,0,0,1-1.69,1.07,2.16,2.16,0,0,1-2.22-2.18h6.32c0-3.11-1.5-5.25-4.3-5.25a4.32,4.32,0,0,0-4.3,4.59A4.31,4.31,0,0,0,287.61,50.23Zm-.19-7.42a1.84,1.84,0,0,1,1.86,1.87H285.4A1.94,1.94,0,0,1,287.42,42.81Z"/><path class="af7767a4-8dfa-446f-8023-aabb67b2521a" d="M293.64,50H296V37.83h-2.32Z"/><path class="af7767a4-8dfa-446f-8023-aabb67b2521a" d="M298.34,52.83h2.31V49h0a2.81,2.81,0,0,0,2.52,1.24c2.24,0,3.77-1.78,3.77-4.6S305.49,41,303.18,41a3.06,3.06,0,0,0-2.57,1.33h-.05V41.26h-2.22Zm4.37-4.52c-1.38,0-2.11-1-2.11-2.61s.58-2.81,2-2.81,2,1.16,2,2.81S303.88,48.31,302.71,48.31Z"/><path class="af7767a4-8dfa-446f-8023-aabb67b2521a" d="M308.89,50h2.32V41.26h-2.32Zm0-10.08h2.32V37.83h-2.32Z"/><path class="af7767a4-8dfa-446f-8023-aabb67b2521a" d="M315.81,41.26h-2.26V50h2.31V45a1.82,1.82,0,0,1,1.77-2,1.44,1.44,0,0,1,1.51,1.59V50h2.32v-5.7a3,3,0,0,0-3-3.26,2.84,2.84,0,0,0-2.59,1.43h-.05Z"/><path class="af7767a4-8dfa-446f-8023-aabb67b2521a" d="M327.58,53a4.55,4.55,0,0,0,3.14-1,3.38,3.38,0,0,0,1-2.65V41.26h-2.23v.92h0A2.83,2.83,0,0,0,327.08,41c-2.21,0-3.77,1.67-3.77,4.27a3.92,3.92,0,0,0,3.84,4.16,2.81,2.81,0,0,0,2.28-1h.05v1c0,1.19-.63,1.82-1.94,1.82-1.07,0-1.56-.42-1.75-1H323.5C323.73,51.93,325.2,53,327.58,53Zm0-5.35c-1.19,0-2-.87-2-2.35s.78-2.38,2-2.38a2.1,2.1,0,0,1,2.07,2.37C329.6,46.53,329,47.6,327.54,47.6Z"/><path class="af7767a4-8dfa-446f-8023-aabb67b2521a" d="M337.3,42.79h1.21v5.12c0,1.64,1.24,2.09,2.36,2.09.92,0,1.44,0,1.44,0v-1.7l-.67,0a.77.77,0,0,1-.87-.87V42.79h1.49V41.26h-1.49V38.54h-2.26v2.72H337.3Z"/><path class="af7767a4-8dfa-446f-8023-aabb67b2521a" d="M348.35,50.23a4.61,4.61,0,1,0-4.56-4.6A4.43,4.43,0,0,0,348.35,50.23Zm0-1.76c-1.43,0-2.21-1.14-2.21-2.84s.78-2.86,2.21-2.86,2.21,1.16,2.21,2.86S349.76,48.47,348.35,48.47Z"/><path class="af7767a4-8dfa-446f-8023-aabb67b2521a" d="M364,50h2.23v-.09c-.2-.15-.31-.54-.31-1.2V44.25c0-2-1.05-3.21-3.67-3.21s-3.69,1.34-3.75,2.87h2.05c.07-.83.6-1.22,1.69-1.22s1.46.4,1.46,1-.67.79-2.11,1c-1.94.27-3.5.88-3.5,2.8,0,1.74,1.26,2.67,3,2.67A2.68,2.68,0,0,0,363.72,49h0A2.46,2.46,0,0,0,364,50Zm-2.31-1.41c-.81,0-1.36-.29-1.36-1.11s.6-1.08,1.8-1.36a6.17,6.17,0,0,0,1.62-.51V46.9A1.82,1.82,0,0,1,361.71,48.57Z"/><path class="af7767a4-8dfa-446f-8023-aabb67b2521a" d="M372.3,50.23a3.65,3.65,0,0,0,3.93-3.33H374a1.62,1.62,0,0,1-1.75,1.48c-1.41,0-2.07-1.1-2.07-2.75s.71-2.76,2.11-2.76a1.59,1.59,0,0,1,1.59,1.35h2.26a3.7,3.7,0,0,0-4-3.2,4.3,4.3,0,0,0-4.35,4.61A4.33,4.33,0,0,0,372.3,50.23Z"/><path class="af7767a4-8dfa-446f-8023-aabb67b2521a" d="M380.39,37.83h-2.31V50h2.31V45a1.82,1.82,0,0,1,1.77-2,1.45,1.45,0,0,1,1.52,1.59V50H386v-5.7A3,3,0,0,0,383,41a2.76,2.76,0,0,0-2.53,1.38h-.06Z"/><path class="af7767a4-8dfa-446f-8023-aabb67b2521a" d="M388.27,50h2.31V41.26h-2.31Zm0-10.08h2.31V37.83h-2.31Z"/><path class="af7767a4-8dfa-446f-8023-aabb67b2521a" d="M397,50.23A3.73,3.73,0,0,0,401,47.38h-2.27A1.64,1.64,0,0,1,397,48.45a2.16,2.16,0,0,1-2.22-2.18h6.32c0-3.11-1.5-5.25-4.3-5.25a4.32,4.32,0,0,0-4.3,4.59A4.31,4.31,0,0,0,397,50.23Zm-.19-7.42a1.84,1.84,0,0,1,1.86,1.87h-3.88A1.94,1.94,0,0,1,396.83,42.81Z"/><path class="af7767a4-8dfa-446f-8023-aabb67b2521a" d="M405.16,50h2.21l3.05-8.72H408.1l-1.42,4.52c-.26.83-.38,1.39-.38,1.39h0s-.14-.56-.39-1.39l-1.4-4.52h-2.34Z"/><path class="af7767a4-8dfa-446f-8023-aabb67b2521a" d="M415.89,50.23a3.73,3.73,0,0,0,3.94-2.85h-2.27a1.64,1.64,0,0,1-1.69,1.07,2.16,2.16,0,0,1-2.22-2.18H420c0-3.11-1.5-5.25-4.3-5.25a4.32,4.32,0,0,0-4.3,4.59A4.31,4.31,0,0,0,415.89,50.23Zm-.19-7.42a1.84,1.84,0,0,1,1.86,1.87h-3.88A1.94,1.94,0,0,1,415.7,42.81Z"/><path class="af7767a4-8dfa-446f-8023-aabb67b2521a" d="M431.09,50h2.22v-.09c-.2-.15-.3-.54-.3-1.2V44.25c0-2-1.05-3.21-3.67-3.21s-3.69,1.34-3.76,2.87h2.06c.07-.83.59-1.22,1.68-1.22s1.46.4,1.46,1-.66.79-2.11,1c-1.93.27-3.5.88-3.5,2.8,0,1.74,1.26,2.67,3.05,2.67A2.67,2.67,0,0,0,430.78,49h0A2.3,2.3,0,0,0,431.09,50Zm-2.31-1.41c-.82,0-1.36-.29-1.36-1.11s.59-1.08,1.8-1.36a6,6,0,0,0,1.61-.51V46.9A1.82,1.82,0,0,1,428.78,48.57Z"/><path class="af7767a4-8dfa-446f-8023-aabb67b2521a" d="M437.58,41.26h-2.26V50h2.31V45a1.82,1.82,0,0,1,1.77-2,1.44,1.44,0,0,1,1.51,1.59V50h2.32v-5.7a3,3,0,0,0-3-3.26,2.84,2.84,0,0,0-2.59,1.43h-.05Z"/><path class="af7767a4-8dfa-446f-8023-aabb67b2521a" d="M453.31,50.23a3.73,3.73,0,0,0,3.94-2.85H455a1.62,1.62,0,0,1-1.68,1.07,2.17,2.17,0,0,1-2.23-2.18h6.33c0-3.11-1.5-5.25-4.3-5.25a4.32,4.32,0,0,0-4.3,4.59A4.31,4.31,0,0,0,453.31,50.23Zm-.19-7.42A1.84,1.84,0,0,1,455,44.68H451.1A1.94,1.94,0,0,1,453.12,42.81Z"/><path class="af7767a4-8dfa-446f-8023-aabb67b2521a" d="M461.57,41.26h-2.26V50h2.31V45a1.82,1.82,0,0,1,1.77-2,1.44,1.44,0,0,1,1.51,1.59V50h2.31v-5.7a3,3,0,0,0-3-3.26,2.81,2.81,0,0,0-2.58,1.43h-.05Z"/><path class="af7767a4-8dfa-446f-8023-aabb67b2521a" d="M472.75,50.23a2.91,2.91,0,0,0,2.61-1.39h0V50h2.23V37.83H475.3v4.48h-.05A2.75,2.75,0,0,0,472.79,41c-2.18,0-3.72,1.89-3.72,4.61S470.56,50.23,472.75,50.23Zm.51-1.93c-1.19,0-1.85-1-1.85-2.67s.65-2.74,1.92-2.74c1.48,0,2,1.12,2,2.79S474.64,48.3,473.26,48.3Z"/><path class="af7767a4-8dfa-446f-8023-aabb67b2521a" d="M487.7,50V41.26h-2.31v5a1.76,1.76,0,0,1-1.76,2c-1,0-1.44-.56-1.44-1.58V41.26H479.9v5.81a2.84,2.84,0,0,0,3,3.15,2.81,2.81,0,0,0,2.5-1.26h.05v1Z"/><path class="af7767a4-8dfa-446f-8023-aabb67b2521a" d="M492.27,41.26H490V50h2.32V45.73c0-1.84,1.08-2.64,2.6-2.48H495v-2a1.36,1.36,0,0,0-.55-.07,2.29,2.29,0,0,0-2.14,1.49h-.05Z"/><path class="af7767a4-8dfa-446f-8023-aabb67b2521a" d="M496.86,50h2.31V41.26h-2.31Zm0-10.08h2.31V37.83h-2.31Z"/><path class="af7767a4-8dfa-446f-8023-aabb67b2521a" d="M503.78,41.26h-2.26V50h2.31V45a1.82,1.82,0,0,1,1.77-2,1.44,1.44,0,0,1,1.51,1.59V50h2.31v-5.7a3,3,0,0,0-3-3.26,2.82,2.82,0,0,0-2.58,1.43h-.05Z"/><path class="af7767a4-8dfa-446f-8023-aabb67b2521a" d="M515.54,53a4.56,4.56,0,0,0,3.15-1,3.41,3.41,0,0,0,1-2.65V41.26H517.5v.92h0A2.8,2.8,0,0,0,515.05,41c-2.21,0-3.77,1.67-3.77,4.27a3.92,3.92,0,0,0,3.84,4.16,2.82,2.82,0,0,0,2.28-1h.05v1c0,1.19-.63,1.82-1.94,1.82-1.07,0-1.56-.42-1.75-1h-2.3C511.7,51.93,513.16,53,515.54,53Zm0-5.35c-1.19,0-2-.87-2-2.35s.78-2.38,2-2.38a2.1,2.1,0,0,1,2.08,2.37C517.57,46.53,517,47.6,515.51,47.6Z"/><path class="af7767a4-8dfa-446f-8023-aabb67b2521a" d="M529.31,50.23c2.18,0,3.68-1,3.68-2.8,0-2-1.62-2.45-3.08-2.75-1.24-.26-2.4-.33-2.4-1.08s.6-1,1.5-1,1.58.34,1.68,1.27h2.09C532.61,42.16,531.34,41,529,41c-2,0-3.55.9-3.55,2.79s1.53,2.33,3.09,2.63c1.19.24,2.3.33,2.3,1.16,0,.61-.58,1-1.6,1a1.67,1.67,0,0,1-1.9-1.44h-2.15C525.37,49,526.78,50.23,529.31,50.23Z"/><path class="af7767a4-8dfa-446f-8023-aabb67b2521a" d="M539.09,50.23a4.61,4.61,0,1,0-4.56-4.6A4.43,4.43,0,0,0,539.09,50.23Zm0-1.76c-1.43,0-2.21-1.14-2.21-2.84s.78-2.86,2.21-2.86,2.21,1.16,2.21,2.86S540.5,48.47,539.09,48.47Z"/><path class="af7767a4-8dfa-446f-8023-aabb67b2521a" d="M549.61,50.23a3.65,3.65,0,0,0,3.93-3.33h-2.23a1.63,1.63,0,0,1-1.75,1.48c-1.41,0-2.07-1.1-2.07-2.75s.71-2.76,2.1-2.76a1.6,1.6,0,0,1,1.6,1.35h2.26a3.7,3.7,0,0,0-4-3.2,4.3,4.3,0,0,0-4.35,4.61A4.33,4.33,0,0,0,549.61,50.23Z"/><path class="af7767a4-8dfa-446f-8023-aabb67b2521a" d="M555.39,50h2.31V41.26h-2.31Zm0-10.08h2.31V37.83h-2.31Z"/><path class="af7767a4-8dfa-446f-8023-aabb67b2521a" d="M564.15,50.23a3.73,3.73,0,0,0,3.94-2.85h-2.28a1.62,1.62,0,0,1-1.68,1.07,2.17,2.17,0,0,1-2.23-2.18h6.33c0-3.11-1.5-5.25-4.31-5.25a4.32,4.32,0,0,0-4.3,4.59A4.32,4.32,0,0,0,564.15,50.23ZM564,42.81a1.84,1.84,0,0,1,1.85,1.87h-3.87A1.94,1.94,0,0,1,564,42.81Z"/><path class="af7767a4-8dfa-446f-8023-aabb67b2521a" d="M569.47,42.79h1.2v5.12c0,1.64,1.25,2.09,2.37,2.09.91,0,1.44,0,1.44,0v-1.7l-.68,0a.77.77,0,0,1-.87-.87V42.79h1.5V41.26h-1.5V38.54h-2.26v2.72h-1.2Z"/><path class="af7767a4-8dfa-446f-8023-aabb67b2521a" d="M576.83,52.83h1.36c1.77,0,2.41-.69,3.07-2.63l3-8.94H582l-1.23,3.93c-.27.79-.51,1.9-.51,1.9h0s-.29-1.11-.56-1.9l-1.29-3.93h-2.43l2.34,6.2a7.46,7.46,0,0,1,.67,2.37c0,.71-.38,1.19-1.3,1.19h-.81Z"/><path class="af7767a4-8dfa-446f-8023-aabb67b2521a" d="M584.87,50h2.48V47.51h-2.48Z"/></svg>