<svg id="adf03d5e-0f43-4738-932c-86bdc8526799" data-name="レイヤー 1" xmlns="http://www.w3.org/2000/svg" width="654" height="60"><path d="M25.4,9.83H23l-1.53,6-.6,2.67h0s-.31-1.53-.56-2.6L18.92,9.83H16.54l-1.32,6.1c-.26,1.07-.56,2.58-.56,2.58h0s-.29-1.61-.52-2.65l-1.58-6H10L13.54,22h2.27l1.5-6.51c.2-.89.39-2.16.39-2.16h0s.23,1.27.43,2.16L19.64,22h2.29Zm4.85,12.4a3.73,3.73,0,0,0,3.94-2.85H31.91a1.62,1.62,0,0,1-1.68,1.07A2.17,2.17,0,0,1,28,18.27h6.33c0-3.11-1.5-5.25-4.3-5.25a4.32,4.32,0,0,0-4.31,4.59A4.32,4.32,0,0,0,30.25,22.23Zm-.19-7.42a1.84,1.84,0,0,1,1.85,1.87H28A1.94,1.94,0,0,1,30.06,14.81ZM49.87,13a3,3,0,0,0-2.62,1.53h0A2.61,2.61,0,0,0,44.8,13a2.83,2.83,0,0,0-2.53,1.41h-.05V13.26H40V22H42.3V16.91c0-1.15.63-1.9,1.57-1.9s1.34.51,1.34,1.5V22h2.31V16.91c0-1.15.6-1.9,1.57-1.9s1.34.51,1.34,1.5V22h2.31V16.11C52.74,14.21,51.7,13,49.87,13ZM58,22.22A2.81,2.81,0,0,0,60.48,21h.05v1h2.22V13.26H60.44v5a1.76,1.76,0,0,1-1.75,2c-1,0-1.44-.56-1.44-1.58V13.26H55v5.81A2.85,2.85,0,0,0,58,22.22ZM68.6,20.6a1.67,1.67,0,0,1-1.9-1.44H64.56c.13,1.85,1.54,3.07,4.08,3.07,2.17,0,3.67-1.05,3.67-2.8,0-2-1.62-2.45-3.08-2.75-1.24-.26-2.4-.33-2.4-1.08s.6-1,1.5-1S69.91,15,70,15.91H72.1C71.93,14.16,70.66,13,68.36,13c-2,0-3.55.9-3.55,2.79s1.53,2.33,3.09,2.63c1.19.24,2.3.33,2.3,1.16C70.2,20.21,69.62,20.6,68.6,20.6Zm6.12-.69C74.72,21.55,76,22,77.08,22c.92,0,1.45,0,1.45,0v-1.7l-.68,0a.77.77,0,0,1-.87-.87V14.79h1.5V13.26H77V10.54H74.72v2.72h-1.2v1.53h1.2ZM86.57,21h0a2.79,2.79,0,0,0,2.51,1.24c2.25,0,3.78-1.78,3.78-4.6S91.42,13,89.11,13a3,3,0,0,0-2.57,1.33h-.05V13.26H84.26V24.83h2.31Zm2-6.1c1.42,0,2,1.16,2,2.81s-.75,2.61-1.92,2.61c-1.38,0-2.11-1-2.11-2.61S87.1,14.89,88.55,14.89Zm8.58,2.84c0-1.84,1.09-2.64,2.6-2.48h0v-2a1.3,1.3,0,0,0-.54-.07,2.28,2.28,0,0,0-2.14,1.49h0V13.26H94.82V22h2.31Zm12.94-.1a4.56,4.56,0,1,0-9.11,0,4.56,4.56,0,1,0,9.11,0Zm-4.56,2.84c-1.43,0-2.21-1.14-2.21-2.84s.78-2.86,2.21-2.86,2.21,1.16,2.21,2.86S106.92,20.47,105.51,20.47Zm11.7.54a2.3,2.3,0,0,0,.27,1h2.23v-.09c-.21-.15-.31-.54-.31-1.2V16.25c0-2-1.05-3.21-3.67-3.21S112,14.38,112,15.91H114c.07-.83.59-1.22,1.68-1.22s1.46.4,1.46,1-.66.79-2.1,1c-1.94.27-3.51.88-3.51,2.8,0,1.74,1.26,2.67,3,2.67A2.67,2.67,0,0,0,117.17,21Zm-2-.44c-.82,0-1.36-.29-1.36-1.11s.59-1.08,1.8-1.36a6,6,0,0,0,1.61-.51V18.9A1.82,1.82,0,0,1,115.17,20.57Zm14.52-1.67h-2.23a1.63,1.63,0,0,1-1.75,1.48c-1.41,0-2.08-1.1-2.08-2.75s.72-2.76,2.11-2.76a1.6,1.6,0,0,1,1.6,1.35h2.26a3.71,3.71,0,0,0-4-3.2,4.3,4.3,0,0,0-4.35,4.61,4.33,4.33,0,0,0,4.47,4.6A3.65,3.65,0,0,0,129.69,18.9Zm4.81.51V14.79H136V13.26H134.5V10.54h-2.26v2.72H131v1.53h1.21v5.12c0,1.64,1.24,2.09,2.36,2.09.92,0,1.44,0,1.44,0v-1.7l-.68,0A.76.76,0,0,1,134.5,19.41ZM138,11.9h2.31V9.83H138ZM138,22h2.31V13.26H138Zm8.49-4.2c-.26.83-.38,1.39-.38,1.39h0s-.14-.56-.39-1.39l-1.4-4.52H142L145,22h2.21l3-8.72h-2.31Zm13.15,1.6H157.4a1.64,1.64,0,0,1-1.69,1.07,2.16,2.16,0,0,1-2.22-2.18h6.32c0-3.11-1.5-5.25-4.3-5.25a4.32,4.32,0,0,0-4.3,4.59,4.31,4.31,0,0,0,4.52,4.62A3.73,3.73,0,0,0,159.67,19.38Zm-4.13-4.57a1.84,1.84,0,0,1,1.86,1.87h-3.88A1.94,1.94,0,0,1,155.54,14.81ZM161.76,22h2.32V9.83h-2.32Zm12.36-8.72h-2.33l-1.22,3.93c-.27.79-.51,1.9-.51,1.9h0s-.29-1.11-.57-1.9l-1.29-3.93h-2.43l2.35,6.2a7.63,7.63,0,0,1,.66,2.37c0,.71-.37,1.19-1.29,1.19h-.82v1.81H168c1.77,0,2.42-.69,3.08-2.63ZM184,22v-1.7l-.68,0a.76.76,0,0,1-.86-.87V14.79H184V13.26h-1.49V10.54H180.2v2.72H179v1.53h1.21v5.12c0,1.64,1.24,2.09,2.36,2.09C183.48,22,184,22,184,22Zm9.79-.07c-.2-.15-.3-.54-.3-1.2V16.25c0-2-1.06-3.21-3.67-3.21s-3.69,1.34-3.76,2.87h2.06c.07-.83.59-1.22,1.68-1.22s1.46.4,1.46,1-.66.79-2.11,1c-1.93.27-3.5.88-3.5,2.8,0,1.74,1.26,2.67,3,2.67A2.67,2.67,0,0,0,191.26,21h0a2.3,2.3,0,0,0,.27,1h2.22Zm-2.48-3a1.82,1.82,0,0,1-2.05,1.67c-.82,0-1.36-.29-1.36-1.11s.59-1.08,1.8-1.36a6.1,6.1,0,0,0,1.61-.51Zm9.44-2.33L204,13.26h-2.77l-3.09,3.3V9.83h-2.3V22h2.3V19l1-1,2.45,4h2.8Zm8.68,5.66a3.74,3.74,0,0,0,3.95-2.85H211.1a1.62,1.62,0,0,1-1.68,1.07,2.17,2.17,0,0,1-2.23-2.18h6.32c0-3.11-1.49-5.25-4.3-5.25a4.32,4.32,0,0,0-4.3,4.59A4.31,4.31,0,0,0,209.43,22.23Zm-.18-7.42a1.84,1.84,0,0,1,1.85,1.87h-3.88A2,2,0,0,1,209.25,14.81Zm18.62,2.82a4.56,4.56,0,1,0-9.12,0,4.56,4.56,0,1,0,9.12,0Zm-4.56,2.84c-1.43,0-2.21-1.14-2.21-2.84s.78-2.86,2.21-2.86,2.21,1.16,2.21,2.86S224.72,20.47,223.31,20.47ZM232.1,17a1.82,1.82,0,0,1,1.77-2,1.44,1.44,0,0,1,1.51,1.59V22h2.31v-5.7a3,3,0,0,0-3-3.26,2.81,2.81,0,0,0-2.58,1.43h0V13.26h-2.26V22h2.31Zm12.31,2.88c0,1.64,1.24,2.09,2.36,2.09.92,0,1.45,0,1.45,0v-1.7l-.68,0a.77.77,0,0,1-.87-.87V14.79h1.5V13.26h-1.5V10.54h-2.26v2.72H243.2v1.53h1.21ZM252.52,17a1.82,1.82,0,0,1,1.77-2,1.44,1.44,0,0,1,1.51,1.59V22h2.31v-5.7a3,3,0,0,0-3-3.26,2.77,2.77,0,0,0-2.53,1.38h0V9.83h-2.31V22h2.31Zm12,5.2a3.73,3.73,0,0,0,3.94-2.85h-2.28a1.62,1.62,0,0,1-1.68,1.07,2.17,2.17,0,0,1-2.23-2.18h6.33c0-3.11-1.5-5.25-4.3-5.25a4.32,4.32,0,0,0-4.3,4.59A4.31,4.31,0,0,0,264.49,22.23Zm-.19-7.42a1.84,1.84,0,0,1,1.85,1.87h-3.87A1.94,1.94,0,0,1,264.3,14.81Zm13.43,5.79a1.67,1.67,0,0,1-1.9-1.44h-2.14c.13,1.85,1.54,3.07,4.08,3.07,2.17,0,3.67-1.05,3.67-2.8,0-2-1.62-2.45-3.08-2.75-1.24-.26-2.39-.33-2.39-1.08s.59-1,1.49-1,1.58.34,1.68,1.27h2.1c-.18-1.75-1.45-2.89-3.74-2.89-2,0-3.56.9-3.56,2.79s1.53,2.33,3.1,2.63c1.19.24,2.29.33,2.29,1.16C279.33,20.21,278.75,20.6,277.73,20.6Zm9.81,1.63a4.43,4.43,0,0,0,4.56-4.6,4.56,4.56,0,1,0-9.11,0A4.43,4.43,0,0,0,287.54,22.23Zm0-7.46c1.41,0,2.21,1.16,2.21,2.86s-.8,2.84-2.21,2.84-2.21-1.14-2.21-2.84S286.11,14.77,287.54,14.77Zm10.52,7.46A3.65,3.65,0,0,0,302,18.9h-2.23A1.62,1.62,0,0,1,298,20.38c-1.41,0-2.07-1.1-2.07-2.75s.71-2.76,2.11-2.76a1.61,1.61,0,0,1,1.6,1.35h2.26a3.71,3.71,0,0,0-4-3.2,4.31,4.31,0,0,0-4.36,4.61A4.33,4.33,0,0,0,298.06,22.23Zm8.1-12.4h-2.31V11.9h2.31Zm0,3.43h-2.31V22h2.31Zm9.75,3c0-2-1.05-3.21-3.67-3.21s-3.69,1.34-3.75,2.87h2.05c.07-.83.6-1.22,1.69-1.22s1.46.4,1.46,1-.67.79-2.11,1c-1.94.27-3.5.88-3.5,2.8,0,1.74,1.26,2.67,3,2.67A2.68,2.68,0,0,0,313.69,21h0a2.46,2.46,0,0,0,.27,1h2.23v-.09c-.2-.15-.31-.54-.31-1.2Zm-2.17,2.65a1.82,1.82,0,0,1-2.06,1.67c-.81,0-1.36-.29-1.36-1.11s.6-1.08,1.8-1.36a6.17,6.17,0,0,0,1.62-.51Zm6.83-9.07h-2.31V22h2.31Zm14.1,9.07h-2.23a1.62,1.62,0,0,1-1.75,1.48c-1.41,0-2.07-1.1-2.07-2.75s.71-2.76,2.11-2.76a1.6,1.6,0,0,1,1.59,1.35h2.26a3.7,3.7,0,0,0-4-3.2,4.3,4.3,0,0,0-4.35,4.61,4.33,4.33,0,0,0,4.47,4.6A3.65,3.65,0,0,0,334.67,18.9ZM338.83,17a1.82,1.82,0,0,1,1.77-2,1.44,1.44,0,0,1,1.51,1.59V22h2.32v-5.7a3,3,0,0,0-3-3.26,2.76,2.76,0,0,0-2.53,1.38h-.06V9.83h-2.31V22h2.31Zm13.06,4h0a2.29,2.29,0,0,0,.28,1h2.22v-.09c-.2-.15-.3-.54-.3-1.2V16.25c0-2-1.06-3.21-3.67-3.21s-3.69,1.34-3.76,2.87h2.06c.06-.83.59-1.22,1.68-1.22s1.46.4,1.46,1-.66.79-2.11,1c-1.94.27-3.5.88-3.5,2.8,0,1.74,1.26,2.67,3,2.67A2.68,2.68,0,0,0,351.89,21Zm-3.37-1.55c0-.81.6-1.08,1.81-1.36a6.22,6.22,0,0,0,1.61-.51V18.9a1.82,1.82,0,0,1-2.06,1.67C349.07,20.57,348.52,20.28,348.52,19.46Zm10.25-9.63h-2.31V22h2.31ZM361.19,22h2.31V9.83h-2.31Zm8.57-9a4.32,4.32,0,0,0-4.3,4.59A4.31,4.31,0,0,0,370,22.23a3.73,3.73,0,0,0,3.94-2.85h-2.28A1.62,1.62,0,0,1,370,20.45a2.17,2.17,0,0,1-2.23-2.18h6.33C374.06,15.16,372.56,13,369.76,13Zm-2,3.66a1.94,1.94,0,0,1,2-1.87,1.83,1.83,0,0,1,1.85,1.87ZM380.87,13a2.82,2.82,0,0,0-2.58,1.43h-.05V13.26H376V22h2.31V17a1.82,1.82,0,0,1,1.77-2,1.44,1.44,0,0,1,1.51,1.59V22h2.31v-5.7A3,3,0,0,0,380.87,13ZM392,14.18h0A2.8,2.8,0,0,0,389.51,13c-2.21,0-3.77,1.67-3.77,4.27a3.92,3.92,0,0,0,3.84,4.16,2.82,2.82,0,0,0,2.28-1h.05v.95c0,1.19-.63,1.82-1.94,1.82-1.07,0-1.56-.42-1.75-1h-2.3c.24,1.7,1.7,2.72,4.08,2.72a4.56,4.56,0,0,0,3.15-1,3.41,3.41,0,0,0,1-2.65V13.26H392Zm-2,5.42c-1.19,0-2-.87-2-2.35s.78-2.38,1.95-2.38A2.1,2.1,0,0,1,392,17.24C392,18.53,391.43,19.6,390,19.6ZM400.41,13a4.32,4.32,0,0,0-4.3,4.59,4.31,4.31,0,0,0,4.52,4.62,3.73,3.73,0,0,0,3.94-2.85h-2.28a1.62,1.62,0,0,1-1.68,1.07,2.17,2.17,0,0,1-2.23-2.18h6.33C404.71,15.16,403.21,13,400.41,13Zm-2,3.66a1.94,1.94,0,0,1,2-1.87,1.83,1.83,0,0,1,1.85,1.87Zm12.34,0c-1.24-.26-2.4-.33-2.4-1.08s.6-1,1.5-1,1.58.34,1.68,1.27h2.09c-.17-1.75-1.44-2.89-3.74-2.89-2,0-3.55.9-3.55,2.79s1.53,2.33,3.09,2.63c1.19.24,2.3.33,2.3,1.16,0,.61-.58,1-1.6,1a1.67,1.67,0,0,1-1.9-1.44h-2.14c.13,1.85,1.54,3.07,4.08,3.07,2.17,0,3.67-1.05,3.67-2.8C413.84,17.39,412.22,17,410.76,16.68Zm9.39-4.2v.78H419v1.6h1.19V22h2.31V14.86H424v-1.6h-1.56v-.65c0-.9.48-1,1.56-1V9.84C421.8,9.6,420.15,10.35,420.15,12.48Zm12.93,3.77c0-2-1.05-3.21-3.67-3.21s-3.69,1.34-3.75,2.87h2c.07-.83.6-1.22,1.69-1.22s1.46.4,1.46,1-.67.79-2.11,1c-1.94.27-3.5.88-3.5,2.8,0,1.74,1.26,2.67,3,2.67A2.68,2.68,0,0,0,430.86,21h0a2.46,2.46,0,0,0,.27,1h2.23v-.09c-.2-.15-.31-.54-.31-1.2Zm-2.17,2.65a1.82,1.82,0,0,1-2.06,1.67c-.81,0-1.36-.29-1.36-1.11s.6-1.08,1.8-1.36a6.17,6.17,0,0,0,1.62-.51Zm8.48,1.48c-1.41,0-2.07-1.1-2.07-2.75s.71-2.76,2.11-2.76A1.6,1.6,0,0,1,441,16.22h2.26a3.7,3.7,0,0,0-4-3.2A4.3,4.3,0,0,0,435,17.63a4.33,4.33,0,0,0,4.47,4.6,3.65,3.65,0,0,0,3.93-3.33h-2.23A1.62,1.62,0,0,1,439.39,20.38ZM449.1,13a4.32,4.32,0,0,0-4.3,4.59,4.31,4.31,0,0,0,4.52,4.62,3.73,3.73,0,0,0,3.94-2.85H451a1.62,1.62,0,0,1-1.68,1.07,2.16,2.16,0,0,1-2.22-2.18h6.32C453.4,15.16,451.9,13,449.1,13Zm-2,3.66a1.94,1.94,0,0,1,2-1.87A1.83,1.83,0,0,1,451,16.68Zm14-2.37h-.05A2.75,2.75,0,0,0,458.62,13c-2.18,0-3.72,1.89-3.72,4.61s1.49,4.6,3.68,4.6a2.9,2.9,0,0,0,2.6-1.39h0V22h2.23V9.83h-2.32Zm-2,6c-1.19,0-1.85-1-1.85-2.67s.65-2.74,1.92-2.74c1.48,0,2,1.12,2,2.79S460.47,20.3,459.09,20.3ZM474.33,13a2.71,2.71,0,0,0-2.43,1.29h0V9.83h-2.31V22h2.22V20.89h0a2.88,2.88,0,0,0,2.6,1.34c2.19,0,3.69-1.78,3.69-4.6S476.52,13,474.33,13Zm-.44,7.28c-1.29,0-2.09-1-2.09-2.62s.54-2.79,2-2.79c1.29,0,1.94,1.12,1.94,2.74S475.08,20.3,473.89,20.3Zm10-3.11a17.68,17.68,0,0,0-.51,1.9h0s-.29-1.11-.56-1.9l-1.29-3.93H479l2.34,6.2a7.46,7.46,0,0,1,.67,2.37c0,.71-.38,1.19-1.29,1.19h-.82v1.81h1.36c1.77,0,2.41-.69,3.08-2.63l3-8.94h-2.33Zm11.88,2.22V14.79h1.5V13.26h-1.5V10.54h-2.26v2.72h-1.2v1.53h1.2v5.12c0,1.64,1.24,2.09,2.36,2.09.92,0,1.45,0,1.45,0v-1.7l-.68,0A.77.77,0,0,1,495.75,19.41ZM504.18,13a2.77,2.77,0,0,0-2.53,1.38h0V9.83h-2.31V22h2.31V17a1.82,1.82,0,0,1,1.77-2,1.44,1.44,0,0,1,1.51,1.59V22h2.31v-5.7A3,3,0,0,0,504.18,13Zm9.17,0a4.32,4.32,0,0,0-4.3,4.59,4.31,4.31,0,0,0,4.52,4.62,3.73,3.73,0,0,0,3.94-2.85h-2.28a1.62,1.62,0,0,1-1.68,1.07,2.17,2.17,0,0,1-2.23-2.18h6.33C517.65,15.16,516.15,13,513.35,13Zm-2,3.66a1.94,1.94,0,0,1,2-1.87,1.83,1.83,0,0,1,1.85,1.87ZM528.21,13a2.84,2.84,0,0,0-2.59,1.43h0V13.26h-2.26V22h2.31V17a1.82,1.82,0,0,1,1.77-2,1.45,1.45,0,0,1,1.52,1.59V22h2.31v-5.7A3,3,0,0,0,528.21,13Zm9.16,0a4.32,4.32,0,0,0-4.3,4.59,4.31,4.31,0,0,0,4.52,4.62,3.74,3.74,0,0,0,3.95-2.85h-2.28a1.63,1.63,0,0,1-1.68,1.07,2.17,2.17,0,0,1-2.23-2.18h6.32C541.67,15.16,540.18,13,537.37,13Zm-2,3.66a2,2,0,0,1,2-1.87,1.84,1.84,0,0,1,1.85,1.87Zm15.51-3.42h-2.4L547,15.76h0l-1.54-2.5h-2.64l2.84,4.1L542.47,22H545l1.89-2.89h0L548.54,22h2.75l-3.11-4.64Zm4.76,6.15V14.79h1.49V13.26h-1.49V10.54h-2.26v2.72h-1.21v1.53h1.21v5.12c0,1.64,1.24,2.09,2.36,2.09.92,0,1.44,0,1.44,0v-1.7l-.68,0A.76.76,0,0,1,555.65,19.41Zm13.07-5.23h0A2.83,2.83,0,0,0,566.27,13c-2.2,0-3.77,1.67-3.77,4.27a3.92,3.92,0,0,0,3.84,4.16,2.81,2.81,0,0,0,2.28-1h0v.95c0,1.19-.63,1.82-1.94,1.82-1.07,0-1.56-.42-1.75-1h-2.29c.24,1.7,1.7,2.72,4.08,2.72a4.55,4.55,0,0,0,3.14-1,3.38,3.38,0,0,0,1-2.65V13.26h-2.23Zm-2,5.42c-1.19,0-2-.87-2-2.35s.78-2.38,2-2.38a2.1,2.1,0,0,1,2.07,2.37C568.79,18.53,568.2,19.6,566.73,19.6ZM577.17,13a4.32,4.32,0,0,0-4.3,4.59,4.31,4.31,0,0,0,4.52,4.62,3.74,3.74,0,0,0,4-2.85h-2.28a1.63,1.63,0,0,1-1.68,1.07,2.17,2.17,0,0,1-2.23-2.18h6.32C581.47,15.16,580,13,577.17,13Zm-2,3.66a2,2,0,0,1,2-1.87,1.84,1.84,0,0,1,1.85,1.87ZM588.29,13a2.81,2.81,0,0,0-2.58,1.43h-.06V13.26h-2.26V22h2.32V17a1.81,1.81,0,0,1,1.76-2A1.45,1.45,0,0,1,589,16.62V22h2.31v-5.7A3,3,0,0,0,588.29,13Zm9.16,0a4.32,4.32,0,0,0-4.3,4.59,4.31,4.31,0,0,0,4.52,4.62,3.74,3.74,0,0,0,4-2.85h-2.28a1.63,1.63,0,0,1-1.68,1.07,2.17,2.17,0,0,1-2.23-2.18h6.32C601.75,15.16,600.26,13,597.45,13Zm-2,3.66a2,2,0,0,1,2-1.87,1.84,1.84,0,0,1,1.85,1.87Zm10.49-2h-.05V13.26h-2.23V22H606V17.73c0-1.84,1.08-2.64,2.6-2.48h0v-2a1.36,1.36,0,0,0-.55-.07A2.29,2.29,0,0,0,606,14.65Zm11.7,1.6c0-2-1.06-3.21-3.67-3.21s-3.69,1.34-3.76,2.87h2.06c.06-.83.59-1.22,1.68-1.22s1.46.4,1.46,1-.66.79-2.11,1c-1.93.27-3.5.88-3.5,2.8,0,1.74,1.26,2.67,3,2.67A2.68,2.68,0,0,0,615.42,21h0a2.3,2.3,0,0,0,.27,1H618v-.09c-.2-.15-.3-.54-.3-1.2Zm-2.18,2.65a1.82,1.82,0,0,1-2.05,1.67c-.82,0-1.36-.29-1.36-1.11s.59-1.08,1.8-1.36a6.1,6.1,0,0,0,1.61-.51Zm7.28.51V14.79h1.49V13.26h-1.49V10.54h-2.26v2.72h-1.21v1.53h1.21v5.12c0,1.64,1.24,2.09,2.36,2.09.92,0,1.45,0,1.45,0v-1.7l-.68,0A.77.77,0,0,1,622.75,19.41ZM626.28,22h2.32V13.26h-2.32Zm0-10.08h2.32V9.83h-2.32ZM635.07,13a4.43,4.43,0,0,0-4.55,4.61,4.56,4.56,0,1,0,9.11,0A4.44,4.44,0,0,0,635.07,13Zm0,7.45c-1.42,0-2.21-1.14-2.21-2.84s.79-2.86,2.21-2.86,2.21,1.16,2.21,2.86S636.48,20.47,635.07,20.47ZM646.45,13a2.84,2.84,0,0,0-2.59,1.43h-.05V13.26h-2.26V22h2.31V17a1.82,1.82,0,0,1,1.77-2,1.44,1.44,0,0,1,1.51,1.59V22h2.31v-5.7A3,3,0,0,0,646.45,13ZM18.07,44.25c0-2-1.05-3.21-3.67-3.21s-3.69,1.34-3.75,2.87h2c.07-.83.6-1.22,1.69-1.22s1.46.4,1.46,1-.67.79-2.11,1c-1.94.27-3.5.88-3.5,2.8,0,1.74,1.26,2.67,3,2.67A2.68,2.68,0,0,0,15.85,49h0a2.46,2.46,0,0,0,.27,1h2.23v-.09c-.2-.15-.31-.54-.31-1.2ZM15.9,46.9a1.82,1.82,0,0,1-2.06,1.67c-.81,0-1.36-.29-1.36-1.11s.6-1.08,1.8-1.36a6.17,6.17,0,0,0,1.62-.51ZM25.28,41a2.81,2.81,0,0,0-2.58,1.43h-.05V41.26H20.39V50H22.7V45a1.82,1.82,0,0,1,1.77-2A1.44,1.44,0,0,1,26,44.62V50h2.31v-5.7A3,3,0,0,0,25.28,41Zm11.1,1.29h-.05A2.75,2.75,0,0,0,33.87,41c-2.18,0-3.73,1.89-3.73,4.61s1.5,4.6,3.69,4.6a2.9,2.9,0,0,0,2.6-1.39h0V50h2.22V37.83H36.38Zm-2,6c-1.19,0-1.85-1-1.85-2.67s.65-2.74,1.92-2.74c1.48,0,2,1.12,2,2.79S35.72,48.3,34.34,48.3Zm14.4.08c-1.41,0-2.07-1.1-2.07-2.75s.71-2.76,2.11-2.76a1.59,1.59,0,0,1,1.59,1.35h2.26a3.7,3.7,0,0,0-4-3.2,4.3,4.3,0,0,0-4.35,4.61,4.33,4.33,0,0,0,4.47,4.6,3.65,3.65,0,0,0,3.93-3.33H50.49A1.62,1.62,0,0,1,48.74,48.38ZM58.7,41a4.61,4.61,0,1,0,4.56,4.61A4.43,4.43,0,0,0,58.7,41Zm0,7.45c-1.42,0-2.21-1.14-2.21-2.84s.79-2.86,2.21-2.86,2.21,1.16,2.21,2.86S60.11,48.47,58.7,48.47ZM70.08,41a2.84,2.84,0,0,0-2.59,1.43h0V41.26H65.18V50h2.31V45a1.82,1.82,0,0,1,1.77-2,1.44,1.44,0,0,1,1.51,1.59V50h2.32v-5.7A3,3,0,0,0,70.08,41Zm8.07,6.39V42.79h1.5V41.26h-1.5V38.54H75.89v2.72H74.68v1.53h1.21v5.12c0,1.64,1.24,2.09,2.36,2.09.92,0,1.45,0,1.45,0v-1.7l-.68,0A.77.77,0,0,1,78.15,47.41Zm3.54-7.51H84V37.83H81.69Zm0,10.08H84V41.26H81.69Zm9.55-9a2.81,2.81,0,0,0-2.58,1.43h0V41.26H86.35V50h2.31V45a1.82,1.82,0,0,1,1.77-2,1.45,1.45,0,0,1,1.51,1.59V50h2.31v-5.7A3,3,0,0,0,91.24,41ZM102,46.29a1.76,1.76,0,0,1-1.75,2c-1,0-1.44-.56-1.44-1.58V41.26h-2.3v5.81a2.85,2.85,0,0,0,3,3.15A2.81,2.81,0,0,0,102,49H102v1h2.22V41.26H102ZM110.74,41a4.61,4.61,0,1,0,4.56,4.61A4.43,4.43,0,0,0,110.74,41Zm0,7.45c-1.43,0-2.21-1.14-2.21-2.84s.78-2.86,2.21-2.86S113,43.93,113,45.63,112.15,48.47,110.74,48.47Zm11.9-2.18a1.76,1.76,0,0,1-1.75,2c-1,0-1.45-.56-1.45-1.58V41.26h-2.29v5.81a2.85,2.85,0,0,0,3,3.15A2.78,2.78,0,0,0,122.67,49h.06v1H125V41.26h-2.31Zm8.79-1.61c-1.24-.26-2.4-.33-2.4-1.08s.6-1,1.5-1,1.58.34,1.68,1.27h2.09c-.17-1.75-1.44-2.89-3.74-2.89-2,0-3.55.9-3.55,2.79s1.53,2.33,3.09,2.63c1.19.24,2.3.33,2.3,1.16,0,.61-.58,1-1.6,1a1.67,1.67,0,0,1-1.9-1.44h-2.15c.14,1.85,1.55,3.07,4.08,3.07,2.18,0,3.68-1,3.68-2.8C134.51,45.39,132.89,45,131.43,44.68Zm5,5.3h2.31V37.83h-2.31Zm8.8-4.79c-.27.79-.51,1.9-.51,1.9h0s-.29-1.11-.56-1.9l-1.29-3.93h-2.43l2.34,6.2a7.63,7.63,0,0,1,.66,2.37c0,.71-.37,1.19-1.29,1.19h-.81v1.81h1.36c1.76,0,2.41-.69,3.07-2.63l3-8.94h-2.33ZM159,41a3,3,0,0,0-2.57,1.33h-.05V41.26h-2.23V52.83h2.32V49h0A2.8,2.8,0,0,0,159,50.23c2.24,0,3.77-1.78,3.77-4.6S161.28,41,159,41Zm-.48,7.29c-1.37,0-2.1-1-2.1-2.61s.57-2.81,2-2.81,2,1.16,2,2.81S159.67,48.31,158.49,48.31ZM167,42.65h-.05V41.26h-2.23V50H167V45.73c0-1.84,1.09-2.64,2.6-2.48h.06v-2a1.36,1.36,0,0,0-.55-.07A2.29,2.29,0,0,0,167,42.65ZM175.37,41a4.61,4.61,0,1,0,4.56,4.61A4.43,4.43,0,0,0,175.37,41Zm0,7.45c-1.42,0-2.21-1.14-2.21-2.84s.79-2.86,2.21-2.86,2.21,1.16,2.21,2.86S176.78,48.47,175.37,48.47Zm12.29-6.16h0A2.75,2.75,0,0,0,185.15,41c-2.18,0-3.72,1.89-3.72,4.61s1.49,4.6,3.68,4.6a2.91,2.91,0,0,0,2.61-1.39h0V50H190V37.83h-2.32Zm-2,6c-1.18,0-1.85-1-1.85-2.67s.65-2.74,1.92-2.74c1.48,0,2,1.12,2,2.79S187,48.3,185.62,48.3Zm12.13-2a1.76,1.76,0,0,1-1.76,2c-1,0-1.44-.56-1.44-1.58V41.26h-2.29v5.81a2.84,2.84,0,0,0,3,3.15,2.81,2.81,0,0,0,2.5-1.26h.05v1h2.23V41.26h-2.31Zm8.65,2.09c-1.41,0-2.08-1.1-2.08-2.75s.72-2.76,2.11-2.76a1.6,1.6,0,0,1,1.6,1.35h2.26a3.7,3.7,0,0,0-4-3.2A4.3,4.3,0,0,0,202,45.63a4.33,4.33,0,0,0,4.47,4.6,3.65,3.65,0,0,0,3.93-3.33h-2.23A1.63,1.63,0,0,1,206.4,48.38ZM216.11,41a4.32,4.32,0,0,0-4.3,4.59,4.31,4.31,0,0,0,4.52,4.62,3.73,3.73,0,0,0,3.94-2.85H218a1.62,1.62,0,0,1-1.68,1.07,2.17,2.17,0,0,1-2.23-2.18h6.33C220.41,43.16,218.91,41,216.11,41Zm-2,3.66a1.94,1.94,0,0,1,2-1.87A1.84,1.84,0,0,1,218,44.68ZM226,39.9h2.32V37.83H226ZM226,50h2.32V41.26H226Zm9.56-9A2.84,2.84,0,0,0,233,42.45H233V41.26h-2.26V50H233V45a1.82,1.82,0,0,1,1.77-2,1.44,1.44,0,0,1,1.51,1.59V50h2.32v-5.7A3,3,0,0,0,235.59,41Zm10.18,0a2.81,2.81,0,0,0-2.58,1.43h-.05V41.26h-2.26V50h2.31V45A1.81,1.81,0,0,1,245,43a1.45,1.45,0,0,1,1.52,1.59V50h2.31v-5.7A3,3,0,0,0,245.77,41Zm9.42,0a4.61,4.61,0,1,0,4.55,4.61A4.44,4.44,0,0,0,255.19,41Zm0,7.45c-1.43,0-2.21-1.14-2.21-2.84s.78-2.86,2.21-2.86,2.21,1.16,2.21,2.86S256.6,48.47,255.19,48.47Zm10.05-2.69c-.26.83-.38,1.39-.38,1.39h0s-.14-.56-.39-1.39L263,41.26H260.7l3,8.72h2.21l3-8.72h-2.31Zm12.52-1.53c0-2-1.05-3.21-3.67-3.21s-3.69,1.34-3.75,2.87h2.05c.07-.83.6-1.22,1.69-1.22s1.46.4,1.46,1-.67.79-2.11,1c-1.94.27-3.5.88-3.5,2.8,0,1.74,1.26,2.67,3,2.67A2.68,2.68,0,0,0,275.54,49h0a2.46,2.46,0,0,0,.27,1h2.23v-.09c-.2-.15-.31-.54-.31-1.2Zm-2.17,2.65a1.82,1.82,0,0,1-2.06,1.67c-.81,0-1.36-.29-1.36-1.11s.6-1.08,1.8-1.36a6.17,6.17,0,0,0,1.62-.51Zm7.27.51V42.79h1.5V41.26h-1.5V38.54H280.6v2.72h-1.2v1.53h1.2v5.12c0,1.64,1.24,2.09,2.37,2.09.91,0,1.44,0,1.44,0v-1.7l-.68,0A.77.77,0,0,1,282.86,47.41ZM286.4,50h2.31V41.26H286.4Zm0-10.08h2.31V37.83H286.4Zm8.48,5.88c-.25.83-.37,1.39-.37,1.39h0s-.13-.56-.39-1.39l-1.39-4.52h-2.35l3,8.72h2.21l3-8.72h-2.31Zm9-4.76a4.32,4.32,0,0,0-4.3,4.59,4.31,4.31,0,0,0,4.52,4.62A3.73,3.73,0,0,0,308,47.38h-2.28a1.62,1.62,0,0,1-1.68,1.07,2.17,2.17,0,0,1-2.23-2.18h6.33C308.18,43.16,306.68,41,303.88,41Zm-2,3.66a1.94,1.94,0,0,1,2-1.87,1.84,1.84,0,0,1,1.85,1.87ZM313.8,50h2.32V41.26H313.8Zm0-10.08h2.32V37.83H313.8Zm10.48,2.41h-.06A2.75,2.75,0,0,0,321.76,41c-2.18,0-3.72,1.89-3.72,4.61s1.49,4.6,3.69,4.6a2.91,2.91,0,0,0,2.6-1.39h0V50h2.23V37.83h-2.31Zm-2,6c-1.19,0-1.86-1-1.86-2.67s.65-2.74,1.92-2.74c1.48,0,2,1.12,2,2.79S323.61,48.3,322.24,48.3ZM332.81,41a4.32,4.32,0,0,0-4.3,4.59A4.31,4.31,0,0,0,333,50.23,3.73,3.73,0,0,0,337,47.38H334.7A1.64,1.64,0,0,1,333,48.45a2.16,2.16,0,0,1-2.22-2.18h6.32C337.11,43.16,335.61,41,332.81,41Zm-2,3.66a1.94,1.94,0,0,1,2-1.87,1.84,1.84,0,0,1,1.86,1.87Zm15.62-.43c0-2-1.05-3.21-3.67-3.21s-3.69,1.34-3.76,2.87h2.06c.07-.83.6-1.22,1.68-1.22s1.47.4,1.47,1-.67.79-2.11,1c-1.94.27-3.5.88-3.5,2.8,0,1.74,1.25,2.67,3,2.67A2.69,2.69,0,0,0,344.22,49h0a2.46,2.46,0,0,0,.27,1h2.23v-.09c-.2-.15-.31-.54-.31-1.2Zm-2.17,2.65a1.82,1.82,0,0,1-2.06,1.67c-.82,0-1.36-.29-1.36-1.11s.6-1.08,1.8-1.36a6.17,6.17,0,0,0,1.62-.51Zm8.62-2.22c-1.24-.26-2.4-.33-2.4-1.08s.59-1,1.5-1,1.58.34,1.68,1.27h2.09C355.59,42.16,354.31,41,352,41c-2,0-3.55.9-3.55,2.79s1.53,2.33,3.09,2.63c1.19.24,2.29.33,2.29,1.16,0,.61-.57,1-1.59,1a1.68,1.68,0,0,1-1.91-1.44h-2.14c.14,1.85,1.55,3.07,4.08,3.07,2.18,0,3.67-1,3.67-2.8C356,45.39,354.35,45,352.89,44.68Zm4.82,5.3h2.49V47.51h-2.49Z" fill="#707070"/></svg>