<svg id="e605f38d-3c82-436e-9173-193d8ca50a27" data-name="レイヤー 1" xmlns="http://www.w3.org/2000/svg" width="654" height="88"><defs><style>.fd451ffd-9645-48aa-9883-18c9d873916d{fill:#707070}</style></defs><path class="fd451ffd-9645-48aa-9883-18c9d873916d" d="M13.54,22h2.27l1.5-6.51c.2-.88.39-2.16.39-2.16h0s.23,1.28.43,2.16L19.64,22h2.29L25.4,9.8H23l-1.53,6c-.24,1.05-.6,2.67-.6,2.67h0s-.31-1.53-.56-2.6L18.92,9.8H16.54l-1.32,6.1c-.26,1.07-.56,2.59-.56,2.59h0s-.29-1.62-.52-2.66l-1.58-6H10Z"/><path class="fd451ffd-9645-48aa-9883-18c9d873916d" d="M30.25,22.21a3.74,3.74,0,0,0,3.94-2.86H31.91a1.61,1.61,0,0,1-1.68,1.07A2.17,2.17,0,0,1,28,18.25h6.33c0-3.11-1.5-5.25-4.3-5.25a4.32,4.32,0,0,0-4.31,4.59A4.32,4.32,0,0,0,30.25,22.21Zm-.19-7.43a1.84,1.84,0,0,1,1.85,1.87H28A1.94,1.94,0,0,1,30.06,14.78Z"/><path class="fd451ffd-9645-48aa-9883-18c9d873916d" d="M43.05,22h2.31V16.89c0-1.16.63-1.91,1.56-1.91s1.34.51,1.34,1.5V22h2.32V16.89c0-1.16.59-1.91,1.56-1.91s1.34.51,1.34,1.5V22h2.31V16.09c0-1.9-1-3.09-2.87-3.09a3,3,0,0,0-2.62,1.53h0A2.6,2.6,0,0,0,47.86,13a2.86,2.86,0,0,0-2.54,1.41h0V13.23H43.05Z"/><path class="fd451ffd-9645-48aa-9883-18c9d873916d" d="M65.81,22V13.23H63.5v5a1.77,1.77,0,0,1-1.76,2c-1,0-1.44-.56-1.44-1.58V13.23H58v5.82a2.84,2.84,0,0,0,3,3.14,2.81,2.81,0,0,0,2.5-1.26h0v1Z"/><path class="fd451ffd-9645-48aa-9883-18c9d873916d" d="M71.69,22.21c2.18,0,3.67-1.06,3.67-2.81,0-2-1.61-2.44-3.08-2.75-1.24-.25-2.39-.32-2.39-1.07s.59-1,1.49-1S73,15,73.07,15.89h2.09C75,14.13,73.71,13,71.42,13c-2,0-3.55.9-3.55,2.78S69.4,18.11,71,18.42c1.19.24,2.29.32,2.29,1.15,0,.62-.57,1-1.59,1a1.69,1.69,0,0,1-1.91-1.45H67.61C67.75,21,69.16,22.21,71.69,22.21Z"/><path class="fd451ffd-9645-48aa-9883-18c9d873916d" d="M76.57,14.76h1.21v5.12C77.78,21.53,79,22,80.14,22c.92,0,1.44,0,1.44,0v-1.7H80.9a.76.76,0,0,1-.86-.86V14.76h1.49V13.23H80V10.51H77.78v2.72H76.57Z"/><path class="fd451ffd-9645-48aa-9883-18c9d873916d" d="M90.37,24.81h2.31V21h0a2.79,2.79,0,0,0,2.51,1.24c2.25,0,3.78-1.79,3.78-4.61S97.53,13,95.21,13a3,3,0,0,0-2.56,1.32H92.6V13.23H90.37Zm4.37-4.52c-1.38,0-2.11-1-2.11-2.62s.58-2.8,2-2.8,2,1.15,2,2.8S95.91,20.29,94.74,20.29Z"/><path class="fd451ffd-9645-48aa-9883-18c9d873916d" d="M103.15,13.23h-2.22V22h2.31V17.7a2.2,2.2,0,0,1,2.6-2.48h0v-2a1.53,1.53,0,0,0-.54-.07,2.28,2.28,0,0,0-2.14,1.5h-.06Z"/><path class="fd451ffd-9645-48aa-9883-18c9d873916d" d="M111.62,22.21a4.44,4.44,0,0,0,4.56-4.61,4.56,4.56,0,1,0-9.12,0A4.44,4.44,0,0,0,111.62,22.21Zm0-1.77c-1.43,0-2.21-1.14-2.21-2.84s.78-2.85,2.21-2.85,2.21,1.15,2.21,2.85S113,20.44,111.62,20.44Z"/><path class="fd451ffd-9645-48aa-9883-18c9d873916d" d="M123.59,22h2.22v-.08c-.2-.15-.3-.55-.3-1.21V16.23c0-2-1.06-3.22-3.67-3.22s-3.69,1.35-3.76,2.88h2.06c.06-.84.59-1.23,1.68-1.23s1.46.41,1.46,1-.66.78-2.11,1c-1.93.28-3.5.89-3.5,2.81,0,1.73,1.26,2.67,3,2.67A2.66,2.66,0,0,0,123.28,21h0A2.26,2.26,0,0,0,123.59,22Zm-2.31-1.41c-.82,0-1.36-.29-1.36-1.1s.59-1.09,1.8-1.36a6.49,6.49,0,0,0,1.61-.51v1.31C123.33,19.73,122.6,20.54,121.28,20.54Z"/><path class="fd451ffd-9645-48aa-9883-18c9d873916d" d="M131.87,22.21a3.64,3.64,0,0,0,3.92-3.33h-2.22a1.64,1.64,0,0,1-1.75,1.48c-1.42,0-2.08-1.11-2.08-2.76s.72-2.75,2.11-2.75a1.61,1.61,0,0,1,1.6,1.34h2.26a3.7,3.7,0,0,0-4-3.19,4.3,4.3,0,0,0-4.35,4.6A4.34,4.34,0,0,0,131.87,22.21Z"/><path class="fd451ffd-9645-48aa-9883-18c9d873916d" d="M137.14,14.76h1.2v5.12c0,1.65,1.24,2.09,2.37,2.09.91,0,1.44,0,1.44,0v-1.7h-.68a.76.76,0,0,1-.87-.86V14.76h1.5V13.23h-1.5V10.51h-2.26v2.72h-1.2Z"/><path class="fd451ffd-9645-48aa-9883-18c9d873916d" d="M144.14,22h2.31V13.23h-2.31Zm0-10.08h2.31V9.8h-2.31Z"/><path class="fd451ffd-9645-48aa-9883-18c9d873916d" d="M151.11,22h2.21l3-8.72h-2.31l-1.43,4.53c-.25.83-.37,1.39-.37,1.39h0s-.14-.56-.4-1.39l-1.39-4.53h-2.35Z"/><path class="fd451ffd-9645-48aa-9883-18c9d873916d" d="M161.84,22.21a3.74,3.74,0,0,0,3.94-2.86H163.5a1.61,1.61,0,0,1-1.68,1.07,2.17,2.17,0,0,1-2.23-2.17h6.33c0-3.11-1.5-5.25-4.3-5.25a4.31,4.31,0,0,0-4.3,4.59A4.31,4.31,0,0,0,161.84,22.21Zm-.19-7.43a1.84,1.84,0,0,1,1.85,1.87h-3.87A1.94,1.94,0,0,1,161.65,14.78Z"/><path class="fd451ffd-9645-48aa-9883-18c9d873916d" d="M167.87,22h2.31V9.8h-2.31Z"/><path class="fd451ffd-9645-48aa-9883-18c9d873916d" d="M172.75,24.81h1.36c1.77,0,2.41-.7,3.08-2.64l3-8.94H177.9l-1.22,3.93c-.27.8-.51,1.9-.51,1.9h0s-.28-1.1-.56-1.9l-1.29-3.93h-2.43l2.35,6.21a7.53,7.53,0,0,1,.66,2.36c0,.71-.37,1.19-1.29,1.19h-.82Z"/><path class="fd451ffd-9645-48aa-9883-18c9d873916d" d="M188.66,22H191V16.89c0-1.16.63-1.91,1.57-1.91s1.34.51,1.34,1.5V22h2.31V16.89c0-1.16.6-1.91,1.56-1.91s1.35.51,1.35,1.5V22h2.31V16.09c0-1.9-1-3.09-2.87-3.09a3,3,0,0,0-2.62,1.53h0A2.61,2.61,0,0,0,193.47,13a2.83,2.83,0,0,0-2.53,1.41h-.05V13.23h-2.23Z"/><path class="fd451ffd-9645-48aa-9883-18c9d873916d" d="M209.18,22h2.23v-.08c-.21-.15-.31-.55-.31-1.21V16.23c0-2-1-3.22-3.67-3.22s-3.69,1.35-3.76,2.88h2.06c.07-.84.59-1.23,1.68-1.23s1.46.41,1.46,1-.66.78-2.1,1c-1.94.28-3.51.89-3.51,2.81,0,1.73,1.26,2.67,3.05,2.67A2.65,2.65,0,0,0,208.87,21h0A2.26,2.26,0,0,0,209.18,22Zm-2.31-1.41c-.82,0-1.36-.29-1.36-1.1s.59-1.09,1.8-1.36a6.35,6.35,0,0,0,1.61-.51v1.31C208.92,19.73,208.19,20.54,206.87,20.54Z"/><path class="fd451ffd-9645-48aa-9883-18c9d873916d" d="M219.16,22H222l-3.6-5.4,3.21-3.32H218.8l-3.09,3.3V9.8h-2.3V22h2.3V19l1-1Z"/><path class="fd451ffd-9645-48aa-9883-18c9d873916d" d="M227.05,22.21A3.74,3.74,0,0,0,231,19.35h-2.28A1.61,1.61,0,0,1,227,20.42a2.17,2.17,0,0,1-2.23-2.17h6.33c0-3.11-1.5-5.25-4.3-5.25a4.32,4.32,0,0,0-4.31,4.59A4.32,4.32,0,0,0,227.05,22.21Zm-.19-7.43a1.84,1.84,0,0,1,1.85,1.87h-3.87A1.94,1.94,0,0,1,226.86,14.78Z"/><path class="fd451ffd-9645-48aa-9883-18c9d873916d" d="M239.85,22h2.31V13.23h-2.31Zm0-10.08h2.31V9.8h-2.31Z"/><path class="fd451ffd-9645-48aa-9883-18c9d873916d" d="M246.76,13.23H244.5V22h2.31V17a1.83,1.83,0,0,1,1.77-2,1.46,1.46,0,0,1,1.52,1.6V22h2.31V16.26a3,3,0,0,0-3-3.26,2.85,2.85,0,0,0-2.59,1.42h-.05Z"/><path class="fd451ffd-9645-48aa-9883-18c9d873916d" d="M256.83,22H259l3-8.72h-2.31l-1.43,4.53c-.25.83-.37,1.39-.37,1.39h0s-.13-.56-.39-1.39l-1.39-4.53H253.8Z"/><path class="fd451ffd-9645-48aa-9883-18c9d873916d" d="M267.55,22.21a3.74,3.74,0,0,0,3.95-2.86h-2.28a1.61,1.61,0,0,1-1.68,1.07,2.17,2.17,0,0,1-2.23-2.17h6.32c0-3.11-1.49-5.25-4.3-5.25a4.31,4.31,0,0,0-4.3,4.59A4.31,4.31,0,0,0,267.55,22.21Zm-.18-7.43a1.84,1.84,0,0,1,1.85,1.87h-3.88A2,2,0,0,1,267.37,14.78Z"/><path class="fd451ffd-9645-48aa-9883-18c9d873916d" d="M277.09,22.21c2.18,0,3.67-1.06,3.67-2.81,0-2-1.61-2.44-3.07-2.75-1.24-.25-2.4-.32-2.4-1.07s.59-1,1.5-1,1.58.34,1.68,1.28h2.09c-.17-1.76-1.45-2.89-3.74-2.89-2,0-3.55.9-3.55,2.78s1.53,2.33,3.09,2.64c1.19.24,2.3.32,2.3,1.15,0,.62-.58,1-1.6,1a1.69,1.69,0,0,1-1.91-1.45H273C273.15,21,274.56,22.21,277.09,22.21Z"/><path class="fd451ffd-9645-48aa-9883-18c9d873916d" d="M282,14.76h1.21v5.12c0,1.65,1.24,2.09,2.36,2.09.92,0,1.45,0,1.45,0v-1.7h-.68a.76.76,0,0,1-.87-.86V14.76h1.49V13.23h-1.49V10.51h-2.26v2.72H282Z"/><path class="fd451ffd-9645-48aa-9883-18c9d873916d" d="M289,22h2.32V16.89c0-1.16.63-1.91,1.56-1.91s1.34.51,1.34,1.5V22h2.31V16.89c0-1.16.6-1.91,1.57-1.91s1.34.51,1.34,1.5V22h2.31V16.09c0-1.9-1-3.09-2.87-3.09a3,3,0,0,0-2.62,1.53h0A2.61,2.61,0,0,0,293.78,13a2.85,2.85,0,0,0-2.53,1.41h-.05V13.23H289Z"/><path class="fd451ffd-9645-48aa-9883-18c9d873916d" d="M308.1,22.21A3.74,3.74,0,0,0,312,19.35h-2.28a1.61,1.61,0,0,1-1.68,1.07,2.16,2.16,0,0,1-2.22-2.17h6.32c0-3.11-1.5-5.25-4.3-5.25a4.31,4.31,0,0,0-4.3,4.59A4.31,4.31,0,0,0,308.1,22.21Zm-.19-7.43a1.83,1.83,0,0,1,1.85,1.87h-3.87A1.94,1.94,0,0,1,307.91,14.78Z"/><path class="fd451ffd-9645-48aa-9883-18c9d873916d" d="M316.36,13.23H314.1V22h2.31V17a1.83,1.83,0,0,1,1.77-2,1.45,1.45,0,0,1,1.51,1.6V22H322V16.26A3,3,0,0,0,319,13a2.85,2.85,0,0,0-2.59,1.42h-.05Z"/><path class="fd451ffd-9645-48aa-9883-18c9d873916d" d="M323.6,14.76h1.21v5.12c0,1.65,1.24,2.09,2.36,2.09.92,0,1.45,0,1.45,0v-1.7h-.68a.76.76,0,0,1-.87-.86V14.76h1.5V13.23h-1.5V10.51h-2.26v2.72H323.6Z"/><path class="fd451ffd-9645-48aa-9883-18c9d873916d" d="M334.23,22.21c2.17,0,3.67-1.06,3.67-2.81,0-2-1.62-2.44-3.08-2.75-1.24-.25-2.39-.32-2.39-1.07s.59-1,1.49-1,1.58.34,1.68,1.28h2.1C337.53,14.13,336.25,13,334,13c-2,0-3.56.9-3.56,2.78s1.53,2.33,3.1,2.64c1.19.24,2.29.32,2.29,1.15,0,.62-.58,1-1.6,1a1.68,1.68,0,0,1-1.9-1.45h-2.14C330.28,21,331.69,22.21,334.23,22.21Z"/><path class="fd451ffd-9645-48aa-9883-18c9d873916d" d="M349.85,22.21a2.89,2.89,0,0,0,2.6-1.4h0V22h2.23V9.8H352.4v4.49h0A2.77,2.77,0,0,0,349.88,13c-2.17,0-3.72,1.88-3.72,4.6S347.66,22.21,349.85,22.21Zm.51-1.94c-1.19,0-1.85-1-1.85-2.67s.64-2.73,1.92-2.73c1.47,0,2,1.12,2,2.78S351.73,20.27,350.36,20.27Z"/><path class="fd451ffd-9645-48aa-9883-18c9d873916d" d="M361.15,22.21a3.75,3.75,0,0,0,4-2.86h-2.28a1.62,1.62,0,0,1-1.68,1.07,2.17,2.17,0,0,1-2.23-2.17h6.32c0-3.11-1.49-5.25-4.3-5.25a4.31,4.31,0,0,0-4.3,4.59A4.31,4.31,0,0,0,361.15,22.21ZM361,14.78a1.84,1.84,0,0,1,1.85,1.87h-3.88A2,2,0,0,1,361,14.78Z"/><path class="fd451ffd-9645-48aa-9883-18c9d873916d" d="M370.69,22.21c2.18,0,3.67-1.06,3.67-2.81,0-2-1.61-2.44-3.08-2.75-1.24-.25-2.39-.32-2.39-1.07s.59-1,1.49-1,1.58.34,1.69,1.28h2.09C374,14.13,372.71,13,370.42,13c-2,0-3.56.9-3.56,2.78s1.53,2.33,3.1,2.64c1.19.24,2.29.32,2.29,1.15,0,.62-.57,1-1.59,1a1.69,1.69,0,0,1-1.91-1.45h-2.14C366.75,21,368.16,22.21,370.69,22.21Z"/><path class="fd451ffd-9645-48aa-9883-18c9d873916d" d="M376.25,22h2.31V13.23h-2.31Zm0-10.08h2.31V9.8h-2.31Z"/><path class="fd451ffd-9645-48aa-9883-18c9d873916d" d="M384.75,24.93a4.55,4.55,0,0,0,3.14-1,3.37,3.37,0,0,0,1-2.65V13.23H386.7v.92h0A2.82,2.82,0,0,0,384.26,13c-2.21,0-3.78,1.66-3.78,4.26a3.92,3.92,0,0,0,3.84,4.17,2.84,2.84,0,0,0,2.28-1h0v.95c0,1.19-.63,1.82-1.94,1.82-1.07,0-1.56-.43-1.75-1h-2.29C380.91,23.91,382.37,24.93,384.75,24.93Zm0-5.36c-1.19,0-2-.86-2-2.34s.78-2.38,2-2.38a2.1,2.1,0,0,1,2.07,2.36C386.77,18.5,386.18,19.57,384.71,19.57Z"/><path class="fd451ffd-9645-48aa-9883-18c9d873916d" d="M393.54,13.23h-2.26V22h2.31V17a1.83,1.83,0,0,1,1.77-2,1.45,1.45,0,0,1,1.51,1.6V22h2.31V16.26a3,3,0,0,0-3-3.26,2.82,2.82,0,0,0-2.58,1.42h0Z"/><path class="fd451ffd-9645-48aa-9883-18c9d873916d" d="M405.56,22.21a3.74,3.74,0,0,0,3.94-2.86h-2.28a1.61,1.61,0,0,1-1.68,1.07,2.17,2.17,0,0,1-2.23-2.17h6.33c0-3.11-1.5-5.25-4.3-5.25A4.32,4.32,0,0,0,401,17.59,4.32,4.32,0,0,0,405.56,22.21Zm-.19-7.43a1.84,1.84,0,0,1,1.85,1.87h-3.87A1.94,1.94,0,0,1,405.37,14.78Z"/><path class="fd451ffd-9645-48aa-9883-18c9d873916d" d="M414.82,22.21a2.89,2.89,0,0,0,2.6-1.4h0V22h2.22V9.8h-2.31v4.49h-.05A2.77,2.77,0,0,0,414.86,13c-2.18,0-3.73,1.88-3.73,4.6S412.63,22.21,414.82,22.21Zm.51-1.94c-1.19,0-1.85-1-1.85-2.67s.64-2.73,1.92-2.73c1.48,0,2,1.12,2,2.78S416.71,20.27,415.33,20.27Z"/><path class="fd451ffd-9645-48aa-9883-18c9d873916d" d="M428.32,14.76h1.2v5.12c0,1.65,1.24,2.09,2.37,2.09.91,0,1.44,0,1.44,0v-1.7h-.68a.76.76,0,0,1-.87-.86V14.76h1.5V13.23h-1.5V10.51h-2.26v2.72h-1.2Z"/><path class="fd451ffd-9645-48aa-9883-18c9d873916d" d="M439.37,22.21a4.43,4.43,0,0,0,4.55-4.61,4.56,4.56,0,1,0-9.11,0A4.44,4.44,0,0,0,439.37,22.21Zm0-1.77c-1.43,0-2.21-1.14-2.21-2.84s.78-2.85,2.21-2.85,2.21,1.15,2.21,2.85S440.78,20.44,439.37,20.44Z"/><path class="fd451ffd-9645-48aa-9883-18c9d873916d" d="M452.13,14.76h1.21v5.12c0,1.65,1.24,2.09,2.36,2.09.92,0,1.45,0,1.45,0v-1.7h-.68a.76.76,0,0,1-.87-.86V14.76h1.49V13.23H455.6V10.51h-2.26v2.72h-1.21Z"/><path class="fd451ffd-9645-48aa-9883-18c9d873916d" d="M464.71,22h2.23v-.08c-.21-.15-.31-.55-.31-1.21V16.23c0-2-1.05-3.22-3.67-3.22s-3.69,1.35-3.76,2.88h2.06c.07-.84.59-1.23,1.68-1.23s1.46.41,1.46,1-.66.78-2.1,1c-1.94.28-3.51.89-3.51,2.81,0,1.73,1.26,2.67,3,2.67A2.65,2.65,0,0,0,464.4,21h0A2.26,2.26,0,0,0,464.71,22Zm-2.31-1.41c-.82,0-1.36-.29-1.36-1.1s.59-1.09,1.8-1.36a6.57,6.57,0,0,0,1.62-.51v1.31C464.46,19.73,463.72,20.54,462.4,20.54Z"/><path class="fd451ffd-9645-48aa-9883-18c9d873916d" d="M473,22.21a3.66,3.66,0,0,0,3.93-3.33h-2.23a1.63,1.63,0,0,1-1.75,1.48c-1.41,0-2.08-1.11-2.08-2.76s.72-2.75,2.11-2.75a1.6,1.6,0,0,1,1.6,1.34h2.26a3.7,3.7,0,0,0-4-3.19,4.3,4.3,0,0,0-4.35,4.6A4.34,4.34,0,0,0,473,22.21Z"/><path class="fd451ffd-9645-48aa-9883-18c9d873916d" d="M484.52,22h2.8l-3.6-5.4,3.21-3.32h-2.77l-3.1,3.3V9.8h-2.29V22h2.29V19l1-1Z"/><path class="fd451ffd-9645-48aa-9883-18c9d873916d" d="M488.94,22h2.31V9.8h-2.31Z"/><path class="fd451ffd-9645-48aa-9883-18c9d873916d" d="M497.72,22.21a3.75,3.75,0,0,0,3.95-2.86h-2.28a1.62,1.62,0,0,1-1.68,1.07,2.17,2.17,0,0,1-2.23-2.17h6.32c0-3.11-1.49-5.25-4.3-5.25a4.31,4.31,0,0,0-4.3,4.59A4.31,4.31,0,0,0,497.72,22.21Zm-.18-7.43a1.84,1.84,0,0,1,1.85,1.87h-3.88A2,2,0,0,1,497.54,14.78Z"/><path class="fd451ffd-9645-48aa-9883-18c9d873916d" d="M510,14.76h1.21v5.12c0,1.65,1.24,2.09,2.36,2.09.92,0,1.45,0,1.45,0v-1.7h-.68a.76.76,0,0,1-.87-.86V14.76H515V13.23h-1.5V10.51h-2.26v2.72H510Z"/><path class="fd451ffd-9645-48aa-9883-18c9d873916d" d="M519.33,9.8H517V22h2.31V17a1.83,1.83,0,0,1,1.77-2,1.45,1.45,0,0,1,1.51,1.6V22h2.31V16.26a3,3,0,0,0-3-3.26,2.77,2.77,0,0,0-2.53,1.37h0Z"/><path class="fd451ffd-9645-48aa-9883-18c9d873916d" d="M531.3,22.21a3.74,3.74,0,0,0,3.94-2.86H533a1.61,1.61,0,0,1-1.68,1.07,2.17,2.17,0,0,1-2.23-2.17h6.33c0-3.11-1.5-5.25-4.3-5.25a4.32,4.32,0,0,0-4.31,4.59A4.32,4.32,0,0,0,531.3,22.21Zm-.19-7.43A1.84,1.84,0,0,1,533,16.65h-3.87A1.94,1.94,0,0,1,531.11,14.78Z"/><path class="fd451ffd-9645-48aa-9883-18c9d873916d" d="M547.63,22.21c2.18,0,3.67-1.06,3.67-2.81,0-2-1.61-2.44-3.07-2.75-1.25-.25-2.4-.32-2.4-1.07s.59-1,1.49-1,1.59.34,1.69,1.28h2.09c-.17-1.76-1.45-2.89-3.74-2.89-2,0-3.55.9-3.55,2.78s1.53,2.33,3.09,2.64c1.19.24,2.29.32,2.29,1.15,0,.62-.57,1-1.59,1a1.69,1.69,0,0,1-1.91-1.45h-2.14C543.69,21,545.1,22.21,547.63,22.21Z"/><path class="fd451ffd-9645-48aa-9883-18c9d873916d" d="M557.41,22.21A4.43,4.43,0,0,0,562,17.6a4.56,4.56,0,1,0-9.11,0A4.44,4.44,0,0,0,557.41,22.21Zm0-1.77c-1.43,0-2.21-1.14-2.21-2.84s.78-2.85,2.21-2.85,2.2,1.15,2.2,2.85S558.82,20.44,557.41,20.44Z"/><path class="fd451ffd-9645-48aa-9883-18c9d873916d" d="M567.93,22.21a3.64,3.64,0,0,0,3.92-3.33h-2.22a1.64,1.64,0,0,1-1.75,1.48c-1.41,0-2.08-1.11-2.08-2.76s.72-2.75,2.11-2.75a1.6,1.6,0,0,1,1.6,1.34h2.26a3.7,3.7,0,0,0-4-3.19,4.3,4.3,0,0,0-4.35,4.6A4.34,4.34,0,0,0,567.93,22.21Z"/><path class="fd451ffd-9645-48aa-9883-18c9d873916d" d="M573.71,22H576V13.23h-2.31Zm0-10.08H576V9.8h-2.31Z"/><path class="fd451ffd-9645-48aa-9883-18c9d873916d" d="M583.86,22h2.22v-.08c-.2-.15-.3-.55-.3-1.21V16.23c0-2-1.06-3.22-3.67-3.22s-3.69,1.35-3.76,2.88h2.06c.06-.84.59-1.23,1.68-1.23s1.46.41,1.46,1-.66.78-2.11,1c-1.93.28-3.5.89-3.5,2.81,0,1.73,1.26,2.67,3,2.67A2.66,2.66,0,0,0,583.55,21h0A2.39,2.39,0,0,0,583.86,22Zm-2.31-1.41c-.82,0-1.36-.29-1.36-1.1s.59-1.09,1.8-1.36a6.63,6.63,0,0,0,1.61-.51v1.31C583.6,19.73,582.87,20.54,581.55,20.54Z"/><path class="fd451ffd-9645-48aa-9883-18c9d873916d" d="M588.12,22h2.32V9.8h-2.32Z"/><path class="fd451ffd-9645-48aa-9883-18c9d873916d" d="M599.61,22h2.32V13.23h-2.32Zm0-10.08h2.32V9.8h-2.32Z"/><path class="fd451ffd-9645-48aa-9883-18c9d873916d" d="M607.81,22.21c2.17,0,3.67-1.06,3.67-2.81,0-2-1.62-2.44-3.08-2.75-1.24-.25-2.39-.32-2.39-1.07s.59-1,1.49-1,1.58.34,1.68,1.28h2.09c-.17-1.76-1.44-2.89-3.73-2.89-2,0-3.56.9-3.56,2.78s1.53,2.33,3.1,2.64c1.19.24,2.29.32,2.29,1.15,0,.62-.58,1-1.6,1a1.68,1.68,0,0,1-1.9-1.45h-2.14C603.86,21,605.27,22.21,607.81,22.21Z"/><path class="fd451ffd-9645-48aa-9883-18c9d873916d" d="M616.9,22.21c2.18,0,3.67-1.06,3.67-2.81,0-2-1.61-2.44-3.07-2.75-1.24-.25-2.4-.32-2.4-1.07s.6-1,1.5-1,1.58.34,1.68,1.28h2.09c-.17-1.76-1.45-2.89-3.74-2.89-2,0-3.55.9-3.55,2.78s1.53,2.33,3.09,2.64c1.19.24,2.3.32,2.3,1.15,0,.62-.58,1-1.6,1A1.69,1.69,0,0,1,615,19.13h-2.14C613,21,614.37,22.21,616.9,22.21Z"/><path class="fd451ffd-9645-48aa-9883-18c9d873916d" d="M630.2,22V13.23h-2.32v5a1.76,1.76,0,0,1-1.75,2c-1,0-1.44-.56-1.44-1.58V13.23h-2.3v5.82a2.85,2.85,0,0,0,3,3.14,2.81,2.81,0,0,0,2.5-1.26H628v1Z"/><path class="fd451ffd-9645-48aa-9883-18c9d873916d" d="M636.64,22.21a3.74,3.74,0,0,0,3.94-2.86H638.3a1.61,1.61,0,0,1-1.68,1.07,2.17,2.17,0,0,1-2.23-2.17h6.33c0-3.11-1.5-5.25-4.3-5.25a4.31,4.31,0,0,0-4.3,4.59A4.31,4.31,0,0,0,636.64,22.21Zm-.19-7.43a1.83,1.83,0,0,1,1.85,1.87h-3.87A1.94,1.94,0,0,1,636.45,14.78Z"/><path class="fd451ffd-9645-48aa-9883-18c9d873916d" d="M646.18,22.21c2.17,0,3.67-1.06,3.67-2.81,0-2-1.62-2.44-3.08-2.75-1.24-.25-2.4-.32-2.4-1.07s.6-1,1.5-1,1.58.34,1.68,1.28h2.09c-.17-1.76-1.44-2.89-3.74-2.89-2,0-3.55.9-3.55,2.78s1.53,2.33,3.09,2.64c1.19.24,2.3.32,2.3,1.15,0,.62-.58,1-1.6,1a1.68,1.68,0,0,1-1.9-1.45H642.1C642.23,21,643.64,22.21,646.18,22.21Z"/><path class="fd451ffd-9645-48aa-9883-18c9d873916d" d="M10.15,42.83h1.19V50h2.31V42.83h1.57v-1.6H13.65v-.64c0-.9.48-1,1.57-1V37.82c-2.23-.24-3.88.51-3.88,2.63v.78H10.15Z"/><path class="fd451ffd-9645-48aa-9883-18c9d873916d" d="M22.36,50h2.22v-.08c-.2-.15-.3-.55-.3-1.21V44.23c0-2-1.05-3.22-3.67-3.22s-3.69,1.35-3.76,2.88h2.06c.07-.84.59-1.23,1.68-1.23s1.46.41,1.46,1-.66.78-2.11,1c-1.93.28-3.5.89-3.5,2.81,0,1.73,1.26,2.67,3,2.67A2.65,2.65,0,0,0,22.05,49h0A2.26,2.26,0,0,0,22.36,50Zm-2.31-1.41c-.82,0-1.36-.29-1.36-1.1s.59-1.09,1.8-1.36a6.35,6.35,0,0,0,1.61-.51v1.31C22.1,47.73,21.37,48.54,20.05,48.54Z"/><path class="fd451ffd-9645-48aa-9883-18c9d873916d" d="M30.64,50.21a3.64,3.64,0,0,0,3.92-3.33H32.34a1.64,1.64,0,0,1-1.75,1.48c-1.41,0-2.08-1.11-2.08-2.76s.72-2.75,2.11-2.75a1.61,1.61,0,0,1,1.6,1.34h2.26a3.7,3.7,0,0,0-4-3.19,4.3,4.3,0,0,0-4.35,4.6A4.34,4.34,0,0,0,30.64,50.21Z"/><path class="fd451ffd-9645-48aa-9883-18c9d873916d" d="M40.51,50.21a3.75,3.75,0,0,0,4-2.86H42.18a1.62,1.62,0,0,1-1.68,1.07,2.17,2.17,0,0,1-2.23-2.17h6.32c0-3.11-1.49-5.25-4.3-5.25A4.31,4.31,0,0,0,36,45.59,4.31,4.31,0,0,0,40.51,50.21Zm-.18-7.43a1.84,1.84,0,0,1,1.85,1.87H38.3A2,2,0,0,1,40.33,42.78Z"/><path class="fd451ffd-9645-48aa-9883-18c9d873916d" d="M49.78,50.21a2.89,2.89,0,0,0,2.6-1.4h0V50h2.23V37.8H52.33v4.49h0A2.77,2.77,0,0,0,49.81,41c-2.17,0-3.72,1.88-3.72,4.6S47.59,50.21,49.78,50.21Zm.51-1.94c-1.19,0-1.85-1-1.85-2.67s.64-2.73,1.92-2.73c1.48,0,2,1.12,2,2.78S51.67,48.27,50.29,48.27Z"/><path class="fd451ffd-9645-48aa-9883-18c9d873916d" d="M65,50.21c2.2,0,3.69-1.79,3.69-4.61S67.14,41,65,41a2.71,2.71,0,0,0-2.43,1.29h-.06V37.8H60.15V50h2.23V48.87h0A2.91,2.91,0,0,0,65,50.21Zm-.51-1.94c-1.29,0-2.09-1-2.09-2.62s.55-2.78,2-2.78c1.29,0,1.94,1.12,1.94,2.73S65.69,48.27,64.5,48.27Z"/><path class="fd451ffd-9645-48aa-9883-18c9d873916d" d="M70.56,52.81h1.36c1.76,0,2.41-.7,3.07-2.64L78,41.23H75.71l-1.23,3.93c-.27.8-.51,1.9-.51,1.9h0s-.29-1.1-.56-1.9l-1.29-3.93H69.66L72,47.44a7.53,7.53,0,0,1,.66,2.36c0,.71-.37,1.19-1.29,1.19h-.81Z"/><path class="fd451ffd-9645-48aa-9883-18c9d873916d" d="M86.35,50.17a3.39,3.39,0,0,0,3.73-3.63V37.8H87.61v8.72c0,1.07-.46,1.67-1.46,1.67s-1.56-.48-1.56-1.7V45.43H82.38v1.21C82.38,49,83.84,50.17,86.35,50.17Z"/><path class="fd451ffd-9645-48aa-9883-18c9d873916d" d="M98,50h2.22v-.08c-.2-.15-.3-.55-.3-1.21V44.23c0-2-1.06-3.22-3.67-3.22s-3.69,1.35-3.76,2.88H94.5c.06-.84.59-1.23,1.68-1.23s1.46.41,1.46,1-.66.78-2.11,1c-1.93.28-3.5.89-3.5,2.81,0,1.73,1.26,2.67,3,2.67A2.66,2.66,0,0,0,97.64,49h0A2.26,2.26,0,0,0,98,50Zm-2.31-1.41c-.82,0-1.36-.29-1.36-1.1s.59-1.09,1.8-1.36a6.49,6.49,0,0,0,1.61-.51v1.31C97.69,47.73,97,48.54,95.64,48.54Z"/><path class="fd451ffd-9645-48aa-9883-18c9d873916d" d="M102.18,52.81h2.31V49h0A2.79,2.79,0,0,0,107,50.21c2.25,0,3.78-1.79,3.78-4.61S109.34,41,107,41a3.06,3.06,0,0,0-2.57,1.32h0V41.23h-2.23Zm4.37-4.52c-1.38,0-2.11-1-2.11-2.62s.58-2.8,2-2.8,2,1.15,2,2.8S107.72,48.29,106.55,48.29Z"/><path class="fd451ffd-9645-48aa-9883-18c9d873916d" d="M118.23,50h2.22v-.08c-.2-.15-.3-.55-.3-1.21V44.23c0-2-1.06-3.22-3.67-3.22s-3.69,1.35-3.76,2.88h2.06c.07-.84.59-1.23,1.68-1.23s1.46.41,1.46,1-.66.78-2.11,1c-1.93.28-3.5.89-3.5,2.81,0,1.73,1.26,2.67,3,2.67A2.65,2.65,0,0,0,117.92,49h0A2.26,2.26,0,0,0,118.23,50Zm-2.31-1.41c-.82,0-1.36-.29-1.36-1.1s.59-1.09,1.8-1.36a6.35,6.35,0,0,0,1.61-.51v1.31C118,47.73,117.24,48.54,115.92,48.54Z"/><path class="fd451ffd-9645-48aa-9883-18c9d873916d" d="M124.72,41.23h-2.26V50h2.31V45a1.83,1.83,0,0,1,1.77-2,1.45,1.45,0,0,1,1.51,1.6V50h2.32V44.26a3,3,0,0,0-3-3.26,2.85,2.85,0,0,0-2.59,1.42h0Z"/><path class="fd451ffd-9645-48aa-9883-18c9d873916d" d="M132.53,52.78a2.89,2.89,0,0,0,2.46-3V47.49h-2.48V50h1.24a2.1,2.1,0,0,1-1.22,2Z"/><path class="fd451ffd-9645-48aa-9883-18c9d873916d" d="M143.9,50.21c2.18,0,3.67-1.06,3.67-2.81,0-2-1.61-2.44-3.07-2.75-1.24-.25-2.4-.32-2.4-1.07s.59-1,1.5-1,1.58.34,1.68,1.28h2.09c-.17-1.76-1.45-2.89-3.74-2.89-2,0-3.55.9-3.55,2.78s1.53,2.33,3.09,2.64c1.19.24,2.3.32,2.3,1.15,0,.62-.58,1-1.6,1A1.69,1.69,0,0,1,142,47.13h-2.14C140,49,141.37,50.21,143.9,50.21Z"/><path class="fd451ffd-9645-48aa-9883-18c9d873916d" d="M153.68,50.21a4.61,4.61,0,1,0-4.56-4.61A4.43,4.43,0,0,0,153.68,50.21Zm0-1.77c-1.43,0-2.21-1.14-2.21-2.84s.78-2.85,2.21-2.85,2.21,1.15,2.21,2.85S155.09,48.44,153.68,48.44Z"/><path class="fd451ffd-9645-48aa-9883-18c9d873916d" d="M162.81,42.76H164v5.12c0,1.65,1.24,2.09,2.36,2.09.92,0,1.44,0,1.44,0v-1.7h-.68a.76.76,0,0,1-.86-.86V42.76h1.49V41.23h-1.49V38.51H164v2.72h-1.21Z"/><path class="fd451ffd-9645-48aa-9883-18c9d873916d" d="M172.12,37.8h-2.31V50h2.31V45a1.83,1.83,0,0,1,1.77-2,1.46,1.46,0,0,1,1.52,1.6V50h2.31V44.26a3,3,0,0,0-3-3.26,2.76,2.76,0,0,0-2.53,1.37h-.06Z"/><path class="fd451ffd-9645-48aa-9883-18c9d873916d" d="M185.49,50h2.22v-.08c-.2-.15-.3-.55-.3-1.21V44.23c0-2-1.06-3.22-3.67-3.22s-3.69,1.35-3.76,2.88H182c.06-.84.59-1.23,1.68-1.23s1.46.41,1.46,1-.66.78-2.11,1c-1.94.28-3.5.89-3.5,2.81,0,1.73,1.26,2.67,3,2.67A2.66,2.66,0,0,0,185.18,49h0A2.39,2.39,0,0,0,185.49,50Zm-2.32-1.41c-.81,0-1.36-.29-1.36-1.1s.6-1.09,1.81-1.36a6.63,6.63,0,0,0,1.61-.51v1.31C185.23,47.73,184.5,48.54,183.17,48.54Z"/><path class="fd451ffd-9645-48aa-9883-18c9d873916d" d="M189,42.76h1.21v5.12c0,1.65,1.24,2.09,2.36,2.09.92,0,1.44,0,1.44,0v-1.7h-.68a.76.76,0,0,1-.86-.86V42.76H194V41.23h-1.49V38.51h-2.26v2.72H189Z"/><path class="fd451ffd-9645-48aa-9883-18c9d873916d" d="M201.08,50h2.09l1.19-4.28.41-1.51h0l.39,1.51L206.35,50h2.11l2.6-8.72h-2.25l-1.1,4.05c-.19.71-.39,1.63-.39,1.63h0s-.22-.92-.4-1.65l-1.14-4h-2l-1.09,4c-.19.72-.38,1.65-.38,1.65h0s-.2-.92-.39-1.63l-1.06-4.05h-2.29Z"/><path class="fd451ffd-9645-48aa-9883-18c9d873916d" d="M216.57,50.21a3.74,3.74,0,0,0,3.94-2.86h-2.28a1.61,1.61,0,0,1-1.68,1.07,2.17,2.17,0,0,1-2.23-2.17h6.33c0-3.11-1.5-5.25-4.3-5.25A4.32,4.32,0,0,0,212,45.59,4.32,4.32,0,0,0,216.57,50.21Zm-.19-7.43a1.84,1.84,0,0,1,1.85,1.87h-3.87A1.94,1.94,0,0,1,216.38,42.78Z"/><path class="fd451ffd-9645-48aa-9883-18c9d873916d" d="M225.73,50h2.32V44.89c0-1.16.62-1.91,1.56-1.91s1.34.51,1.34,1.5V50h2.31V44.89c0-1.16.6-1.91,1.57-1.91s1.34.51,1.34,1.5V50h2.31V44.09c0-1.9-1-3.09-2.87-3.09A3,3,0,0,0,233,42.53h0A2.61,2.61,0,0,0,230.54,41,2.85,2.85,0,0,0,228,42.41h0V41.23h-2.23Z"/><path class="fd451ffd-9645-48aa-9883-18c9d873916d" d="M246.25,50h2.23v-.08c-.21-.15-.31-.55-.31-1.21V44.23c0-2-1-3.22-3.67-3.22s-3.69,1.35-3.76,2.88h2.06c.07-.84.6-1.23,1.68-1.23s1.47.41,1.47,1-.67.78-2.11,1c-1.94.28-3.5.89-3.5,2.81,0,1.73,1.25,2.67,3,2.67A2.68,2.68,0,0,0,246,49h0A2.41,2.41,0,0,0,246.25,50Zm-2.31-1.41c-.82,0-1.36-.29-1.36-1.1s.6-1.09,1.8-1.36a6.57,6.57,0,0,0,1.62-.51v1.31C246,47.73,245.27,48.54,243.94,48.54Z"/><path class="fd451ffd-9645-48aa-9883-18c9d873916d" d="M250.59,52.81H252c1.76,0,2.41-.7,3.07-2.64l3-8.94h-2.33l-1.23,3.93c-.27.8-.51,1.9-.51,1.9h0s-.29-1.1-.56-1.9l-1.29-3.93h-2.43L252,47.44a7.36,7.36,0,0,1,.67,2.36c0,.71-.38,1.19-1.3,1.19h-.81Z"/><path class="fd451ffd-9645-48aa-9883-18c9d873916d" d="M267.73,50.21c2.19,0,3.69-1.79,3.69-4.61s-1.57-4.6-3.76-4.6a2.71,2.71,0,0,0-2.43,1.29h-.05V37.8h-2.31V50h2.22V48.87h0A2.9,2.9,0,0,0,267.73,50.21Zm-.51-1.94c-1.3,0-2.09-1-2.09-2.62s.54-2.78,2-2.78c1.29,0,1.94,1.12,1.94,2.73S268.41,48.27,267.22,48.27Z"/><path class="fd451ffd-9645-48aa-9883-18c9d873916d" d="M277.43,50.21a3.75,3.75,0,0,0,3.95-2.86H279.1a1.62,1.62,0,0,1-1.68,1.07,2.17,2.17,0,0,1-2.23-2.17h6.32c0-3.11-1.49-5.25-4.3-5.25a4.31,4.31,0,0,0-4.3,4.59A4.31,4.31,0,0,0,277.43,50.21Zm-.18-7.43a1.84,1.84,0,0,1,1.85,1.87h-3.88A2,2,0,0,1,277.25,42.78Z"/><path class="fd451ffd-9645-48aa-9883-18c9d873916d" d="M292.09,50h2.23v-.08c-.21-.15-.31-.55-.31-1.21V44.23c0-2-1.05-3.22-3.67-3.22s-3.69,1.35-3.76,2.88h2.06c.07-.84.6-1.23,1.68-1.23s1.47.41,1.47,1-.67.78-2.11,1c-1.94.28-3.5.89-3.5,2.81,0,1.73,1.25,2.67,3,2.67A2.68,2.68,0,0,0,291.79,49h0A2.41,2.41,0,0,0,292.09,50Zm-2.31-1.41c-.82,0-1.36-.29-1.36-1.1s.59-1.09,1.8-1.36a6.57,6.57,0,0,0,1.62-.51v1.31C291.84,47.73,291.11,48.54,289.78,48.54Z"/><path class="fd451ffd-9645-48aa-9883-18c9d873916d" d="M301.19,50.21c2.19,0,3.68-1.79,3.68-4.61s-1.56-4.6-3.75-4.6a2.71,2.71,0,0,0-2.43,1.29h-.05V37.8h-2.32V50h2.23V48.87h0A2.9,2.9,0,0,0,301.19,50.21Zm-.51-1.94c-1.3,0-2.09-1-2.09-2.62s.54-2.78,2-2.78c1.29,0,1.94,1.12,1.94,2.73S301.87,48.27,300.68,48.27Z"/><path class="fd451ffd-9645-48aa-9883-18c9d873916d" d="M306.83,50h2.31V37.8h-2.31Z"/><path class="fd451ffd-9645-48aa-9883-18c9d873916d" d="M315.62,50.21a3.74,3.74,0,0,0,3.94-2.86h-2.28a1.61,1.61,0,0,1-1.68,1.07,2.16,2.16,0,0,1-2.22-2.17h6.32c0-3.11-1.5-5.25-4.3-5.25a4.31,4.31,0,0,0-4.3,4.59A4.31,4.31,0,0,0,315.62,50.21Zm-.19-7.43a1.83,1.83,0,0,1,1.85,1.87h-3.87A1.94,1.94,0,0,1,315.43,42.78Z"/><path class="fd451ffd-9645-48aa-9883-18c9d873916d" d="M324.28,42.76h1.2v5.12c0,1.65,1.24,2.09,2.37,2.09.91,0,1.44,0,1.44,0v-1.7h-.68a.76.76,0,0,1-.87-.86V42.76h1.5V41.23h-1.5V38.51h-2.26v2.72h-1.2Z"/><path class="fd451ffd-9645-48aa-9883-18c9d873916d" d="M335.33,50.21a4.61,4.61,0,1,0-4.56-4.61A4.43,4.43,0,0,0,335.33,50.21Zm0-1.77c-1.43,0-2.21-1.14-2.21-2.84s.78-2.85,2.21-2.85,2.21,1.15,2.21,2.85S336.74,48.44,335.33,48.44Z"/><path class="fd451ffd-9645-48aa-9883-18c9d873916d" d="M347.2,41.23H345V50h2.31V45.7a2.2,2.2,0,0,1,2.6-2.48h.05v-2a1.5,1.5,0,0,0-.54-.07,2.28,2.28,0,0,0-2.14,1.5h-.05Z"/><path class="fd451ffd-9645-48aa-9883-18c9d873916d" d="M355.63,50.21a3.74,3.74,0,0,0,3.94-2.86h-2.28a1.61,1.61,0,0,1-1.68,1.07,2.17,2.17,0,0,1-2.23-2.17h6.33c0-3.11-1.5-5.25-4.3-5.25a4.31,4.31,0,0,0-4.3,4.59A4.31,4.31,0,0,0,355.63,50.21Zm-.19-7.43a1.84,1.84,0,0,1,1.85,1.87h-3.87A1.94,1.94,0,0,1,355.44,42.78Z"/><path class="fd451ffd-9645-48aa-9883-18c9d873916d" d="M361,42.76h1.21v5.12c0,1.65,1.24,2.09,2.36,2.09.92,0,1.44,0,1.44,0v-1.7h-.68a.76.76,0,0,1-.86-.86V42.76h1.49V41.23h-1.49V38.51h-2.26v2.72H361Z"/><path class="fd451ffd-9645-48aa-9883-18c9d873916d" d="M375.69,50V41.23h-2.31v5a1.77,1.77,0,0,1-1.76,2c-1,0-1.44-.56-1.44-1.58V41.23h-2.3v5.82a2.85,2.85,0,0,0,3,3.14,2.81,2.81,0,0,0,2.5-1.26h0v1Z"/><path class="fd451ffd-9645-48aa-9883-18c9d873916d" d="M380.26,41.23H378V50h2.32V45.7a2.2,2.2,0,0,1,2.6-2.48H383v-2a1.56,1.56,0,0,0-.55-.07,2.29,2.29,0,0,0-2.14,1.5h-.05Z"/><path class="fd451ffd-9645-48aa-9883-18c9d873916d" d="M387.11,41.23h-2.26V50h2.31V45a1.83,1.83,0,0,1,1.77-2,1.45,1.45,0,0,1,1.51,1.6V50h2.31V44.26a3,3,0,0,0-3-3.26,2.85,2.85,0,0,0-2.59,1.42h-.05Z"/><path class="fd451ffd-9645-48aa-9883-18c9d873916d" d="M402.33,50.21a4.61,4.61,0,1,0-4.56-4.61A4.44,4.44,0,0,0,402.33,50.21Zm0-1.77c-1.43,0-2.21-1.14-2.21-2.84s.78-2.85,2.21-2.85,2.21,1.15,2.21,2.85S403.74,48.44,402.33,48.44Z"/><path class="fd451ffd-9645-48aa-9883-18c9d873916d" d="M416.54,50V41.23h-2.31v5a1.76,1.76,0,0,1-1.75,2c-1,0-1.45-.56-1.45-1.58V41.23h-2.29v5.82a2.85,2.85,0,0,0,3,3.14,2.78,2.78,0,0,0,2.49-1.26h.05v1Z"/><path class="fd451ffd-9645-48aa-9883-18c9d873916d" d="M421.12,41.23h-2.23V50h2.31V45.7a2.2,2.2,0,0,1,2.6-2.48h.05v-2a1.5,1.5,0,0,0-.54-.07,2.28,2.28,0,0,0-2.14,1.5h-.05Z"/><path class="fd451ffd-9645-48aa-9883-18c9d873916d" d="M428.87,50h2.31V41.23h-2.31Zm0-10.08h2.31V37.8h-2.31Z"/><path class="fd451ffd-9645-48aa-9883-18c9d873916d" d="M435.79,41.23h-2.26V50h2.31V45a1.83,1.83,0,0,1,1.77-2,1.45,1.45,0,0,1,1.51,1.6V50h2.31V44.26a3,3,0,0,0-3-3.26,2.84,2.84,0,0,0-2.58,1.42h0Z"/><path class="fd451ffd-9645-48aa-9883-18c9d873916d" d="M446,37.8h-2.31V50H446V45a1.83,1.83,0,0,1,1.77-2,1.45,1.45,0,0,1,1.51,1.6V50h2.32V44.26a3,3,0,0,0-3-3.26,2.78,2.78,0,0,0-2.54,1.37H446Z"/><path class="fd451ffd-9645-48aa-9883-18c9d873916d" d="M458,50.21a3.75,3.75,0,0,0,3.95-2.86h-2.28A1.62,1.62,0,0,1,458,48.42a2.16,2.16,0,0,1-2.22-2.17h6.32c0-3.11-1.49-5.25-4.3-5.25a4.31,4.31,0,0,0-4.3,4.59A4.31,4.31,0,0,0,458,50.21Zm-.19-7.43a1.85,1.85,0,0,1,1.86,1.87h-3.88A1.94,1.94,0,0,1,457.8,42.78Z"/><path class="fd451ffd-9645-48aa-9883-18c9d873916d" d="M466.22,41.23H464V50h2.31V45.7a2.2,2.2,0,0,1,2.61-2.48h0v-2a1.56,1.56,0,0,0-.55-.07,2.29,2.29,0,0,0-2.14,1.5h0Z"/><path class="fd451ffd-9645-48aa-9883-18c9d873916d" d="M470.81,50h2.31V41.23h-2.31Zm0-10.08h2.31V37.8h-2.31Z"/><path class="fd451ffd-9645-48aa-9883-18c9d873916d" d="M475,42.76h1.2v5.12c0,1.65,1.25,2.09,2.37,2.09.92,0,1.44,0,1.44,0v-1.7h-.68a.76.76,0,0,1-.86-.86V42.76h1.49V41.23h-1.49V38.51h-2.27v2.72H475Z"/><path class="fd451ffd-9645-48aa-9883-18c9d873916d" d="M486,50.21a3.75,3.75,0,0,0,3.95-2.86h-2.28A1.62,1.62,0,0,1,486,48.42a2.17,2.17,0,0,1-2.23-2.17h6.32c0-3.11-1.49-5.25-4.3-5.25a4.31,4.31,0,0,0-4.3,4.59A4.31,4.31,0,0,0,486,50.21Zm-.18-7.43a1.84,1.84,0,0,1,1.85,1.87h-3.88A2,2,0,0,1,485.79,42.78Z"/><path class="fd451ffd-9645-48aa-9883-18c9d873916d" d="M495.24,50.21a2.89,2.89,0,0,0,2.6-1.4h0V50h2.23V37.8h-2.31v4.49h-.05A2.77,2.77,0,0,0,495.27,41c-2.17,0-3.72,1.88-3.72,4.6S493.05,50.21,495.24,50.21Zm.51-1.94c-1.19,0-1.85-1-1.85-2.67s.64-2.73,1.92-2.73c1.48,0,2,1.12,2,2.78S497.13,48.27,495.75,48.27Z"/><path class="fd451ffd-9645-48aa-9883-18c9d873916d" d="M505.61,50h2.31V44.89c0-1.16.63-1.91,1.57-1.91s1.34.51,1.34,1.5V50h2.31V44.89c0-1.16.6-1.91,1.57-1.91s1.34.51,1.34,1.5V50h2.31V44.09c0-1.9-1-3.09-2.87-3.09a3,3,0,0,0-2.62,1.53h0A2.61,2.61,0,0,0,510.42,41a2.85,2.85,0,0,0-2.53,1.41h-.05V41.23h-2.23Z"/><path class="fd451ffd-9645-48aa-9883-18c9d873916d" d="M526.13,50h2.23v-.08c-.21-.15-.31-.55-.31-1.21V44.23c0-2-1-3.22-3.67-3.22s-3.69,1.35-3.76,2.88h2.06c.07-.84.6-1.23,1.68-1.23s1.46.41,1.46,1-.66.78-2.1,1c-1.94.28-3.5.89-3.5,2.81,0,1.73,1.25,2.67,3,2.67A2.65,2.65,0,0,0,525.82,49h0A2.26,2.26,0,0,0,526.13,50Zm-2.31-1.41c-.82,0-1.36-.29-1.36-1.1s.59-1.09,1.8-1.36a6.57,6.57,0,0,0,1.62-.51v1.31C525.88,47.73,525.15,48.54,523.82,48.54Z"/><path class="fd451ffd-9645-48aa-9883-18c9d873916d" d="M529.68,42.76h1.21v5.12c0,1.65,1.24,2.09,2.36,2.09.92,0,1.45,0,1.45,0v-1.7H534a.76.76,0,0,1-.87-.86V42.76h1.5V41.23h-1.5V38.51h-2.26v2.72h-1.21Z"/><path class="fd451ffd-9645-48aa-9883-18c9d873916d" d="M540.7,50.21a3.74,3.74,0,0,0,3.94-2.86h-2.27a1.63,1.63,0,0,1-1.69,1.07,2.16,2.16,0,0,1-2.22-2.17h6.32c0-3.11-1.5-5.25-4.3-5.25a4.31,4.31,0,0,0-4.3,4.59A4.31,4.31,0,0,0,540.7,50.21Zm-.19-7.43a1.85,1.85,0,0,1,1.86,1.87h-3.88A1.94,1.94,0,0,1,540.51,42.78Z"/><path class="fd451ffd-9645-48aa-9883-18c9d873916d" d="M548.93,41.23H546.7V50H549V45.7a2.2,2.2,0,0,1,2.6-2.48h0v-2a1.46,1.46,0,0,0-.54-.07,2.29,2.29,0,0,0-2.14,1.5h-.05Z"/><path class="fd451ffd-9645-48aa-9883-18c9d873916d" d="M553.52,50h2.31V41.23h-2.31Zm0-10.08h2.31V37.8h-2.31Z"/><path class="fd451ffd-9645-48aa-9883-18c9d873916d" d="M563.67,50h2.22v-.08c-.2-.15-.3-.55-.3-1.21V44.23c0-2-1.06-3.22-3.67-3.22s-3.69,1.35-3.76,2.88h2.06c.06-.84.59-1.23,1.68-1.23s1.46.41,1.46,1-.66.78-2.11,1c-1.94.28-3.5.89-3.5,2.81,0,1.73,1.26,2.67,3,2.67A2.66,2.66,0,0,0,563.36,49h0A2.39,2.39,0,0,0,563.67,50Zm-2.32-1.41c-.81,0-1.36-.29-1.36-1.1s.6-1.09,1.81-1.36a6.63,6.63,0,0,0,1.61-.51v1.31C563.41,47.73,562.68,48.54,561.35,48.54Z"/><path class="fd451ffd-9645-48aa-9883-18c9d873916d" d="M567.93,50h2.32V37.8h-2.32Z"/><path class="fd451ffd-9645-48aa-9883-18c9d873916d" d="M581.28,50h2.23v-.08c-.2-.15-.31-.55-.31-1.21V44.23c0-2-1.05-3.22-3.67-3.22s-3.69,1.35-3.76,2.88h2.06c.07-.84.6-1.23,1.68-1.23s1.47.41,1.47,1-.67.78-2.11,1c-1.94.28-3.5.89-3.5,2.81,0,1.73,1.25,2.67,3,2.67A2.67,2.67,0,0,0,581,49h0A2.41,2.41,0,0,0,581.28,50ZM579,48.54c-.82,0-1.36-.29-1.36-1.1s.6-1.09,1.8-1.36a6.57,6.57,0,0,0,1.62-.51v1.31C581,47.73,580.3,48.54,579,48.54Z"/><path class="fd451ffd-9645-48aa-9883-18c9d873916d" d="M587.78,41.23h-2.26V50h2.31V45a1.83,1.83,0,0,1,1.77-2,1.45,1.45,0,0,1,1.51,1.6V50h2.31V44.26a3,3,0,0,0-3-3.26,2.82,2.82,0,0,0-2.58,1.42h-.05Z"/><path class="fd451ffd-9645-48aa-9883-18c9d873916d" d="M599,50.21a2.88,2.88,0,0,0,2.6-1.4h0V50h2.22V37.8h-2.31v4.49h0A2.77,2.77,0,0,0,599,41c-2.18,0-3.73,1.88-3.73,4.6S596.77,50.21,599,50.21Zm.51-1.94c-1.19,0-1.85-1-1.85-2.67s.65-2.73,1.92-2.73c1.48,0,2,1.12,2,2.78S600.85,48.27,599.47,48.27Z"/><path class="fd451ffd-9645-48aa-9883-18c9d873916d" d="M612.87,50.21c2.18,0,3.67-1.06,3.67-2.81,0-2-1.61-2.44-3.07-2.75-1.24-.25-2.4-.32-2.4-1.07s.6-1,1.5-1,1.58.34,1.68,1.28h2.09c-.17-1.76-1.45-2.89-3.74-2.89-2,0-3.55.9-3.55,2.78s1.53,2.33,3.09,2.64c1.19.24,2.3.32,2.3,1.15,0,.62-.58,1-1.6,1a1.69,1.69,0,0,1-1.91-1.45h-2.14C608.93,49,610.34,50.21,612.87,50.21Z"/><path class="fd451ffd-9645-48aa-9883-18c9d873916d" d="M618.43,52.81h2.31V49h0a2.79,2.79,0,0,0,2.51,1.24c2.25,0,3.78-1.79,3.78-4.61s-1.48-4.6-3.79-4.6a3.06,3.06,0,0,0-2.57,1.32h-.05V41.23h-2.23Zm4.37-4.52c-1.38,0-2.11-1-2.11-2.62s.58-2.8,2-2.8,2,1.15,2,2.8S624,48.29,622.8,48.29Z"/><path class="fd451ffd-9645-48aa-9883-18c9d873916d" d="M629,50h2.31V41.23H629Zm0-10.08h2.31V37.8H629Z"/><path class="fd451ffd-9645-48aa-9883-18c9d873916d" d="M635.87,41.23h-2.22V50H636V45.7a2.2,2.2,0,0,1,2.6-2.48h.05v-2a1.53,1.53,0,0,0-.54-.07,2.3,2.3,0,0,0-2.15,1.5h0Z"/><path class="fd451ffd-9645-48aa-9883-18c9d873916d" d="M640.46,50h2.31V41.23h-2.31Zm0-10.08h2.31V37.8h-2.31Z"/><path class="fd451ffd-9645-48aa-9883-18c9d873916d" d="M645,46.74h4.61v-2H645Z"/><path class="fd451ffd-9645-48aa-9883-18c9d873916d" d="M10.15,70.76h1.21v5.12c0,1.65,1.24,2.09,2.36,2.09.92,0,1.45,0,1.45,0v-1.7h-.68a.76.76,0,0,1-.87-.86V70.76h1.5V69.23h-1.5V66.51H11.36v2.72H10.15Z"/><path class="fd451ffd-9645-48aa-9883-18c9d873916d" d="M24.89,78V69.23H22.58v5a1.76,1.76,0,0,1-1.75,2c-1,0-1.45-.56-1.45-1.58V69.23H17.09v5.82a2.84,2.84,0,0,0,3,3.14,2.79,2.79,0,0,0,2.5-1.26h.05v1Z"/><path class="fd451ffd-9645-48aa-9883-18c9d873916d" d="M32.73,78H35v-.08c-.2-.15-.3-.55-.3-1.21V72.23c0-2-1.06-3.22-3.67-3.22s-3.69,1.35-3.76,2.88h2.06c.07-.84.59-1.23,1.68-1.23s1.46.41,1.46,1-.66.78-2.11,1c-1.93.28-3.5.89-3.5,2.81,0,1.73,1.26,2.67,3.05,2.67A2.65,2.65,0,0,0,32.42,77h0A2.26,2.26,0,0,0,32.73,78Zm-2.31-1.41c-.82,0-1.36-.29-1.36-1.1s.59-1.09,1.8-1.36a6.35,6.35,0,0,0,1.61-.51v1.31C32.47,75.73,31.74,76.54,30.42,76.54Z"/><path class="fd451ffd-9645-48aa-9883-18c9d873916d" d="M37,78h2.31V65.8H37Z"/><path class="fd451ffd-9645-48aa-9883-18c9d873916d" d="M47.26,78h2.09l1.19-4.28L51,72.16h0s.2.81.39,1.51L52.53,78h2.11l2.6-8.72H55l-1.11,4c-.18.71-.39,1.63-.39,1.63h0s-.22-.92-.41-1.65l-1.14-4H50l-1.09,4c-.19.72-.37,1.65-.37,1.65h0s-.2-.92-.39-1.63l-1.05-4h-2.3Z"/><path class="fd451ffd-9645-48aa-9883-18c9d873916d" d="M62.75,78.21a3.74,3.74,0,0,0,3.94-2.86H64.42a1.63,1.63,0,0,1-1.69,1.07,2.16,2.16,0,0,1-2.22-2.17h6.32c0-3.11-1.5-5.25-4.3-5.25a4.61,4.61,0,0,0,.22,9.21Zm-.19-7.43a1.85,1.85,0,0,1,1.86,1.87H60.54A1.94,1.94,0,0,1,62.56,70.78Z"/><path class="fd451ffd-9645-48aa-9883-18c9d873916d" d="M74.24,78h2.23v-.08c-.21-.15-.31-.55-.31-1.21V72.23c0-2-1-3.22-3.67-3.22s-3.69,1.35-3.76,2.88h2.06c.07-.84.6-1.23,1.68-1.23s1.47.41,1.47,1-.67.78-2.11,1c-1.94.28-3.5.89-3.5,2.81,0,1.73,1.25,2.67,3,2.67A2.68,2.68,0,0,0,73.94,77h0A2.41,2.41,0,0,0,74.24,78Zm-2.31-1.41c-.82,0-1.36-.29-1.36-1.1s.59-1.09,1.8-1.36A6.57,6.57,0,0,0,74,73.57v1.31C74,75.73,73.26,76.54,71.93,76.54Z"/><path class="fd451ffd-9645-48aa-9883-18c9d873916d" d="M78.51,78h2.31V65.8H78.51Z"/><path class="fd451ffd-9645-48aa-9883-18c9d873916d" d="M82.69,70.76H83.9v5.12c0,1.65,1.24,2.09,2.36,2.09.92,0,1.45,0,1.45,0v-1.7H87a.76.76,0,0,1-.87-.86V70.76h1.49V69.23H86.16V66.51H83.9v2.72H82.69Z"/><path class="fd451ffd-9645-48aa-9883-18c9d873916d" d="M92,65.8H89.69V78H92V73a1.82,1.82,0,0,1,1.76-2,1.46,1.46,0,0,1,1.52,1.6V78H97.6V72.26a3,3,0,0,0-3-3.26,2.77,2.77,0,0,0-2.53,1.37h0Z"/><path class="fd451ffd-9645-48aa-9883-18c9d873916d" d="M103.07,70.76h1.21v5.12c0,1.65,1.24,2.09,2.36,2.09.92,0,1.45,0,1.45,0v-1.7h-.68a.76.76,0,0,1-.87-.86V70.76H108V69.23h-1.5V66.51h-2.26v2.72h-1.21Z"/><path class="fd451ffd-9645-48aa-9883-18c9d873916d" d="M114.12,78.21a4.61,4.61,0,1,0-4.55-4.61A4.44,4.44,0,0,0,114.12,78.21Zm0-1.77c-1.42,0-2.21-1.14-2.21-2.84s.79-2.85,2.21-2.85,2.21,1.15,2.21,2.85S115.53,76.44,114.12,76.44Z"/><path class="fd451ffd-9645-48aa-9883-18c9d873916d" d="M123.8,70.76H125v5.12c0,1.65,1.24,2.09,2.37,2.09.91,0,1.44,0,1.44,0v-1.7h-.68a.76.76,0,0,1-.87-.86V70.76h1.5V69.23h-1.5V66.51H125v2.72h-1.2Z"/><path class="fd451ffd-9645-48aa-9883-18c9d873916d" d="M133.11,65.8H130.8V78h2.31V73a1.83,1.83,0,0,1,1.77-2,1.45,1.45,0,0,1,1.51,1.6V78h2.31V72.26a3,3,0,0,0-3-3.26,2.78,2.78,0,0,0-2.54,1.37h0Z"/><path class="fd451ffd-9645-48aa-9883-18c9d873916d" d="M145.08,78.21A3.74,3.74,0,0,0,149,75.35h-2.27a1.63,1.63,0,0,1-1.69,1.07,2.16,2.16,0,0,1-2.22-2.17h6.32c0-3.11-1.5-5.25-4.3-5.25a4.61,4.61,0,0,0,.22,9.21Zm-.19-7.43a1.85,1.85,0,0,1,1.86,1.87h-3.88A1.94,1.94,0,0,1,144.89,70.78Z"/><path class="fd451ffd-9645-48aa-9883-18c9d873916d" d="M154.79,80.81h2.31V77h0a2.81,2.81,0,0,0,2.52,1.24c2.24,0,3.77-1.79,3.77-4.61s-1.48-4.6-3.79-4.6a3.07,3.07,0,0,0-2.57,1.32H157V69.23h-2.22Zm4.37-4.52c-1.38,0-2.11-1-2.11-2.62s.58-2.8,2-2.8,2,1.15,2,2.8S160.33,76.29,159.16,76.29Z"/><path class="fd451ffd-9645-48aa-9883-18c9d873916d" d="M173.08,78V69.23h-2.31v5a1.77,1.77,0,0,1-1.75,2c-1,0-1.45-.56-1.45-1.58V69.23h-2.29v5.82a2.84,2.84,0,0,0,3,3.14,2.79,2.79,0,0,0,2.5-1.26h0v1Z"/><path class="fd451ffd-9645-48aa-9883-18c9d873916d" d="M180.29,78.21c2.19,0,3.68-1.79,3.68-4.61s-1.56-4.6-3.75-4.6a2.71,2.71,0,0,0-2.43,1.29h0V65.8h-2.32V78h2.23V76.87h0A2.9,2.9,0,0,0,180.29,78.21Zm-.51-1.94c-1.3,0-2.09-1-2.09-2.62s.54-2.78,2-2.78c1.29,0,1.94,1.12,1.94,2.73S181,76.27,179.78,76.27Z"/><path class="fd451ffd-9645-48aa-9883-18c9d873916d" d="M185.93,78h2.31V65.8h-2.31Z"/><path class="fd451ffd-9645-48aa-9883-18c9d873916d" d="M190.62,78h2.31V69.23h-2.31Zm0-10.08h2.31V65.8h-2.31Z"/><path class="fd451ffd-9645-48aa-9883-18c9d873916d" d="M199.33,78.21a3.65,3.65,0,0,0,3.92-3.33H201a1.64,1.64,0,0,1-1.75,1.48c-1.42,0-2.08-1.11-2.08-2.76s.72-2.75,2.11-2.75a1.61,1.61,0,0,1,1.6,1.34h2.26a3.7,3.7,0,0,0-4-3.19,4.61,4.61,0,0,0,.12,9.21Z"/><path class="fd451ffd-9645-48aa-9883-18c9d873916d" d="M214.3,78h2.23v-.08c-.2-.15-.31-.55-.31-1.21V72.23c0-2-1.05-3.22-3.67-3.22s-3.69,1.35-3.75,2.88h2c.07-.84.6-1.23,1.69-1.23s1.46.41,1.46,1-.67.78-2.11,1c-1.94.28-3.5.89-3.5,2.81,0,1.73,1.26,2.67,3,2.67A2.66,2.66,0,0,0,214,77h0A2.41,2.41,0,0,0,214.3,78ZM212,76.54c-.81,0-1.36-.29-1.36-1.1s.6-1.09,1.8-1.36a6.57,6.57,0,0,0,1.62-.51v1.31C214.05,75.73,213.32,76.54,212,76.54Z"/><path class="fd451ffd-9645-48aa-9883-18c9d873916d" d="M220.8,69.23h-2.26V78h2.31V73a1.83,1.83,0,0,1,1.77-2,1.45,1.45,0,0,1,1.51,1.6V78h2.31V72.26a3,3,0,0,0-3-3.26,2.82,2.82,0,0,0-2.58,1.42h0Z"/><path class="fd451ffd-9645-48aa-9883-18c9d873916d" d="M232,78.21a2.88,2.88,0,0,0,2.6-1.4h0V78h2.22V65.8h-2.31v4.49h-.05A2.75,2.75,0,0,0,232,69c-2.18,0-3.73,1.88-3.73,4.6S229.79,78.21,232,78.21Zm.51-1.94c-1.19,0-1.85-1-1.85-2.67s.65-2.73,1.92-2.73c1.48,0,2,1.12,2,2.78S233.87,76.27,232.49,76.27Z"/><path class="fd451ffd-9645-48aa-9883-18c9d873916d" d="M246.16,78.21a2.89,2.89,0,0,0,2.6-1.4h0V78H251V65.8h-2.31v4.49h-.05A2.77,2.77,0,0,0,246.19,69c-2.17,0-3.72,1.88-3.72,4.6S244,78.21,246.16,78.21Zm.51-1.94c-1.19,0-1.85-1-1.85-2.67s.64-2.73,1.92-2.73c1.48,0,2,1.12,2,2.78S248.05,76.27,246.67,76.27Z"/><path class="fd451ffd-9645-48aa-9883-18c9d873916d" d="M257.47,78.21a3.74,3.74,0,0,0,3.94-2.86h-2.28a1.61,1.61,0,0,1-1.68,1.07,2.17,2.17,0,0,1-2.23-2.17h6.33c0-3.11-1.5-5.25-4.31-5.25a4.61,4.61,0,0,0,.23,9.21Zm-.19-7.43a1.84,1.84,0,0,1,1.85,1.87h-3.87A1.93,1.93,0,0,1,257.28,70.78Z"/><path class="fd451ffd-9645-48aa-9883-18c9d873916d" d="M267.56,78.21a3.75,3.75,0,0,0,3.95-2.86h-2.28a1.62,1.62,0,0,1-1.68,1.07,2.17,2.17,0,0,1-2.23-2.17h6.32c0-3.11-1.49-5.25-4.3-5.25a4.61,4.61,0,0,0,.22,9.21Zm-.18-7.43a1.84,1.84,0,0,1,1.85,1.87h-3.88A2,2,0,0,1,267.38,70.78Z"/><path class="fd451ffd-9645-48aa-9883-18c9d873916d" d="M273.56,80.81h2.32V77h0a2.8,2.8,0,0,0,2.52,1.24c2.24,0,3.77-1.79,3.77-4.61s-1.48-4.6-3.79-4.6a3.06,3.06,0,0,0-2.57,1.32h0V69.23h-2.23Zm4.37-4.52c-1.37,0-2.1-1-2.1-2.62s.57-2.8,2-2.8,2,1.15,2,2.8S279.11,76.29,277.93,76.29Z"/><path class="fd451ffd-9645-48aa-9883-18c9d873916d" d="M288.22,78.21a3.74,3.74,0,0,0,3.94-2.86h-2.28a1.61,1.61,0,0,1-1.68,1.07A2.17,2.17,0,0,1,286,74.25h6.33c0-3.11-1.5-5.25-4.3-5.25a4.61,4.61,0,0,0,.22,9.21ZM288,70.78a1.83,1.83,0,0,1,1.85,1.87H286A1.94,1.94,0,0,1,288,70.78Z"/><path class="fd451ffd-9645-48aa-9883-18c9d873916d" d="M296.48,69.23h-2.26V78h2.31V73a1.83,1.83,0,0,1,1.77-2,1.45,1.45,0,0,1,1.51,1.6V78h2.31V72.26a3,3,0,0,0-3-3.26,2.85,2.85,0,0,0-2.59,1.42h0Z"/><path class="fd451ffd-9645-48aa-9883-18c9d873916d" d="M312.24,78.21a4.61,4.61,0,1,0-4.56-4.61A4.43,4.43,0,0,0,312.24,78.21Zm0-1.77c-1.43,0-2.21-1.14-2.21-2.84s.78-2.85,2.21-2.85,2.21,1.15,2.21,2.85S313.65,76.44,312.24,76.44Z"/><path class="fd451ffd-9645-48aa-9883-18c9d873916d" d="M326.45,78V69.23h-2.31v5a1.76,1.76,0,0,1-1.75,2c-1,0-1.45-.56-1.45-1.58V69.23h-2.29v5.82a2.84,2.84,0,0,0,3,3.14,2.79,2.79,0,0,0,2.5-1.26h.05v1Z"/><path class="fd451ffd-9645-48aa-9883-18c9d873916d" d="M331,69.23H328.8V78h2.31V73.7a2.2,2.2,0,0,1,2.6-2.48h.05v-2a1.53,1.53,0,0,0-.54-.07,2.28,2.28,0,0,0-2.14,1.5H331Z"/><path class="fd451ffd-9645-48aa-9883-18c9d873916d" d="M341.55,69.23h-2.23V78h2.31V73.7a2.2,2.2,0,0,1,2.6-2.48h0v-2a1.5,1.5,0,0,0-.54-.07,2.29,2.29,0,0,0-2.14,1.5h-.05Z"/><path class="fd451ffd-9645-48aa-9883-18c9d873916d" d="M350,78.21a3.74,3.74,0,0,0,3.94-2.86h-2.28A1.61,1.61,0,0,1,350,76.42a2.16,2.16,0,0,1-2.22-2.17h6.32c0-3.11-1.5-5.25-4.3-5.25a4.61,4.61,0,0,0,.22,9.21Zm-.19-7.43a1.83,1.83,0,0,1,1.85,1.87h-3.87A1.94,1.94,0,0,1,349.79,70.78Z"/><path class="fd451ffd-9645-48aa-9883-18c9d873916d" d="M356,78h2.32V65.8H356Z"/><path class="fd451ffd-9645-48aa-9883-18c9d873916d" d="M366.2,78h2.22v-.08c-.2-.15-.3-.55-.3-1.21V72.23c0-2-1.06-3.22-3.67-3.22s-3.69,1.35-3.76,2.88h2.06c.06-.84.59-1.23,1.68-1.23s1.46.41,1.46,1-.66.78-2.11,1c-1.94.28-3.5.89-3.5,2.81,0,1.73,1.26,2.67,3,2.67A2.66,2.66,0,0,0,365.89,77h0A2.39,2.39,0,0,0,366.2,78Zm-2.32-1.41c-.81,0-1.36-.29-1.36-1.1s.6-1.09,1.81-1.36a6.63,6.63,0,0,0,1.61-.51v1.31C365.94,75.73,365.21,76.54,363.88,76.54Z"/><path class="fd451ffd-9645-48aa-9883-18c9d873916d" d="M369.75,70.76H371v5.12c0,1.65,1.24,2.09,2.36,2.09.92,0,1.44,0,1.44,0v-1.7h-.68a.76.76,0,0,1-.86-.86V70.76h1.49V69.23h-1.49V66.51H371v2.72h-1.21Z"/><path class="fd451ffd-9645-48aa-9883-18c9d873916d" d="M376.75,78h2.32V69.23h-2.32Zm0-10.08h2.32V65.8h-2.32Z"/><path class="fd451ffd-9645-48aa-9883-18c9d873916d" d="M385.54,78.21A4.61,4.61,0,1,0,381,73.6,4.44,4.44,0,0,0,385.54,78.21Zm0-1.77c-1.43,0-2.21-1.14-2.21-2.84s.78-2.85,2.21-2.85,2.21,1.15,2.21,2.85S387,76.44,385.54,76.44Z"/><path class="fd451ffd-9645-48aa-9883-18c9d873916d" d="M394.28,69.23H392V78h2.31V73a1.83,1.83,0,0,1,1.77-2,1.45,1.45,0,0,1,1.51,1.6V78h2.31V72.26a3,3,0,0,0-3-3.26,2.85,2.85,0,0,0-2.59,1.42h-.05Z"/><path class="fd451ffd-9645-48aa-9883-18c9d873916d" d="M405.74,78.21c2.17,0,3.67-1.06,3.67-2.81,0-2-1.62-2.44-3.08-2.75-1.24-.25-2.39-.32-2.39-1.07s.59-1,1.49-1,1.58.34,1.68,1.28h2.1C409,70.13,407.76,69,405.47,69c-2,0-3.56.9-3.56,2.78s1.53,2.33,3.1,2.64c1.19.24,2.29.32,2.29,1.15,0,.62-.58,1-1.6,1a1.68,1.68,0,0,1-1.9-1.45h-2.14C401.79,77,403.21,78.21,405.74,78.21Z"/><path class="fd451ffd-9645-48aa-9883-18c9d873916d" d="M413.61,65.8H411.3V78h2.31V73a1.83,1.83,0,0,1,1.77-2,1.45,1.45,0,0,1,1.51,1.6V78h2.31V72.26a3,3,0,0,0-3-3.26,2.77,2.77,0,0,0-2.53,1.37h-.05Z"/><path class="fd451ffd-9645-48aa-9883-18c9d873916d" d="M421.48,78h2.31V69.23h-2.31Zm0-10.08h2.31V65.8h-2.31Z"/><path class="fd451ffd-9645-48aa-9883-18c9d873916d" d="M426.14,80.81h2.31V77h0A2.82,2.82,0,0,0,431,78.21c2.24,0,3.77-1.79,3.77-4.61S433.29,69,431,69a3,3,0,0,0-2.56,1.32h-.06V69.23h-2.22Zm4.37-4.52c-1.38,0-2.11-1-2.11-2.62s.58-2.8,2-2.8,2,1.15,2,2.8S431.68,76.29,430.51,76.29Z"/><path class="fd451ffd-9645-48aa-9883-18c9d873916d" d="M442.27,78h2.09l1.19-4.28.41-1.51h0l.39,1.51L447.54,78h2.11l2.6-8.72H450l-1.11,4c-.19.71-.39,1.63-.39,1.63h0l-.41-1.65-1.14-4h-2l-1.09,4c-.19.72-.38,1.65-.38,1.65h0s-.2-.92-.39-1.63l-1.05-4h-2.3Z"/><path class="fd451ffd-9645-48aa-9883-18c9d873916d" d="M453.92,78h2.31V69.23h-2.31Zm0-10.08h2.31V65.8h-2.31Z"/><path class="fd451ffd-9645-48aa-9883-18c9d873916d" d="M458.06,70.76h1.21v5.12c0,1.65,1.24,2.09,2.36,2.09.92,0,1.45,0,1.45,0v-1.7h-.68a.76.76,0,0,1-.87-.86V70.76H463V69.23h-1.5V66.51h-2.26v2.72h-1.21Z"/><path class="fd451ffd-9645-48aa-9883-18c9d873916d" d="M467.38,65.8h-2.31V78h2.31V73a1.83,1.83,0,0,1,1.77-2,1.45,1.45,0,0,1,1.51,1.6V78H473V72.26A3,3,0,0,0,470,69a2.77,2.77,0,0,0-2.53,1.37h-.05Z"/><path class="fd451ffd-9645-48aa-9883-18c9d873916d" d="M482.49,78.21c2.18,0,3.67-1.06,3.67-2.81,0-2-1.61-2.44-3.07-2.75-1.24-.25-2.4-.32-2.4-1.07s.6-1,1.5-1,1.58.34,1.68,1.28H486c-.17-1.76-1.44-2.89-3.74-2.89-2,0-3.55.9-3.55,2.78s1.53,2.33,3.09,2.64c1.19.24,2.3.32,2.3,1.15,0,.62-.58,1-1.6,1a1.69,1.69,0,0,1-1.91-1.45h-2.14C478.55,77,480,78.21,482.49,78.21Z"/><path class="fd451ffd-9645-48aa-9883-18c9d873916d" d="M492.27,78.21a4.61,4.61,0,1,0-4.56-4.61A4.43,4.43,0,0,0,492.27,78.21Zm0-1.77c-1.43,0-2.21-1.14-2.21-2.84s.78-2.85,2.21-2.85,2.21,1.15,2.21,2.85S493.68,76.44,492.27,76.44Z"/><path class="fd451ffd-9645-48aa-9883-18c9d873916d" d="M502.79,78.21a3.66,3.66,0,0,0,3.93-3.33h-2.23a1.63,1.63,0,0,1-1.75,1.48c-1.41,0-2.08-1.11-2.08-2.76s.72-2.75,2.11-2.75a1.6,1.6,0,0,1,1.6,1.34h2.26a3.69,3.69,0,0,0-4-3.19,4.3,4.3,0,0,0-4.35,4.6A4.34,4.34,0,0,0,502.79,78.21Z"/><path class="fd451ffd-9645-48aa-9883-18c9d873916d" d="M508.57,78h2.31V69.23h-2.31Zm0-10.08h2.31V65.8h-2.31Z"/><path class="fd451ffd-9645-48aa-9883-18c9d873916d" d="M517.32,78.21a3.74,3.74,0,0,0,3.95-2.86H519a1.61,1.61,0,0,1-1.68,1.07,2.17,2.17,0,0,1-2.23-2.17h6.32c0-3.11-1.49-5.25-4.3-5.25a4.61,4.61,0,0,0,.22,9.21Zm-.18-7.43A1.84,1.84,0,0,1,519,72.65h-3.88A2,2,0,0,1,517.14,70.78Z"/><path class="fd451ffd-9645-48aa-9883-18c9d873916d" d="M522.65,70.76h1.2v5.12c0,1.65,1.24,2.09,2.37,2.09.91,0,1.44,0,1.44,0v-1.7H527a.76.76,0,0,1-.87-.86V70.76h1.5V69.23h-1.5V66.51h-2.26v2.72h-1.2Z"/><path class="fd451ffd-9645-48aa-9883-18c9d873916d" d="M530,80.81h1.36c1.76,0,2.41-.7,3.07-2.64l3-8.94h-2.33l-1.23,3.93c-.27.8-.51,1.9-.51,1.9h0s-.29-1.1-.56-1.9l-1.29-3.93h-2.43l2.34,6.21a7.53,7.53,0,0,1,.66,2.36c0,.71-.37,1.19-1.29,1.19H530Z"/><path class="fd451ffd-9645-48aa-9883-18c9d873916d" d="M538.05,78h2.48V75.49h-2.48Z"/></svg>