<svg id="ebd767b7-ad24-4e23-b86a-21b45b418aa3" data-name="レイヤー 1" xmlns="http://www.w3.org/2000/svg" width="212" height="64"><defs><style>.e30bc29a-64d3-48be-8cfe-8d4cfedc9ed3{fill:#fff}</style></defs><path class="e30bc29a-64d3-48be-8cfe-8d4cfedc9ed3" d="M37.06,25.92c-1.55,0-2.19-1.46-2.19-3.68s.64-3.69,2.19-3.69,2.17,1.5,2.17,3.69S38.59,25.92,37.06,25.92Zm0,2.23c3.06,0,5.06-2.3,5.06-5.91s-2-5.89-5-5.89S32,18.64,32,22.24,34,28.15,37.05,28.15Z"/><path class="e30bc29a-64d3-48be-8cfe-8d4cfedc9ed3" d="M48.31,28.14c2.42,0,4.51-1.13,4.51-3.56a2.68,2.68,0,0,0-2.09-2.75v0a2.42,2.42,0,0,0,1.77-2.29c0-2-1.65-3.16-4.23-3.16-2.83,0-4.38,1.58-4.43,3.81h2.59a1.68,1.68,0,0,1,1.82-1.74c.93,0,1.5.52,1.5,1.3s-.7,1.34-1.77,1.34h-.61V23H48c1.25,0,1.94.49,1.94,1.49S49.37,26,48.2,26a1.87,1.87,0,0,1-2.09-2H43.49a3.89,3.89,0,0,0,1.17,3A5.09,5.09,0,0,0,48.31,28.14Z"/><path class="e30bc29a-64d3-48be-8cfe-8d4cfedc9ed3" d="M61.25,31.83h4V26.64h3.67c3.23,0,5.31-2.11,5.31-5.08a5.07,5.07,0,0,0-1.58-3.82,6,6,0,0,0-4.28-1.44H61.25Zm4-8.23V19.54h2.88a1.93,1.93,0,0,1,2.19,2,2,2,0,0,1-2.19,2.06Z"/><path class="e30bc29a-64d3-48be-8cfe-8d4cfedc9ed3" d="M76.88,31.83h3.88V25.36h5.51v6.47h3.89V16.3H86.27v5.89H80.76V16.3H76.88Z"/><path class="e30bc29a-64d3-48be-8cfe-8d4cfedc9ed3" d="M93.65,31.83h3.88V16.3H93.65Z"/><path class="e30bc29a-64d3-48be-8cfe-8d4cfedc9ed3" d="M101,31.83h10.93V28.57h-7.05V16.3H101Z"/><path class="e30bc29a-64d3-48be-8cfe-8d4cfedc9ed3" d="M121.3,29.07c-2.52,0-3.82-2.15-3.82-5s1.3-5,3.82-5,3.8,2.17,3.8,5S123.85,29.07,121.3,29.07Zm0,3.13c4.76,0,7.77-3.45,7.77-8.1s-3-8.1-7.77-8.1-7.75,3.45-7.75,8.1S116.54,32.2,121.28,32.2Z"/><path class="e30bc29a-64d3-48be-8cfe-8d4cfedc9ed3" d="M138.13,32.2c3.63,0,6.44-1.8,6.44-5.06s-2.64-4.21-5.56-4.89c-2.35-.52-3.55-.78-3.55-1.86,0-.87.9-1.46,2.26-1.46s2.37.67,2.52,1.87H144c-.15-3.26-2.79-4.78-6.19-4.78s-6.23,1.46-6.23,4.78,2.87,4.08,5.59,4.71c2.15.52,3.43.78,3.43,2s-1.25,1.63-2.53,1.63c-1.86,0-2.9-.65-3.07-2.22h-3.91C131.22,30.38,134,32.2,138.13,32.2Z"/><path class="e30bc29a-64d3-48be-8cfe-8d4cfedc9ed3" d="M154.59,29.07c-2.52,0-3.81-2.15-3.81-5s1.29-5,3.81-5,3.8,2.17,3.8,5S157.14,29.07,154.59,29.07Zm0,3.13c4.77,0,7.77-3.45,7.77-8.1s-3-8.1-7.77-8.1-7.75,3.45-7.75,8.1S149.83,32.2,154.57,32.2Z"/><path class="e30bc29a-64d3-48be-8cfe-8d4cfedc9ed3" d="M165.17,31.83h4V26.64h3.67c3.23,0,5.31-2.11,5.31-5.08a5.07,5.07,0,0,0-1.58-3.82,6,6,0,0,0-4.28-1.44h-7.07Zm4-8.23V19.54H172a1.93,1.93,0,0,1,2.19,2A2,2,0,0,1,172,23.6Z"/><path class="e30bc29a-64d3-48be-8cfe-8d4cfedc9ed3" d="M180.8,31.83h3.88V25.36h5.51v6.47h3.89V16.3h-3.89v5.89h-5.51V16.3H180.8Z"/><path class="e30bc29a-64d3-48be-8cfe-8d4cfedc9ed3" d="M201.8,31.83h3.89V26.1L211,16.3h-4.1l-2,4c-.53,1.07-1.08,2.37-1.08,2.37h0s-.51-1.3-1-2.37l-2-4h-4.24l5.31,9.8Z"/></svg>